<?xml version="1.0" encoding="UTF-8" standalone="no"?>
<!-- Created with Inkscape (http://www.inkscape.org/) -->

<svg
   width="6.2541666in"
   height="8.3546295in"
   viewBox="0 0 158.85583 212.20759"
   version="1.1"
   id="svg5"
   xml:space="preserve"
   inkscape:export-filename="Bison.svg"
   inkscape:export-xdpi="96"
   inkscape:export-ydpi="96"
   sodipodi:docname="Bear.svg"
   inkscape:version="1.1.2 (b8e25be833, 2022-02-05)"
   xmlns:inkscape="http://www.inkscape.org/namespaces/inkscape"
   xmlns:sodipodi="http://sodipodi.sourceforge.net/DTD/sodipodi-0.dtd"
   xmlns="http://www.w3.org/2000/svg"
   xmlns:svg="http://www.w3.org/2000/svg"><sodipodi:namedview
     id="namedview7"
     pagecolor="#ffffff"
     bordercolor="#000000"
     borderopacity="0.25"
     inkscape:showpageshadow="2"
     inkscape:pageopacity="0.0"
     inkscape:pagecheckerboard="0"
     inkscape:deskcolor="#d1d1d1"
     inkscape:document-units="mm"
     showgrid="false"
     inkscape:pageshadow="2"
     fit-margin-top="0"
     fit-margin-left="0"
     fit-margin-right="0"
     fit-margin-bottom="0"
     units="in"
     inkscape:zoom="0.68506594"
     inkscape:cx="301.43084"
     inkscape:cy="489.73388"
     inkscape:window-width="1920"
     inkscape:window-height="991"
     inkscape:window-x="-9"
     inkscape:window-y="-9"
     inkscape:window-maximized="1"
     inkscape:current-layer="layer1" /><defs
     id="defs2" /><g
     inkscape:label="Layer 1"
     inkscape:groupmode="layer"
     id="layer1"
     transform="translate(-25.247231,-18.841231)"><g
       inkscape:label="Layer 1"
       id="layer1-6"
       transform="matrix(2.5632101,0,0,2.5632101,-423.27924,-225.31797)"><path
         style="fill:#000000;fill-opacity:1;stroke-width:0.264583"
         d="m 205.37152,177.8 c -1.19815,-0.47989 -2.15388,-1.34828 -4.86838,-4.4235 -17.08989,-19.36092 -24.22054,-31.77015 -25.3915,-44.18802 -1.03907,-11.01909 4.44217,-22.13559 14.08189,-28.55949 8.98085,-5.98484 19.99018,-7.028397 29.96384,-2.84023 10.22519,4.29379 16.4749,13.58073 17.67275,26.26135 0.85087,9.00734 -2.41005,18.99499 -10.33035,31.64015 -3.92176,6.2613 -13.29293,18.55491 -15.82664,20.76226 -1.61127,1.40373 -3.78303,1.95572 -5.30161,1.34748 z"
         id="path37" /><path
         style="fill:#ffffff;fill-opacity:1;stroke-width:0.471153"
         d="m 198.90864,152.92917 c -9.51189,-2.619 -16.58825,-9.63695 -19.51043,-19.34938 -0.57786,-1.92067 -0.84607,-4.36863 -0.84952,-7.7539 -0.005,-5.6686 0.97021,-9.27307 3.77945,-13.95808 7.16448,-11.948316 22.72994,-16.64818 35.24637,-10.6424 7.36157,3.53232 12.94523,10.19173 14.87637,17.74238 4.62338,18.07724 -8.20546,34.76095 -26.61343,34.6104 -2.59134,-0.0212 -5.7093,-0.31324 -6.92881,-0.64902 z"
         id="path365" /></g><path
       style="fill:#000000;stroke-width:0.611765"
       d="m 94.992078,125.53319 c -3.77335,-0.35859 -6.311391,-0.91749 -7.236219,-1.59349 -0.783462,-0.57263 -2.426432,-2.96822 -3.651058,-5.32353 -1.224604,-2.35531 -2.387564,-4.42002 -2.584308,-4.58825 -0.196767,-0.16833 -1.026102,-1.40706 -1.843021,-2.75294 -3.255512,-5.3636 -8.31275,-10.70591 -10.134637,-10.70591 -0.939418,0 -2.971784,1.50713 -5.981072,4.43531 -2.506988,2.43942 -5.839034,5.49662 -7.404569,6.7938 -4.356021,3.60937 -6.005928,8.34741 -2.906765,8.34741 1.426781,0 2.588631,1.15323 2.588631,2.56942 0,0.9599 -0.569029,1.10009 -4.435305,1.09283 -6.329588,-0.0116 -7.019128,-0.31036 -8.7895,-3.80401 -1.639433,-3.23528 -1.923485,-8.09233 -0.617816,-10.56415 0.355452,-0.67294 0.665193,-1.36118 0.688291,-1.52942 0.02312,-0.16832 0.748108,-1.40705 1.611155,-2.75293 3.093243,-4.82378 5.774131,-11.711273 4.698132,-12.069963 -0.389627,-0.129945 -0.275012,-1.039813 0.306133,-2.430686 0.510878,-1.22273 0.792364,-2.359655 0.625493,-2.526526 -0.16694,-0.16694 0.02428,-0.915603 0.424749,-1.663896 0.40047,-0.748293 0.779577,-2.103511 0.842445,-3.011623 0.113991,-1.646115 4.608904,-8.494441 6.966179,-10.613419 1.184024,-1.064346 1.194475,-1.201088 0.225438,-2.95109 -1.167123,-2.107882 -1.689422,-1.519083 5.713366,-6.440757 9.198942,-6.115826 15.434794,-7.83348 26.611834,-7.33021 4.20589,0.189368 9.909846,0.674465 12.675476,1.077988 4.24321,0.619065 6.01053,0.577145 11.3177,-0.268584 10.56643,-1.683826 11.91002,-1.588865 16.35726,1.156117 2.42664,1.497811 4.68303,2.414963 6.0731,2.468559 1.21653,0.04694 4.05187,0.594695 6.30075,1.21732 3.9654,1.09785 4.1263,1.098173 5.32829,0.01156 1.54115,-1.394711 4.34756,-0.897244 4.34756,0.770652 0,0.611735 1.7774,3.368208 3.9498,6.125514 2.17239,2.757306 3.81083,5.375441 3.64097,5.818083 -0.33795,0.88062 2.9833,5.234421 5.97539,7.833133 2.36948,2.057985 2.03148,3.000455 -1.74036,4.852725 -2.5632,1.258731 -3.60436,1.415289 -7.84932,1.180325 -2.69176,-0.148905 -7.09647,-0.224513 -9.78825,-0.168096 -2.69178,0.05665 -5.74454,0.105667 -6.78393,0.109135 -5.68146,0.0185 -9.25226,9.561909 -5.48728,14.665019 0.82142,1.11341 2.02136,2.39409 2.66648,2.84593 0.64512,0.45187 1.75985,2.18585 2.47716,3.85331 1.1298,2.62627 1.22225,3.46391 0.69132,6.26343 -0.90621,4.77853 -2.4139,7.40723 -5.04928,8.80368 -2.01954,1.07012 -2.38629,1.10848 -2.9252,0.3059 -0.61656,-0.91831 -0.46528,-4.11324 0.3047,-6.43377 0.35069,-1.05697 -0.18728,-1.51266 -3.75411,-3.18 -2.2899,-1.0704 -5.26462,-2.38807 -6.61052,-2.92811 -1.34587,-0.54003 -3.17391,-1.67809 -4.0623,-2.52902 -1.87118,-1.79227 -2.23565,-1.4884 -3.40074,2.83557 -1.11794,4.1489 -0.96471,5.24543 1.03951,7.43976 1.14194,1.25029 1.8353,2.66961 1.8353,3.75698 0,1.57888 -0.16232,1.7156 -1.68237,1.41633 -0.92529,-0.1822 -2.78353,-0.39448 -4.1294,-0.4718 -4.55601,-0.26172 -6.98195,-3.04309 -9.11286,-10.44805 -0.55504,-1.92874 -0.89616,-4.13109 -0.75803,-4.89414 1.06844,-5.90262 1.73472,-10.950955 1.47901,-11.206637 -0.16832,-0.168327 -1.67171,0.402691 -3.34104,1.268766 -1.669331,0.866081 -3.635268,1.619901 -4.368786,1.675161 -1.518343,0.11445 -1.577974,0.3413 -0.697979,2.65591 0.686349,1.8052 0.968343,3.47131 1.526713,9.01982 0.454599,4.51723 1.034912,6.02893 3.021632,7.87114 1.58339,1.4682 2.40288,4.81809 1.23955,5.067 -0.33647,0.0719 -3.227079,-0.11769 -6.423562,-0.42142 z"
       id="path279" /></g></svg>
