<?xml version="1.0" encoding="UTF-8" standalone="no"?>
<!-- Created with Inkscape (http://www.inkscape.org/) -->

<svg
   width="5in"
   height="2.7621508in"
   viewBox="0 0 126.99999 70.158627"
   version="1.1"
   id="svg5"
   xml:space="preserve"
   inkscape:export-filename="Bison.svg"
   inkscape:export-xdpi="96"
   inkscape:export-ydpi="96"
   sodipodi:docname="bear_logo.svg"
   inkscape:version="1.1.2 (b8e25be833, 2022-02-05)"
   xmlns:inkscape="http://www.inkscape.org/namespaces/inkscape"
   xmlns:sodipodi="http://sodipodi.sourceforge.net/DTD/sodipodi-0.dtd"
   xmlns="http://www.w3.org/2000/svg"
   xmlns:svg="http://www.w3.org/2000/svg"><sodipodi:namedview
     id="namedview7"
     pagecolor="#ffffff"
     bordercolor="#000000"
     borderopacity="0.25"
     inkscape:showpageshadow="2"
     inkscape:pageopacity="0.0"
     inkscape:pagecheckerboard="0"
     inkscape:deskcolor="#d1d1d1"
     inkscape:document-units="mm"
     showgrid="false"
     inkscape:pageshadow="2"
     fit-margin-top="0"
     fit-margin-left="0"
     fit-margin-right="0"
     fit-margin-bottom="0"
     units="in"
     inkscape:zoom="0.68506594"
     inkscape:cx="155.45949"
     inkscape:cy="416.74821"
     inkscape:window-width="1920"
     inkscape:window-height="991"
     inkscape:window-x="-9"
     inkscape:window-y="-9"
     inkscape:window-maximized="1"
     inkscape:current-layer="layer1" /><defs
     id="defs2" /><g
     inkscape:label="Layer 1"
     inkscape:groupmode="layer"
     id="layer1"
     transform="translate(-62.987817,-74.464288)"><g
       id="g606"
       transform="translate(48.656062,160.53527)" /><path
       style="fill:#000000;stroke-width:0.611765"
       d="m 116.80475,144.1851 c -3.77335,-0.35859 -6.31139,-0.91749 -7.23622,-1.59349 -0.78346,-0.57263 -2.42643,-2.96822 -3.65106,-5.32353 -1.2246,-2.35531 -2.38756,-4.42002 -2.58431,-4.58825 -0.19676,-0.16833 -1.0261,-1.40706 -1.84302,-2.75294 -3.255509,-5.3636 -8.312747,-10.70591 -10.134634,-10.70591 -0.939418,0 -2.971784,1.50713 -5.981072,4.43531 -2.506988,2.43942 -5.839034,5.49662 -7.404569,6.7938 -4.356021,3.60937 -6.005928,8.34741 -2.906765,8.34741 1.426781,0 2.588631,1.15323 2.588631,2.56942 0,0.9599 -0.569029,1.10009 -4.435305,1.09283 -6.329588,-0.0116 -7.019128,-0.31036 -8.7895,-3.80401 -1.639433,-3.23528 -1.923485,-8.09233 -0.617816,-10.56415 0.355452,-0.67294 0.665193,-1.36118 0.688291,-1.52942 0.02312,-0.16832 0.748108,-1.40705 1.611155,-2.75293 3.093243,-4.82378 5.774131,-11.71127 4.698132,-12.06996 -0.389627,-0.12994 -0.275012,-1.03981 0.306133,-2.43069 0.510878,-1.22273 0.792364,-2.35965 0.625493,-2.52652 -0.16694,-0.16694 0.02428,-0.9156 0.424749,-1.6639 0.40047,-0.74829 0.779577,-2.10351 0.842445,-3.01162 0.113991,-1.64611 4.608904,-8.494441 6.966179,-10.613419 1.184024,-1.064346 1.194475,-1.201088 0.225438,-2.95109 -1.167123,-2.107882 -1.689422,-1.519083 5.713366,-6.440757 9.198942,-6.115826 15.434789,-7.83348 26.611829,-7.33021 4.20589,0.189368 9.90985,0.674465 12.67548,1.077988 4.24321,0.619065 6.01053,0.577145 11.3177,-0.268584 10.56643,-1.683826 11.91002,-1.588865 16.35726,1.156117 2.42664,1.497811 4.68303,2.414963 6.0731,2.468559 1.21653,0.04694 4.05187,0.594695 6.30075,1.21732 3.9654,1.09785 4.1263,1.098173 5.32829,0.01156 1.54115,-1.394711 4.34756,-0.897244 4.34756,0.770652 0,0.611735 1.7774,3.368208 3.9498,6.125514 2.17239,2.757306 3.81083,5.375441 3.64097,5.818083 -0.33795,0.88062 2.9833,5.234421 5.97539,7.833137 2.36948,2.05798 2.03148,3.00045 -1.74036,4.85272 -2.5632,1.25873 -3.60436,1.41529 -7.84932,1.18033 -2.69176,-0.14891 -7.09647,-0.22452 -9.78825,-0.1681 -2.69178,0.0567 -5.74454,0.10567 -6.78393,0.10914 -5.68146,0.0185 -9.25226,9.5619 -5.48728,14.66501 0.82142,1.11341 2.02136,2.39409 2.66648,2.84593 0.64512,0.45187 1.75985,2.18585 2.47716,3.85331 1.1298,2.62627 1.22225,3.46391 0.69132,6.26343 -0.90621,4.77853 -2.4139,7.40723 -5.04928,8.80368 -2.01954,1.07012 -2.38629,1.10848 -2.9252,0.3059 -0.61656,-0.91831 -0.46528,-4.11324 0.3047,-6.43377 0.35069,-1.05697 -0.18728,-1.51266 -3.75411,-3.18 -2.2899,-1.0704 -5.26462,-2.38807 -6.61052,-2.92811 -1.34587,-0.54003 -3.17391,-1.67809 -4.0623,-2.52902 -1.87118,-1.79227 -2.23565,-1.4884 -3.40074,2.83557 -1.11794,4.1489 -0.96471,5.24543 1.03951,7.43976 1.14194,1.25029 1.8353,2.66961 1.8353,3.75698 0,1.57888 -0.16232,1.7156 -1.68237,1.41633 -0.92529,-0.1822 -2.78353,-0.39448 -4.1294,-0.4718 -4.55601,-0.26172 -6.98195,-3.04309 -9.11286,-10.44805 -0.55504,-1.92874 -0.89616,-4.13109 -0.75803,-4.89414 1.06844,-5.90262 1.73472,-10.95095 1.47901,-11.20663 -0.16832,-0.16833 -1.67171,0.40269 -3.34104,1.26876 -1.66933,0.86608 -3.63527,1.6199 -4.36878,1.67516 -1.51835,0.11445 -1.57798,0.3413 -0.69798,2.65591 0.68635,1.8052 0.96834,3.47131 1.52671,9.01982 0.4546,4.51723 1.03491,6.02893 3.02163,7.87114 1.58339,1.4682 2.40288,4.81809 1.23955,5.067 -0.33647,0.0719 -3.22708,-0.11769 -6.42356,-0.42142 z"
       id="path279" /></g></svg>
