<?xml version="1.0" encoding="UTF-8" standalone="no"?>
<!-- Created with Inkscape (http://www.inkscape.org/) -->

<svg
   width="4.9999967in"
   height="3.3401361in"
   viewBox="0 0 126.9999 84.83945"
   version="1.1"
   id="svg5"
   xml:space="preserve"
   inkscape:export-filename="Bison.svg"
   inkscape:export-xdpi="96"
   inkscape:export-ydpi="96"
   sodipodi:docname="bison_logo.svg"
   inkscape:version="1.1.2 (b8e25be833, 2022-02-05)"
   xmlns:inkscape="http://www.inkscape.org/namespaces/inkscape"
   xmlns:sodipodi="http://sodipodi.sourceforge.net/DTD/sodipodi-0.dtd"
   xmlns="http://www.w3.org/2000/svg"
   xmlns:svg="http://www.w3.org/2000/svg"><sodipodi:namedview
     id="namedview7"
     pagecolor="#ffffff"
     bordercolor="#000000"
     borderopacity="0.25"
     inkscape:showpageshadow="2"
     inkscape:pageopacity="0.0"
     inkscape:pagecheckerboard="0"
     inkscape:deskcolor="#d1d1d1"
     inkscape:document-units="mm"
     showgrid="false"
     inkscape:pageshadow="2"
     fit-margin-top="0"
     fit-margin-left="0"
     fit-margin-right="0"
     fit-margin-bottom="0"
     units="in"
     inkscape:zoom="0.68506594"
     inkscape:cx="203.63003"
     inkscape:cy="270.77686"
     inkscape:window-width="1920"
     inkscape:window-height="991"
     inkscape:window-x="-9"
     inkscape:window-y="-9"
     inkscape:window-maximized="1"
     inkscape:current-layer="layer1" /><defs
     id="defs2" /><g
     inkscape:label="Layer 1"
     inkscape:groupmode="layer"
     id="layer1"
     transform="translate(-30.971551,-71.576534)"><path
       style="fill:#000000;stroke-width:0.251049"
       d="m 45.712565,104.87426 c 0,-0.54413 -3.501869,-6.64065 -3.814431,-6.64065 -0.55141,0 1.104682,5.25488 1.8776,5.95771 0.724278,0.65861 1.936831,1.08617 1.936831,0.68294 z"
       id="path3913" /><path
       style="fill:#000000;stroke-width:0.535801"
       d="m 58.262388,155.34603 c -0.679555,-0.58937 -1.560342,-1.07158 -1.957297,-1.07158 -0.458923,0 -0.721717,-0.64224 -0.721717,-1.76385 0,-1.76044 -2.971597,-7.50353 -7.606874,-14.70155 -1.966248,-3.05335 -2.099194,-3.48313 -1.55783,-5.0361 0.325531,-0.93384 0.591889,-2.50063 0.591889,-3.48173 v -1.78387 l -2.909002,2.95586 c -3.134453,3.18492 -4.793031,6.11453 -5.974703,10.55332 -0.962964,3.61723 -0.996844,8.77357 -0.06136,9.34672 0.384623,0.23566 1.344428,1.28905 2.132912,2.34087 1.769309,2.36017 1.206216,3.17773 -2.188581,3.17773 -1.95673,0 -2.626686,-0.28882 -3.945942,-1.70108 -1.137971,-1.21821 -1.503315,-2.04264 -1.287037,-2.90433 0.38436,-1.53144 -0.131022,-2.89582 -1.093885,-2.89582 -0.956342,0 -0.948323,-0.79786 0.02309,-2.29601 0.754989,-1.16438 2.017927,-6.3555 3.73989,-15.37236 0.726962,-3.80661 1.159559,-4.84669 2.674234,-6.42961 2.20628,-2.30567 3.532462,-4.84 3.532462,-6.75051 0,-0.78794 -0.837693,-3.28794 -1.861551,-5.55552 -2.811109,-6.22601 -3.698883,-10.21677 -2.998874,-13.480807 0.31581,-1.472493 0.942004,-3.38856 1.391551,-4.257905 0.502745,-0.972198 0.596466,-1.580612 0.243454,-1.580612 -1.114298,0 -3.137632,2.583025 -3.488558,4.453547 -0.373687,1.991906 -0.09052,6.585247 0.559306,9.070657 0.614408,2.35027 -0.171929,5.91863 -1.521763,6.90537 -1.137668,0.83164 -1.191596,0.81773 -1.142893,-0.29495 0.02815,-0.64229 0.229867,-1.457 0.448332,-1.8105 0.218465,-0.35348 0.272413,-0.84462 0.119884,-1.09141 -0.152488,-0.2468 -0.412953,-1.84527 -0.578705,-3.55215 -0.165854,-1.70688 -0.400966,-3.26452 -0.522652,-3.46142 -0.121707,-0.19684 -0.01013,-0.70005 0.248557,-1.11815 0.275816,-0.4463 0.257833,-1.01553 -0.04354,-1.37871 -0.734637,-0.885182 1.41243,-6.208074 3.270802,-8.108871 1.721719,-1.761026 6.322247,-4.133504 9.091477,-4.688456 1.031432,-0.206699 3.235221,-1.069625 4.897343,-1.917605 1.662122,-0.848001 5.158233,-2.008126 7.769123,-2.578084 4.693013,-1.024466 9.664878,-2.602931 12.784103,-4.058657 0.884087,-0.412589 3.054077,-1.010554 4.822212,-1.328815 1.768154,-0.318261 5.553892,-1.403782 8.412773,-2.41229 8.679357,-3.061753 12.209567,-3.62843 23.071472,-3.70346 10.67794,-0.07371 13.56959,0.413562 19.9675,3.36509 2.35077,1.084489 3.62654,2.089716 4.68826,3.694082 0.80225,1.212292 1.45865,2.33469 1.45865,2.494206 0,0.159576 0.56774,1.189408 1.26166,2.288639 1.13159,1.792577 1.48724,1.994356 3.45008,1.957338 1.20365,-0.02268 2.575,-0.362084 3.04745,-0.7542 0.65068,-0.540006 1.0095,-0.562485 1.4793,-0.09275 0.34114,0.341144 1.50615,0.62024 2.58894,0.62024 1.08277,0 2.96343,0.350986 4.17925,0.779938 l 2.21057,0.779938 0.0435,-1.449691 0.0435,-1.449671 0.73601,1.607404 c 0.40482,0.884067 0.74689,2.039515 0.76018,2.567654 0.0275,1.09506 0.6322,1.944296 3.12671,4.391418 2.21738,2.175256 2.73527,4.209728 1.97933,7.775463 -0.21866,1.03141 -0.36589,2.45836 -0.32715,3.17101 0.0387,0.71262 -0.30763,1.71341 -0.76967,2.22395 -0.46439,0.51316 -0.61696,1.06615 -0.3412,1.23658 0.27435,0.1695 0.38251,0.91683 0.24033,1.66058 -0.14215,0.74377 -0.0121,1.3523 0.28963,1.3523 0.59021,0 0.25105,2.03328 -0.50074,3.00202 -0.2522,0.325 -0.61617,2.45526 -0.8088,4.73394 l -0.35019,4.14304 -3.33939,1.64671 -3.33937,1.64671 -0.35769,3.63017 c -0.35022,3.55397 -1.91913,6.76712 -2.98316,6.10951 -0.24988,-0.15451 -0.60842,0.20474 -0.79677,0.79819 -0.27855,0.87763 -0.53571,0.97556 -1.37808,0.52474 -0.5696,-0.30484 -1.03563,-0.38904 -1.03563,-0.18712 0,0.82747 -3.32465,-4.29448 -3.53287,-5.44272 -0.32767,-1.80703 -1.21488,-3.86751 -1.2589,-2.92374 -0.0227,0.48748 -0.4312,0.20656 -1.03814,-0.71398 -0.55035,-0.83474 -1.15154,-1.49779 -1.33598,-1.47347 -0.18449,0.0243 -0.45589,0.0202 -0.60323,-0.0101 -0.8335,-0.16666 -2.78916,-0.0524 -3.48271,0.20338 -0.81385,0.30026 -3.40812,0.91098 -4.15005,0.97698 -0.22235,0.0202 -0.75193,0.31684 -1.17687,0.66013 -0.62066,0.50145 -0.69055,0.46615 -0.35534,-0.17942 0.22948,-0.44203 -0.0763,-0.20089 -0.67972,0.5358 -1.09988,1.34307 -2.35933,5.75589 -1.86912,6.54903 0.14378,0.23258 0.26668,1.44615 0.2732,2.69679 0.008,1.47535 0.46326,2.97089 1.29721,4.25856 0.77726,1.20018 1.52449,3.52612 1.89038,5.88432 0.33278,2.1448 0.81186,4.44359 1.06463,5.10842 0.38683,1.01744 0.25206,1.26088 -0.85145,1.53783 -0.72105,0.18104 -2.34149,0.004 -3.60101,-0.39556 -1.9451,-0.6155 -2.31743,-0.96643 -2.47227,-2.33028 -0.10024,-0.88311 -0.42656,-1.75661 -0.72508,-1.94111 -0.36044,-0.22278 -0.33788,-0.7183 0.0672,-1.47521 0.497,-0.92864 0.46006,-1.13976 -0.19926,-1.13976 -0.63875,0 -0.7035,-0.27828 -0.30723,-1.32053 0.65125,-1.71293 -0.39183,-2.44729 -1.47506,-1.03848 -0.5519,0.71777 -0.85853,0.8203 -1.03607,0.34641 -0.13872,-0.3702 -0.4744,-0.53575 -0.746,-0.36789 -0.2716,0.16788 -0.64124,-0.079 -0.82141,-0.54843 -0.2021,-0.52646 -0.6931,-0.7376 -1.28135,-0.55091 -0.6316,0.20049 -1.81884,-0.44598 -3.51478,-1.9138 l -2.56099,-2.21655 -0.94614,2.33164 c -1.36849,3.37244 -1.25249,6.83388 0.35048,10.45847 0.74608,1.68701 1.23586,3.38165 1.08842,3.76589 -0.32533,0.84778 -4.7257,0.94944 -6.23076,0.14398 -0.57925,-0.31002 -1.03637,-1.11748 -1.03637,-1.83067 0,-0.70179 -0.26976,-1.36591 -0.599455,-1.47581 -0.43617,-0.1454 -0.41407,-1.02819 0.081,-3.24081 0.56291,-2.51537 0.55564,-3.19148 -0.0421,-3.91172 -0.66644,-0.80305 -0.7731,-0.80171 -1.37177,0.0162 -0.35704,0.48828 -0.85195,0.83931 -1.0998,0.78008 -0.77587,-0.1855 -1.86813,-2.08304 -1.52166,-2.64362 0.18185,-0.29416 -0.0227,-0.53486 -0.45461,-0.53486 -0.5166,0 -0.69102,-0.35998 -0.50996,-1.0524 0.15128,-0.57882 -0.0942,-1.42188 -0.54584,-1.87347 -0.51331,-0.5133 -0.74291,-1.47444 -0.61258,-2.56426 0.34475,-2.88253 0.53525,-3.52359 1.34635,-4.53044 1.28684,-1.59744 2.11556,-3.30253 2.11556,-4.35282 0,-0.97558 -1.97771,-2.23647 -3.50792,-2.23647 -0.42816,0 -0.77848,-0.22112 -0.77848,-0.49141 0,-0.63289 -4.750478,-1.65349 -7.661548,-1.646 -1.237931,0.004 -3.430339,0.36365 -4.872011,0.801 -1.441651,0.43736 -3.328597,0.8491 -4.193183,0.91497 -1.875018,0.14277 -2.352612,0.72218 -1.471035,1.78442 0.509711,0.61414 0.49102,0.97981 -0.08789,1.71789 -1.358036,1.73162 -1.799199,1.72828 -2.384608,-0.0182 -0.398737,-1.18945 -1.31154,-2.13022 -2.946911,-3.03711 -1.303096,-0.72263 -4.258735,-2.7118 -6.568111,-4.42035 -2.309376,-1.70858 -4.409745,-3.10651 -4.667517,-3.10651 -1.313464,0 -3.159645,10.68934 -3.179632,18.41015 -0.0081,3.1189 0.25036,4.16321 1.706308,6.89486 0.943706,1.77056 3.09699,4.622 4.785073,6.33649 5.231885,5.31376 5.41564,6.40041 1.082302,6.40041 -2.36377,0 -3.436149,-0.26305 -4.368393,-1.07161 z"
       id="path228" /></g></svg>
