<?xml version="1.0" encoding="UTF-8" standalone="no"?>
<!-- Created with Inkscape (http://www.inkscape.org/) -->

<svg
   width="6.2541666in"
   height="8.3546295in"
   viewBox="0 0 158.85583 212.20759"
   version="1.1"
   id="svg5"
   xml:space="preserve"
   inkscape:export-filename="Bison.svg"
   inkscape:export-xdpi="96"
   inkscape:export-ydpi="96"
   sodipodi:docname="Bobcat.svg"
   inkscape:version="1.1.2 (b8e25be833, 2022-02-05)"
   xmlns:inkscape="http://www.inkscape.org/namespaces/inkscape"
   xmlns:sodipodi="http://sodipodi.sourceforge.net/DTD/sodipodi-0.dtd"
   xmlns="http://www.w3.org/2000/svg"
   xmlns:svg="http://www.w3.org/2000/svg"><sodipodi:namedview
     id="namedview7"
     pagecolor="#ffffff"
     bordercolor="#000000"
     borderopacity="0.25"
     inkscape:showpageshadow="2"
     inkscape:pageopacity="0.0"
     inkscape:pagecheckerboard="0"
     inkscape:deskcolor="#d1d1d1"
     inkscape:document-units="mm"
     showgrid="false"
     inkscape:pageshadow="2"
     fit-margin-top="0"
     fit-margin-left="0"
     fit-margin-right="0"
     fit-margin-bottom="0"
     units="in"
     inkscape:zoom="0.68506594"
     inkscape:cx="301.43084"
     inkscape:cy="489.73388"
     inkscape:window-width="1920"
     inkscape:window-height="991"
     inkscape:window-x="-9"
     inkscape:window-y="-9"
     inkscape:window-maximized="1"
     inkscape:current-layer="layer1" /><defs
     id="defs2" /><g
     inkscape:label="Layer 1"
     inkscape:groupmode="layer"
     id="layer1"
     transform="translate(-25.247231,-18.841231)"><g
       inkscape:label="Layer 1"
       id="layer1-6"
       transform="matrix(2.5632101,0,0,2.5632101,-423.93886,-225.31797)"><path
         style="fill:#000000;fill-opacity:1;stroke-width:0.264583"
         d="m 205.37152,177.8 c -1.19815,-0.47989 -2.15388,-1.34828 -4.86838,-4.4235 -17.08989,-19.36092 -24.22054,-31.77015 -25.3915,-44.18802 -1.03907,-11.01909 4.44217,-22.13559 14.08189,-28.55949 8.98085,-5.98484 19.99018,-7.028397 29.96384,-2.84023 10.22519,4.29379 16.4749,13.58073 17.67275,26.26135 0.85087,9.00734 -2.41005,18.99499 -10.33035,31.64015 -3.92176,6.2613 -13.29293,18.55491 -15.82664,20.76226 -1.61127,1.40373 -3.78303,1.95572 -5.30161,1.34748 z"
         id="path37" /><path
         style="fill:#ffffff;fill-opacity:1;stroke-width:0.471153"
         d="m 198.90864,152.92917 c -9.51189,-2.619 -16.58825,-9.63695 -19.51043,-19.34938 -0.57786,-1.92067 -0.84607,-4.36863 -0.84952,-7.7539 -0.005,-5.6686 0.97021,-9.27307 3.77945,-13.95808 7.16448,-11.948316 22.72994,-16.64818 35.24637,-10.6424 7.36157,3.53232 12.94523,10.19173 14.87637,17.74238 4.62338,18.07724 -8.20546,34.76095 -26.61343,34.6104 -2.59134,-0.0212 -5.7093,-0.31324 -6.92881,-0.64902 z"
         id="path365" /></g><path
       style="fill:#000000;stroke-width:0.251049"
       d="m 135.95261,136.75195 c -1.58101,-0.49445 -2.53372,-1.29623 -3.71366,-3.12529 -0.58931,-0.91355 -1.73842,-2.45285 -2.55358,-3.42072 -0.81516,-0.96784 -1.80878,-2.3235 -2.20807,-3.01258 -0.39927,-0.68906 -1.7251,-2.75409 -2.94629,-4.58895 -1.22119,-1.83487 -2.22034,-3.40581 -2.22034,-3.49099 0,-0.0852 -0.26617,-0.50446 -0.5915,-0.93172 -0.32532,-0.42726 -0.66824,-1.01967 -0.76203,-1.31645 -0.24942,-0.78911 -2.55162,-4.5986 -3.35425,-5.55031 -2.13373,-2.53006 -2.92291,-2.93034 -5.88172,-2.98332 -1.19866,-0.0215 -2.28,-0.10117 -2.40297,-0.17722 -0.12298,-0.076 -0.52616,0.0188 -0.89597,0.21066 -0.58979,0.30598 -0.67238,0.30111 -0.67238,-0.0398 0,-0.27158 -0.13226,-0.3341 -0.43934,-0.20767 -0.92057,0.37898 -1.31801,0.42373 -1.31801,0.1484 0,-0.16509 -0.23779,-0.23287 -0.56486,-0.16099 -0.31067,0.0684 -1.58161,0.1737 -2.8243,0.23429 -1.24269,0.0606 -2.46853,0.1928 -2.724107,0.2938 -0.26352,0.10414 -0.537747,0.0655 -0.633467,-0.0894 -0.0929,-0.15021 -0.702779,-0.30076 -1.355426,-0.33453 -0.65265,-0.0338 -1.186632,-0.17213 -1.186632,-0.30742 0,-0.13528 -0.06214,-0.18383 -0.138088,-0.10793 -0.123858,0.12387 -1.093352,-0.057 -2.497907,-0.46618 -0.276143,-0.0805 -0.748933,-0.17021 -1.050619,-0.19952 -0.301697,-0.0293 -0.697093,-0.17075 -0.878678,-0.31434 -0.181574,-0.14358 -0.832909,-0.33793 -1.447405,-0.43187 -0.614496,-0.0939 -1.265867,-0.29415 -1.4475,-0.44489 -0.420421,-0.34891 -5.807232,-0.44592 -5.920335,-0.10663 -0.04519,0.13558 -0.611413,0.26438 -1.258252,0.28622 -0.646852,0.0219 -1.600003,0.21937 -2.118109,0.43897 -0.518117,0.21957 -2.128225,0.75651 -3.578037,1.19317 -2.346413,0.7067 -2.732546,0.90701 -3.514679,1.82327 -1.253888,1.46892 -4.581775,4.7626 -6.983671,6.91187 -1.131356,1.01236 -2.342736,2.32822 -2.691946,2.9241 -0.772076,1.31744 -1.040671,3.24148 -0.627342,4.49386 0.338264,1.02496 2.949392,5.10689 3.617889,5.65581 0.236856,0.19448 1.497303,0.55554 2.800994,0.80236 2.874136,0.54417 4.043885,1.06752 4.665924,2.08757 0.895189,1.46804 0.503008,2.73588 -0.973088,3.14583 -1.25811,0.3494 -6.903031,0.33441 -8.68297,-0.023 -1.235528,-0.24814 -1.487565,-0.23121 -1.882784,0.12646 -0.920818,0.83333 -2.732675,1.2395 -4.900041,1.09845 -2.837309,-0.18466 -4.585533,-0.89579 -6.049354,-2.46072 -1.479689,-1.58192 -2.007923,-2.74801 -3.889034,-8.58531 -1.253235,-3.88891 -1.517844,-5.01129 -1.517844,-6.43805 0,-2.28076 0.73768,-4.59624 2.098597,-6.58726 1.385623,-2.02717 1.705633,-2.6665 2.509615,-5.01386 0.594344,-1.73528 0.666896,-2.37387 0.784339,-6.90383 l 0.12941,-4.991677 -1.059327,1.25524 c -2.879687,3.412247 -4.236074,4.514947 -7.513958,6.108497 -4.256007,2.0691 -7.994824,2.68144 -7.994824,1.30939 0,-0.58659 1.801846,-2.46521 4.073068,-4.24662 1.257731,-0.98649 1.981144,-1.815533 2.837528,-3.251848 0.632182,-1.060299 1.934557,-2.831581 2.894167,-3.936192 2.065065,-2.377107 3.164742,-4.377167 4.64308,-8.44462 0.599967,-1.650754 1.433361,-3.467118 1.852004,-4.036366 0.913739,-1.242489 4.820955,-4.576342 6.693384,-5.71115 1.862773,-1.128959 3.787009,-1.870079 7.548103,-2.907179 5.231662,-1.44259 7.427825,-1.687998 13.768771,-1.538589 6.99584,0.164849 10.197483,0.620556 26.360081,3.751961 2.00405,0.388268 3.76007,0.538363 6.40175,0.547199 3.52518,0.01186 3.71161,-0.01435 5.89965,-0.827844 4.21375,-1.566603 4.83744,-1.665307 8.25859,-1.306976 4.32266,0.452741 4.44245,0.406177 7.86898,-3.058383 3.61573,-3.655855 3.75419,-3.847446 4.21421,-5.83097 0.58646,-2.528801 1.55646,-5.434377 2.11944,-6.348775 0.38314,-0.622257 0.67795,-0.815909 1.24212,-0.815909 0.88442,0 1.24293,0.454732 2.86985,3.640208 0.63467,1.242692 1.32321,2.474226 1.53008,2.736745 0.41126,0.521885 3.00693,1.129638 4.89144,1.145282 1.22156,0.0102 1.49334,-0.226635 6.74125,-5.873242 1.31074,-1.410325 2.1666,-2.148572 2.31678,-1.998394 0.15018,0.150177 -0.0837,1.580283 -0.63329,3.871224 -0.55724,2.323069 -0.87343,4.266722 -0.87691,5.390409 -0.004,0.966538 -0.17855,2.254367 -0.39009,2.861846 -0.42325,1.215434 -0.33138,1.988485 0.44929,3.780938 0.81781,1.87767 0.66763,3.452316 -0.53887,5.650624 -0.76763,1.398659 -1.02477,2.148757 -1.02477,2.989221 0,1.415618 -1.05284,2.889306 -3.02115,4.228827 -1.81499,1.235184 -2.73736,1.406997 -3.89301,0.725155 -1.2801,-0.755281 -1.98418,-0.680843 -2.71107,0.286623 -1.19615,1.592056 -2.45012,4.513232 -3.29004,7.664289 -0.46819,1.756468 -1.43963,4.605721 -2.15878,6.331688 -0.71913,1.725958 -1.60252,3.952238 -1.96306,4.947298 l -0.65556,1.80918 0.69506,6.852 c 1.1084,10.92649 1.78916,14.1467 3.42931,16.22165 l 0.98283,1.24336 1.83662,0.0935 c 1.33471,0.0679 2.01949,0.23005 2.50581,0.59314 1.30376,0.97335 1.81359,2.51675 1.20622,3.65162 -0.50551,0.94457 -1.58256,1.2265 -5.68511,1.48821 -5.06124,0.32288 -6.73154,0.30103 -8.02983,-0.10496 z m -77.408291,-5.8026 c 0,-0.54413 -3.501869,-6.64065 -3.814431,-6.64065 -0.55141,0 1.104682,5.25488 1.8776,5.95771 0.724278,0.65861 1.936831,1.08617 1.936831,0.68294 z"
       id="path470" /></g></svg>
