<?xml version="1.0" encoding="UTF-8" standalone="no"?>
<!-- Created with Inkscape (http://www.inkscape.org/) -->

<svg
   width="5in"
   height="2.0574429in"
   viewBox="0 0 126.99999 52.259046"
   version="1.1"
   id="svg5"
   xml:space="preserve"
   inkscape:export-filename="Bison.svg"
   inkscape:export-xdpi="96"
   inkscape:export-ydpi="96"
   sodipodi:docname="cougar_logo.svg"
   inkscape:version="1.1.2 (b8e25be833, 2022-02-05)"
   xmlns:inkscape="http://www.inkscape.org/namespaces/inkscape"
   xmlns:sodipodi="http://sodipodi.sourceforge.net/DTD/sodipodi-0.dtd"
   xmlns="http://www.w3.org/2000/svg"
   xmlns:svg="http://www.w3.org/2000/svg"><sodipodi:namedview
     id="namedview7"
     pagecolor="#ffffff"
     bordercolor="#000000"
     borderopacity="0.25"
     inkscape:showpageshadow="2"
     inkscape:pageopacity="0.0"
     inkscape:pagecheckerboard="0"
     inkscape:deskcolor="#d1d1d1"
     inkscape:document-units="mm"
     showgrid="false"
     inkscape:pageshadow="2"
     fit-margin-top="0"
     fit-margin-left="0"
     fit-margin-right="0"
     fit-margin-bottom="0"
     units="in"
     inkscape:zoom="0.68506594"
     inkscape:cx="489.73388"
     inkscape:cy="478.05617"
     inkscape:window-width="1920"
     inkscape:window-height="991"
     inkscape:window-x="-9"
     inkscape:window-y="-9"
     inkscape:window-maximized="1"
     inkscape:current-layer="layer1" /><defs
     id="defs2" /><g
     inkscape:label="Layer 1"
     inkscape:groupmode="layer"
     id="layer1"
     transform="translate(44.377995,-16.605954)"><path
       style="fill:#000000;stroke-width:0.564474"
       d="m 65.095658,68.519084 c -3.52213,-0.72763 -5.73601,-2.66491 -10.16187,-8.89221 -5.29976,-7.45694 -8.00197,-10.40172 -11.00834,-11.9966 l -2.54395,-1.349557 -5.03383,1.250157 c -6.77086,1.68152 -11.7232,1.61859 -16.76991,-0.21313 -6.582316,-2.389101 -6.478993,-2.397997 -10.81318,0.93191 -2.124745,1.63243 -5.768292,3.8611 -8.096738,4.95261 -2.328468,1.09152 -4.327894,2.05584 -4.443186,2.14295 -0.115206,0.087 -0.03051,1.83156 0.188597,3.8766 0.393728,3.67668 0.422935,3.72812 2.613774,4.60473 1.509437,0.60396 2.328255,1.33541 2.5691,2.29493 0.44892,1.78866 -0.469124,2.39627 -3.637552,2.40755 -3.083794,0.0107 -5.422332,-1.19323 -6.2346,-3.21047 -0.894278,-2.2209 -2.184247,-8.29027 -2.626617,-12.35833 -0.373951,-3.43905 -0.372671,-3.44298 2.017709,-6.20486 2.402584,-2.775956 5.600197,-8.750275 5.601029,-10.464779 7.9e-4,-1.667141 -1.549396,-2.42123 -3.813732,-1.855162 -1.749513,0.437357 -2.370326,1.058852 -4.073864,4.078429 -6.701334,11.878342 -17.361518,17.510902 -27.463464,14.510952 -3.350347,-0.99495 -5.219333,-2.80201 -5.651314,-5.46412 -0.254158,-1.56617 -0.0192,-2.299223 1.201473,-3.750032 1.321629,-1.570667 1.869819,-1.803319 4.249276,-1.803319 4.267965,0 6.034994,2.732713 2.807512,4.341803 -2.699432,1.345798 -1.701553,2.155918 2.545141,2.066208 4.947426,-0.10454 8.36583,-1.5247 12.118055,-5.034454 3.414351,-3.193731 5.555779,-6.50318 7.914776,-12.231789 4.638247,-11.263502 14.76829,-14.353931 32.775155,-9.998943 7.52935,1.820984 7.58367,1.825443 15.476,1.26729 4.35608,-0.30807 9.29199,-0.444504 10.96868,-0.303206 1.6767,0.141235 7.08956,-0.312849 12.0286,-1.009185 8.3205,-1.173098 9.0988,-1.384822 10.59657,-2.882589 0.88907,-0.889093 1.84148,-1.616514 2.11651,-1.616514 1.16966,0 2.53347,1.604204 2.90275,3.414436 0.29919,1.466597 1.12142,2.488647 3.32664,4.135136 2.7325,2.040154 3.02835,2.505096 4.40519,6.922829 l 1.47596,4.735788 -1.32269,1.102161 c -0.72751,0.606177 -1.78393,1.11061 -2.34765,1.120936 -0.56372,0.01067 -1.52202,0.284815 -2.12957,0.609953 -0.89619,0.479621 -1.75653,0.18881 -4.55977,-1.541481 -3.00217,-1.853029 -3.87303,-2.123017 -6.64261,-2.059354 -5.60041,0.128647 -9.63331,2.462469 -9.63331,5.574531 0,2.299133 3.9919,14.028235 6.42738,18.885185 l 1.83984,3.66909 3.53526,0.39445 c 3.78875,0.42272 5.13178,1.13201 5.13178,2.71016 0,2.19105 -3.37856,3.15793 -7.82498,2.23936 z"
       id="path400" /></g></svg>
