<?xml version="1.0" encoding="UTF-8" standalone="no"?>
<!-- Created with Inkscape (http://www.inkscape.org/) -->

<svg
   width="4.4587235in"
   height="4.2878475in"
   viewBox="0 0 113.25157 108.91132"
   version="1.1"
   id="svg5"
   xml:space="preserve"
   inkscape:export-filename="Bison.svg"
   inkscape:export-xdpi="96"
   inkscape:export-ydpi="96"
   sodipodi:docname="elk_logo.svg"
   inkscape:version="1.1.2 (b8e25be833, 2022-02-05)"
   xmlns:inkscape="http://www.inkscape.org/namespaces/inkscape"
   xmlns:sodipodi="http://sodipodi.sourceforge.net/DTD/sodipodi-0.dtd"
   xmlns="http://www.w3.org/2000/svg"
   xmlns:svg="http://www.w3.org/2000/svg"><sodipodi:namedview
     id="namedview7"
     pagecolor="#ffffff"
     bordercolor="#000000"
     borderopacity="0.25"
     inkscape:showpageshadow="2"
     inkscape:pageopacity="0.0"
     inkscape:pagecheckerboard="0"
     inkscape:deskcolor="#d1d1d1"
     inkscape:document-units="mm"
     showgrid="false"
     inkscape:pageshadow="2"
     fit-margin-top="0"
     fit-margin-left="0"
     fit-margin-right="0"
     fit-margin-bottom="0"
     units="in"
     inkscape:zoom="0.68506594"
     inkscape:cx="-62.037824"
     inkscape:cy="305.80998"
     inkscape:window-width="1920"
     inkscape:window-height="991"
     inkscape:window-x="-9"
     inkscape:window-y="-9"
     inkscape:window-maximized="1"
     inkscape:current-layer="layer1" /><defs
     id="defs2" /><g
     inkscape:label="Layer 1"
     inkscape:groupmode="layer"
     id="layer1"
     transform="translate(-101.7722,-62.326916)"><path
       style="fill:#000000;stroke-width:0.743259"
       d="m 189.75333,90.427245 c -0.25254,-0.40879 -0.125,-0.743249 0.2839,-0.743249 0.40879,0 0.94997,0.334459 1.20262,0.743249 0.25256,0.408791 0.12502,0.743279 -0.28388,0.743279 -0.40882,0 -0.94998,-0.334488 -1.20264,-0.743279 z"
       id="path3426" /><path
       style="fill:#000000;stroke-width:0.743259"
       d="m 109.32036,170.92539 c 1.15769,-0.30105 1.0278,-0.68395 -1.0254,-3.02239 -2.31411,-2.63564 -2.34512,-2.77203 -1.97577,-8.69238 0.51427,-8.24282 2.43381,-12.37963 8.49108,-18.29922 l 4.88478,-4.77371 -0.47581,5.48636 -0.47578,5.48639 4.37196,6.40579 c 2.4046,3.52315 4.96755,7.57639 5.69542,9.00718 1.85007,3.63644 6.24589,7.36407 8.72847,7.40166 1.12417,0.0168 2.04398,-0.20731 2.04398,-0.49837 0,-0.29111 -1.29402,-1.87984 -2.87558,-3.53051 -3.77623,-3.94113 -9.42123,-12.35844 -10.51914,-15.68515 -0.73348,-2.22242 -0.6113,-3.69526 0.77022,-9.28642 1.23932,-5.01561 1.9426,-6.64509 2.86805,-6.64509 0.67437,0 4.37489,-0.79595 8.22337,-1.7688 5.14402,-1.30031 7.60109,-1.59561 9.27724,-1.11487 1.25401,0.35962 3.17436,0.65389 4.26741,0.65389 1.70176,0 2.16522,0.5074 3.22471,3.53048 0.68049,1.94176 2.00373,5.58949 2.9405,8.10603 1.58356,4.25401 1.62342,4.7404 0.56718,6.92132 -0.62485,1.29017 -3.42554,4.38049 -6.22373,6.86736 -3.49711,3.10806 -5.08764,5.05499 -5.08764,6.22771 0,0.93832 0.31072,1.8981 0.69053,2.13284 0.74064,0.45775 5.67631,-4.54654 11.84814,-12.01284 l 3.81305,-4.6128 0.0587,-6.90772 c 0.0323,-3.79923 0.17219,-6.57324 0.3112,-6.16444 2.82832,8.3255 5.56538,18.97322 5.92277,23.04103 0.50286,5.72341 1.98052,7.75602 5.66147,7.7877 2.90723,0.0254 3.05704,-0.69987 0.5761,-2.78745 -3.10748,-2.61477 -3.70889,-4.55706 -4.19488,-13.54774 -0.81053,-14.99473 -0.81692,-14.95102 2.68237,-18.45029 1.70729,-1.70734 3.10419,-3.43191 3.10419,-3.83239 0,-1.20098 5.70275,-3.7314 8.40935,-3.7314 2.42542,0 3.0926,-0.41912 8.53282,-5.36004 0.93794,-0.85185 2.57971,-3.08814 3.64843,-4.96952 1.06869,-1.88137 2.33515,-3.75516 2.8144,-4.16395 0.47921,-0.40879 2.3223,-2.9173 4.09574,-5.57444 3.82275,-5.727589 6.63248,-8.919116 7.85217,-8.919116 1.93094,0 2.66955,-2.011002 1.85275,-5.044401 l -0.78844,-2.928084 -3.52922,0.58709 c -1.94108,0.322913 -5.45765,0.723191 -7.81463,0.889495 -6.05146,0.427022 -6.69064,-0.651812 -3.03163,-5.117131 2.43586,-2.972637 2.85748,-4.015148 2.85748,-7.065318 0,-2.783609 -0.38882,-3.954106 -1.75084,-5.271158 l -1.75085,-1.692975 1.19339,2.378695 c 0.65637,1.308259 1.16613,2.980614 1.13278,3.716281 -0.0403,0.884158 -0.40008,0.564474 -1.06198,-0.94304 -0.55074,-1.25435 -1.52689,-2.716862 -2.1693,-3.249986 -1.05923,-0.879074 -1.06414,-0.720862 -0.0528,1.699352 1.639,3.922726 1.42405,5.015943 -1.8989,9.656386 -3.49684,4.883294 -5.10349,5.568564 -2.8302,1.207156 1.51465,-2.905918 1.52429,-3.107364 0.30118,-6.310016 -0.69492,-1.819557 -1.59919,-3.515762 -2.00955,-3.769374 -0.41036,-0.253669 -0.21686,0.56248 0.43017,1.813544 1.56358,3.02368 1.4792,5.187192 -0.31729,8.133703 -2.91916,4.787896 -5.8846,3.70541 -3.87366,-1.413995 0.95503,-2.431283 0.989,-3.398565 0.21041,-5.996908 -1.01414,-3.384855 -2.99953,-6.817549 -3.59737,-6.219701 -0.20732,0.207316 -0.0432,0.803029 0.36446,1.323905 3.68027,4.701457 1.90097,13.63878 -2.38766,11.993083 -0.75859,-0.291085 -1.11487,-1.478916 -1.11487,-3.716842 0,-3.477305 -1.48434,-7.895654 -2.95859,-8.806781 -0.52526,-0.324627 -0.40593,0.373536 0.29578,1.730478 0.64694,1.251093 1.17628,3.872415 1.17628,5.825182 v 3.550512 l -1.83427,-1.841243 c -1.22348,-1.228169 -2.1795,-3.494047 -2.87106,-6.804797 -0.93397,-4.471105 -4.61567,-12.348969 -5.40323,-11.561406 -0.17332,0.173327 0.31607,1.788294 1.08753,3.588835 1.48594,3.468177 3.49963,14.617301 2.77161,15.345354 -0.81005,0.810053 -3.32323,-2.184497 -4.42417,-5.271606 -4.43768,-12.443397 -5.2077,-13.162848 -3.05764,-2.856844 0.62302,2.986346 0.93748,5.745682 0.69881,6.131888 -0.86894,1.405962 -1.79478,0.630828 -3.29353,-2.757342 -1.87571,-4.240305 -2.69203,-3.910535 -1.14858,0.464018 2.03142,5.757678 1.05556,6.002385 -3.79432,0.951551 l -3.39006,-3.530483 2.66708,4.078018 c 1.46687,2.242899 2.66707,4.481472 2.66707,4.974622 0,0.49315 -1.9232,2.987132 -4.27375,5.542158 l -4.27377,4.645498 3.34469,-2.286834 c 1.83957,-1.257778 4.01282,-3.02896 4.82946,-3.935986 1.34339,-1.49212 4.88767,-3.726732 5.91091,-3.726732 0.22474,0 0.40854,0.596922 0.40854,1.32652 0,0.729569 -2.42488,3.790106 -5.38865,6.801173 -5.80739,5.90013 -4.14618,5.877432 2.15932,-0.0295 2.10738,-1.974174 5.30601,-4.305758 7.10806,-5.181264 l 3.27646,-1.591817 4.57706,2.310488 c 2.51739,1.270784 5.59004,2.310514 6.82807,2.310514 1.5143,0 2.25095,0.368143 2.25095,1.124961 0,0.618748 0.41809,1.809752 0.92907,2.64669 0.7918,1.296826 0.71282,1.682019 -0.53446,2.606516 -3.52066,2.609608 -11.62806,3.483767 -18.9761,2.046061 -6.43236,-1.258537 -10.60678,-0.903907 -15.49001,1.315956 -2.4165,1.098527 -5.93406,1.757357 -11.63898,2.179977 -20.02987,1.48377 -20.68708,1.58179 -25.27086,3.76847 -7.61055,3.63063 -11.28711,6.29468 -11.70517,8.48161 -0.52788,2.76134 0.16096,4.985 1.39722,4.51057 0.66803,-0.25646 1.02793,0.17586 1.04842,1.25868 0.0168,0.90694 0.63711,4.1575 1.37767,7.22343 1.55729,6.44738 1.19943,8.57606 -2.14048,12.73214 -1.45681,1.81279 -2.24955,3.65002 -2.26461,5.24835 -0.014,1.35253 -0.49304,6.40977 -1.06732,11.23826 l -1.04411,8.77911 2.32529,3.29887 c 2.30299,3.26731 2.64829,3.4512 5.22286,2.78175 z"
       id="path314" /></g></svg>
