<?xml version="1.0" encoding="UTF-8" standalone="no"?>
<!-- Created with Inkscape (http://www.inkscape.org/) -->

<svg
   width="249.99998"
   height="250.00002"
   viewBox="0 0 66.145828 66.145837"
   version="1.1"
   id="svg5"
   xml:space="preserve"
   xmlns:inkscape="http://www.inkscape.org/namespaces/inkscape"
   xmlns:sodipodi="http://sodipodi.sourceforge.net/DTD/sodipodi-0.dtd"
   xmlns="http://www.w3.org/2000/svg"
   xmlns:svg="http://www.w3.org/2000/svg"><sodipodi:namedview
     id="namedview7"
     pagecolor="#ffffff"
     bordercolor="#000000"
     borderopacity="0.25"
     inkscape:showpageshadow="2"
     inkscape:pageopacity="0.0"
     inkscape:pagecheckerboard="0"
     inkscape:deskcolor="#d1d1d1"
     inkscape:document-units="px"
     showgrid="false" /><defs
     id="defs2"><inkscape:path-effect
       effect="bend_path"
       id="path-effect309"
       is_visible="true"
       lpeversion="1"
       bendpath="m 22.962929,22.622272 c 8.24853,-5.22985 16.497059,-6.693529 24.745589,0"
       prop_scale="1"
       scale_y_rel="false"
       vertical="false"
       hide_knot="false"
       bendpath-nodetypes="cc" /><inkscape:path-effect
       effect="bend_path"
       id="path-effect307"
       is_visible="true"
       lpeversion="1"
       bendpath="m 22.619042,41.93896 c 10.395846,11.470389 18.577351,7.698019 25.954024,0"
       prop_scale="1.09"
       scale_y_rel="false"
       vertical="false"
       hide_knot="false"
       bendpath-nodetypes="cc" /></defs><g
     inkscape:label="Layer 1"
     inkscape:groupmode="layer"
     id="layer1"><g
       id="g329"
       transform="translate(-0.62697272,-0.00693746)"><path
         style="fill:#000000;stroke-width:0.132816"
         d="m 30.556359,26.925814 c -0.328512,-0.162016 -0.622202,-0.327023 -0.638334,-0.375812 -0.06568,-0.198645 -0.432662,-0.535147 -0.489082,-0.437351 -0.03207,0.0556 -0.229386,-0.148869 -0.441619,-0.452929 -0.128628,-0.18428 -0.258047,-0.368141 -0.388242,-0.551583 0.03285,0.389222 0.0708,0.777152 0.113408,1.163644 0.133839,1.213962 0.05234,2.012257 -0.288399,2.20167 -0.286654,0.159348 -0.970369,0.0087 -1.512034,-0.331344 -0.927735,-0.582327 -2.001505,-1.997783 -4.000094,-5.678242 -0.122232,-0.225089 0.136739,-0.308022 0.358542,-0.112605 0.320664,0.282523 0.37621,-0.03791 0.0777,-0.526688 -0.203886,-0.333836 -0.219178,-0.459461 -0.05821,-0.497152 0.161475,-0.03782 0.150171,-0.127398 -0.05172,-0.368189 -0.158861,-0.18947 -0.240591,-0.4562 -0.198791,-0.661204 0.0651,-0.319272 0.108426,-0.282585 0.539917,0.444207 0.257425,0.433588 0.522673,0.798389 0.589456,0.810825 0.155867,0.02902 0.297112,-0.959079 0.317361,-1.925786 0.01482,-0.707709 0.03695,-0.70159 0.152974,-0.309286 0.06652,0.224918 0.214304,1.194709 0.33684,2.058192 0.1258,0.886482 0.331806,1.737269 0.434418,1.911851 -7e-6,-1.2e-5 0.18442,0.313713 0.184412,0.313701 0.02563,-0.138932 0.05204,-0.27802 0.07927,-0.417246 0.128631,-0.657747 0.222609,-0.241649 0.272575,0.762502 0.03491,0.701534 0.148001,1.074873 0.451241,1.592201 0.473281,0.807416 1.269922,1.585482 1.702713,1.698408 0.31172,0.08134 0.321893,0.07078 0.418968,-0.356555 0.12154,-0.535053 -0.140744,-1.648191 -0.753309,-3.302385 -0.258058,-0.69688 -0.490023,-1.502158 -0.529892,-1.834134 -0.02337,-0.194592 -0.0456,-0.38947 -0.06667,-0.584624 0.07019,0.133886 0.140312,0.267806 0.210354,0.401761 0.164503,0.314628 0.220022,0.349076 0.259088,0.16333 0.03718,-0.176815 0.110103,-0.07301 0.272198,0.372491 0.226403,0.622253 0.494692,1.042127 1.900308,3.610862 0.153978,0.281395 0.301822,0.501235 0.32969,0.488115 0.02787,-0.01312 0.187486,0.036 0.351453,0.111589 0.280927,0.129508 0.292685,0.130073 0.239484,-0.09146 -0.03054,-0.127178 -0.108229,-0.246887 -0.174243,-0.265719 -0.105224,-0.03008 -0.403903,-0.643263 -0.398158,-0.829579 0.0025,-0.08068 -0.185027,-0.658365 -0.377734,-1.16303 -0.07389,-0.193578 -0.08711,-0.333084 -0.02892,-0.308833 0.09772,0.04073 0.171208,0.150858 0.614862,0.988992 0.105969,0.200191 0.115065,0.400546 0.02976,0.561687 -0.126298,0.238579 -0.104395,0.252841 0.311335,0.370818 0.145809,0.04138 0.289793,0.08442 0.431849,0.129151 -4.3e-5,-0.117763 5.49e-4,-0.235583 0.0018,-0.353454 0.002,-0.194486 0.05147,-0.342698 0.10705,-0.328811 0.173736,0.04341 0.251804,-1.151726 0.212275,-2.260907 -0.03016,-0.846316 -0.05977,-1.065405 -0.20463,-1.067212 -0.386823,-0.0048 -0.954313,-0.378119 -1.080977,-0.739544 -0.201668,-0.575443 -0.07492,-1.339036 0.242831,-1.440094 0.148837,-0.04734 0.276911,-0.161654 0.283485,-0.255373 0.02683,-0.382371 0.57272,0.378319 0.849541,1.150967 0.161916,0.451875 0.315073,0.815858 0.343787,0.808013 0.02813,-0.0077 0.192562,-0.141386 0.367928,-0.292103 0.2132,-0.183233 0.322918,-0.41417 0.325586,-0.700357 0.0057,-0.609664 0.197891,-1.140976 0.467053,-1.290134 0.366731,-0.203226 0.471175,0.08344 0.407406,0.875353 -0.06764,0.840093 -0.0098,0.902409 0.259675,0.611627 0.174574,-0.188342 0.188421,-0.176576 0.142157,0.02965 -0.100198,0.446607 -0.173992,1.625119 -0.149709,2.282798 0.02251,0.609696 0.21073,1.080999 0.344175,0.942794 0.05811,-0.06018 0.09114,0.06836 0.09428,0.34105 0.0066,0.571398 0.264348,1.101385 0.497888,1.074187 0.09924,-0.01156 0.288764,-0.271605 0.443509,-0.585424 0.453785,-0.920272 0.529259,-1.020415 0.358089,-1.879475 -0.200873,-1.008131 -0.369958,-3.533869 -0.187771,-3.987577 0.03202,-0.07973 0.05932,-0.172701 0.07903,-0.264055 0.02908,-0.135193 0.04197,-0.267552 0.02864,-0.35157 -0.02691,-0.169279 0.0028,-0.206967 0.09014,-0.105157 0.07797,0.09079 0.186943,-0.318403 0.295281,-1.01924 0.180847,-1.169884 0.202586,-1.472689 -0.54522,-1.480714 0,0 0,0 0,0 -0.158228,0.0022 -0.351833,0.02028 -0.581537,0.04989 -0.302007,0.03894 -0.601647,0.0838 -0.898918,0.134336 0.101975,-0.166276 0.206848,-0.332047 0.314688,-0.497286 0.177936,-0.272642 0.347072,-0.512341 0.364981,-0.534633 0.01666,-0.02073 0.368968,0.170342 0.783193,0.451114 0,0 0,10e-7 0,10e-7 0.03193,0.02196 0.06414,0.0444 0.09659,0.06731 0.281212,0.19859 0.552173,0.402462 0.813147,0.611187 0.06594,-0.138935 0.133373,-0.277435 0.202298,-0.415489 0.458328,-0.918074 1.658569,-2.25769 2.241701,-2.507492 0.639737,-0.274039 1.59257,-0.247037 2.223795,0.06321 0.663836,0.326272 0.717437,1.110987 0.245832,2.427449 -0.624723,1.743868 -2.574724,4.394529 -3.822919,6.238135 -0.689844,1.018906 -0.679456,1.221564 -0.635534,1.711993 0.104277,1.164394 0.329687,1.933976 0.653845,1.979765 0.235624,0.03328 0.808925,-0.254884 1.068092,-0.5521 0.130748,-0.149939 0.351239,-0.530038 0.469058,-0.816847 0.197051,-0.479704 0.207447,-0.527385 0.01194,-0.411974 -0.1856,0.109555 -0.19228,0.06588 -0.05728,-0.497193 0.269828,-1.125451 1.176828,-2.280199 2.180358,-2.472671 0.250849,-0.04811 0.51317,-0.197495 0.589712,-0.345917 0.07685,-0.148986 0.232325,-0.3964 0.354763,-0.561537 0.195545,-0.263734 0.187569,-0.310673 -0.143036,-0.430155 -0.43084,-0.155707 -0.452395,-0.218635 0.116023,-0.485039 0.36063,-0.169007 0.595791,-0.167956 1.393752,0.139021 1.194065,0.459359 1.545062,1.052896 1.22221,1.644478 -0.112194,0.20558 -0.155737,0.479703 -0.09925,0.605369 0.08723,0.194045 0.211599,0.06336 0.824407,-0.808296 0.39907,-0.567625 0.982104,-1.532817 1.278632,-2.142758 0.51715,-1.063817 0.541907,-1.111718 0.567401,-0.6111 0.01408,0.276197 0.06227,0.526879 0.111675,0.55704 0.04999,0.03052 0.506161,-0.355248 1.028555,-0.845183 0.533382,-0.500256 1.225541,-1.001298 1.586825,-1.155077 0.683603,-0.290979 1.846712,-0.440123 2.063896,-0.2735 0.06657,0.05107 -0.319877,0.302546 -0.846937,0.574836 -0.79982,0.413184 -0.948988,0.581899 -0.963206,0.912686 -0.01789,0.416229 0.08654,0.480335 0.915254,0.831318 0.361342,0.153033 0.337339,0.149019 -0.162435,0.222953 -0.870612,0.128234 -2.428705,0.706573 -2.394689,0.814401 0.01763,0.05594 0.223143,0.133806 0.456279,0.177379 0.239912,0.04483 0.55304,0.134908 0.723217,0.206177 0.27417,0.114815 0.231511,0.13139 -0.227418,0.203887 -1.359468,0.214773 -2.978975,1.482623 -4.079505,2.985564 -0.325873,0.444965 -0.627817,0.78597 -0.673323,0.756473 -0.04553,-0.02952 -0.04746,-0.11719 -0.0043,-0.195181 0.233328,-0.421549 -0.632503,0.513944 -1.146136,1.215372 -0.735231,1.004061 -0.91134,1.54257 -0.576211,1.686775 0.335964,0.14457 0.867139,-0.138561 1.536215,-0.798731 0.581936,-0.574191 0.927735,-0.723464 0.962411,-0.440863 0.02308,0.188135 -0.928968,1.039299 -1.666094,1.566832 -0.672822,0.481501 -1.614218,0.887165 -1.835046,0.747073 -0.07143,-0.04531 -0.142713,-0.204096 -0.15962,-0.352542 -0.02273,-0.199592 -0.07155,-0.24615 -0.174948,-0.17624 -0.174504,0.117975 -0.0862,-0.418608 0.171143,-1.079891 0.103339,-0.26543 0.157195,-0.495744 0.122305,-0.510439 -0.03487,-0.01465 -0.467178,0.195543 -0.927466,0.494236 -0.896443,0.581722 -1.543953,0.864987 -1.937275,0.717886 -0.307791,-0.115173 -0.377083,-0.250943 -0.28621,-0.615214 0.05718,-0.229078 0.08798,-0.255844 0.147448,-0.113886 0.04396,0.10491 0.106912,0.137593 0.158587,0.07983 0.04767,-0.05334 0.04984,-0.18935 0.0015,-0.30286 -0.07231,-0.169943 -0.113938,-0.179655 -0.222779,-0.05468 -0.07267,0.08344 -0.135027,0.241091 -0.141533,0.35007 -0.0071,0.119477 -0.03527,0.07978 -0.07018,-0.08092 -0.03303,-0.15211 -0.04367,-0.352128 -0.02015,-0.440312 0.05678,-0.212867 0.01332,-0.241325 -0.41745,0.116358 -0.502955,0.417587 -0.912125,0.511039 -1.30901,0.278161 -0.27592,-0.1619 -0.718443,-0.738311 -0.893517,-1.177822 -0.05134,-0.128868 -0.10201,-0.147064 -0.228714,0.08226 0,0 0,0 0,0 -0.07229,0.109286 -0.174202,0.292479 -0.299096,0.550401 -0.241521,0.498769 -0.471842,0.908937 -0.590577,0.97029 -0.525203,0.271385 -1.273398,-0.58671 -1.875394,-2.320309 -0.199501,-0.574506 -0.210443,-0.649171 -0.02716,-0.4887 0.175658,0.153799 0.170036,0.03698 -0.04881,-0.927642 -0.08385,-0.369621 -0.167575,-0.739268 -0.251179,-1.10894 -0.108019,0.06819 -0.215165,0.137515 -0.321467,0.207934 -0.207785,0.137649 -0.310735,0.335778 -0.297701,0.562291 0.0051,0.08782 0.0345,1.504587 0.04081,1.869888 0.0027,0.154328 0.02538,0.146271 0.123364,-0.02193 0.327435,-0.562102 0.09475,0.582063 -0.194155,1.875352 -0.197826,0.88558 -0.423659,1.510633 -0.661034,1.61717 -0.03742,0.01679 -0.3256,-0.110255 -0.654413,-0.272429 -1.05e-4,4.5e-5 -2.1e-4,9e-5 -3.15e-4,1.35e-4 z m -0.163051,-0.403707 c -0.01143,-0.02555 -0.106356,-0.04462 -0.212206,-0.04128 -0.11089,0.0035 -0.142515,0.04364 -0.07589,0.09263 0.113412,0.08339 0.330101,0.04255 0.288101,-0.05135 z m 8.861214,-1.197512 c 0.0665,-0.207476 0.06961,-0.32323 0.0055,-0.256428 -0.10269,0.106927 -0.220348,0.595992 -0.153519,0.620768 0.01499,0.0056 0.08179,-0.15832 0.148038,-0.364348 7e-6,2e-6 1.4e-5,5e-6 2.1e-5,8e-6 z m -8.2332,0.649678 c -0.07001,-0.13718 -0.200844,-0.05002 -0.180845,0.124048 0.01019,0.08877 0.06487,0.11509 0.120947,0.05986 0.05616,-0.05532 0.08331,-0.138022 0.0599,-0.183903 z m -3.157812,1.329022 c -0.03533,-0.06186 -0.113009,-0.0853 -0.172688,-0.05183 -0.05968,0.03346 -0.07929,0.111408 -0.0435,0.172969 0.03579,0.06156 0.113597,0.0846 0.172821,0.05144 0.05923,-0.03316 0.0787,-0.110711 0.04337,-0.172572 z m 12.686779,-2.358834 c 0.285093,-0.138688 0.493971,-0.173833 0.455925,-0.09333 -0.06629,0.140259 0.429383,-0.123539 0.621872,-0.407358 0.06803,-0.100313 0.191253,-0.156066 0.274606,-0.122864 0.09192,0.03655 0.21056,0.08644 0.303794,0.127631 0.115343,0.05097 0.131103,0.0095 0.05098,-0.184674 -0.119085,-0.288598 0.208356,-0.767671 0.413534,-0.512235 0.09481,0.118021 0.188956,0.02446 0.470731,-0.474859 0.580643,-1.028934 0.559233,-1.730069 -0.152405,-2.078304 -0.507846,-0.248483 -1.246432,-0.168056 -1.828494,0.204737 -1.004265,0.643195 -0.952558,1.014565 -0.570548,0.826747 0.123405,-0.06068 0.04359,0.07058 -0.170376,0.313854 -0.439057,0.499229 -0.99156,2.037944 -0.917215,2.365353 0.07485,0.329609 0.458573,0.321804 1.047552,0.03528 1.6e-5,7e-6 3.1e-5,1.3e-5 4.6e-5,2e-5 z m -0.679028,-0.100714 c -0.08452,-0.201766 -0.0059,-0.49771 0.367719,-1.177661 0.294424,-0.535841 0.41255,-0.539976 0.237674,-0.05353 -0.08025,0.223009 -0.194137,0.573272 -0.246874,0.756731 -0.05627,0.195666 -0.145755,0.322571 -0.207676,0.297182 -0.06022,-0.02469 -0.05434,0.06954 0.0079,0.207776 0.06265,0.139244 0.06842,0.234357 0.01782,0.212733 -0.05072,-0.02168 -0.129764,-0.131636 -0.176507,-0.243224 -1e-5,-4e-6 -2e-5,-7e-6 -2.9e-5,-1.1e-5 z m 1.721832,-0.940306 c 0.472051,-0.666715 0.594468,-0.691405 0.339645,-0.181587 -0.109629,0.21933 -0.318508,0.469624 -0.456024,0.552839 -0.215084,0.130156 -0.218285,0.101411 0.116366,-0.371258 4e-6,2e-6 9e-6,4e-6 1.3e-5,6e-6 z m -9.851756,-0.635942 c -0.04157,-0.119103 -0.07125,-0.08848 -0.08433,0.09508 -0.02857,0.400983 0.04088,0.553409 0.09675,0.306221 0.02717,-0.120162 0.02219,-0.301614 -0.01242,-0.401291 z m 6.272978,-3.764987 c 0.168395,-0.210501 0.342911,-0.418173 0.523334,-0.622909 -0.13461,0.05133 -0.267742,0.10437 -0.399332,0.159125 -0.439418,0.182846 -0.546035,0.185445 0.159866,-0.638194 0.793546,-0.925916 1.678967,-2.233697 2.0242,-3.262346 0.493677,-1.470892 -0.227558,-2.175941 -1.610311,-0.732199 -1.230118,1.284369 -1.827518,3.21348 -2.061819,5.732287 -0.04951,0.532183 -0.09625,1.064672 -0.140204,1.597458 0.150283,-0.273018 0.31048,-0.542429 0.480216,-0.808047 0.336939,-0.527277 0.678707,-0.993472 1.024052,-1.425174 -10e-7,0 -10e-7,0 -2e-6,-1e-6 z m -6.749675,1.359116 c -0.228669,-1.063529 -0.809605,-1.468946 -0.916492,-0.439213 -0.05591,0.538629 0.114638,0.839342 0.525469,1.039335 0.391728,0.190697 0.520526,0.0022 0.391023,-0.600122 z m 11.026217,-0.573247 c 0.214208,0.0019 0.422794,-0.06027 0.45963,-0.142943 0.126783,-0.284571 -0.152921,-0.439502 -0.591354,-0.298074 -0.771331,0.248831 -0.552102,0.434782 0.131726,0.441011 z m 1.76806,0.878827 c 0.08045,0.04175 0.08293,-0.05448 -8.28e-4,-0.2167 -0.172487,-0.334009 -0.392996,-0.370592 -0.527003,-0.107296 -0.05879,0.115506 -0.0073,0.189067 0.144149,0.211522 0.130649,0.01937 0.301,0.06963 0.383677,0.112476 10e-7,0 3e-6,-1e-6 5e-6,-2e-6 z m -0.659666,-0.702942 c 0.08844,-0.180215 0.06817,-0.326489 -0.05621,-0.385883 -0.202644,-0.09677 -0.440928,0.232323 -0.348338,0.453739 0.0999,0.238906 0.265517,0.215465 0.404552,-0.06786 z m -12.801163,4.962539 c -0.156163,-0.04831 -0.223121,-0.111386 -0.147889,-0.146829 0.208977,-0.09836 0.306008,-0.07806 0.39076,0.07364 0.101454,0.181593 0.08993,0.176146 -0.242868,0.07319 -1e-6,-1e-6 -2e-6,-2e-6 -3e-6,-3e-6 z m 2.200059,-7.132446 c -0.278193,-0.16267 -0.238608,-0.77468 0.110524,-1.09377 0.416563,-0.380717 0.662326,-0.439494 0.63443,-0.20448 -0.0107,0.09012 0.131532,0.303819 0.309181,0.476959 0.261911,0.255259 0.285981,0.358152 0.155228,0.529921 -0.15616,0.205144 -1.008657,0.408728 -1.209359,0.291369 -10e-7,0 -2e-6,1e-6 -4e-6,1e-6 z m -6.433764,1.85253 c 0.0748,-0.26033 0.04973,-0.278385 -0.272767,-0.118355 -0.196676,0.09759 -0.38301,0.127678 -0.415493,0.06423 -0.03248,-0.06345 0.101919,-0.197957 0.30016,-0.296273 0.32031,-0.158854 0.334752,-0.188547 0.07476,-0.289457 -0.262313,-0.101803 -0.282621,-0.111978 0.09817,-0.04771 0.500569,0.08448 0.874832,-0.05126 0.460403,-0.211339 -0.25864,-0.09993 -0.271596,-0.111002 0.154532,-0.07119 0.52772,0.0493 1.063781,-0.229155 2.671897,-0.919856 0.813369,-0.349348 0.94744,-0.399904 0.661608,-0.473588 -0.203899,-0.05256 -0.07715,-0.11333 0.684669,-0.161853 0.54742,-0.03486 0.999924,-0.0017 1.011281,0.04802 0.01122,0.04907 -0.241311,0.221379 -0.551786,0.390847 -0.326596,0.178272 -0.642618,0.371335 -0.775008,0.461883 -0.188315,0.128799 -0.202641,0.121224 -0.06806,-0.141229 0.112619,-0.219642 0.106316,-0.339234 -1.531029,0.327309 -1.350808,0.549897 -1.687105,0.823101 -1.833688,1.094261 -0.173867,0.321637 -0.19664,0.34427 -0.204732,0.121689 -0.0049,-0.135223 -0.04782,-0.227764 -0.09654,-0.204944 -0.049,0.02295 -0.17235,0.193538 -0.272334,0.380843 -0.166316,0.311566 -0.179919,0.338821 -0.09601,0.04675 0,0 -4.3e-5,-3.2e-5 -4.3e-5,-3.2e-5 z m 6.585705,-3.96846 c -0.149596,-0.09477 -0.301023,-0.188035 -0.454204,-0.279793 0.168544,0.07488 0.335441,0.151586 0.500602,0.23013 0.272799,0.129731 0.492669,0.259588 0.49576,0.282531 0.01399,0.103823 -0.126119,0.03072 -0.542158,-0.232868 z m -6.49518,1.570241 c -0.237899,-0.09868 -0.255219,-0.112827 -0.0176,-0.06485 0.218878,0.04423 0.311355,-0.01109 0.490039,-0.281512 0.239093,-0.361838 0.209799,-0.3085 0.04983,0.05106 -0.206605,0.464379 -0.162847,0.444325 -0.522205,0.295272 -2.1e-5,9e-6 -4.2e-5,1.9e-5 -6.4e-5,2.8e-5 z m -1.172798,0.488864 c -0.108559,-0.193379 -0.341973,-0.107586 -0.588113,0.23049 -0.07597,0.104357 -0.08952,-0.06741 -0.01967,-0.392638 0.06935,-0.322926 0.169123,-0.606709 0.214717,-0.630058 0.04604,-0.02357 0.340421,0.01747 0.652956,0.09639 0.571301,0.144261 0.554251,0.149759 0.216241,0.28954 -0.191687,0.07925 -0.352394,0.246307 -0.359109,0.370011 -0.01031,0.190183 -0.02695,0.196608 -0.11703,0.03626 4e-6,3e-6 7e-6,6e-6 10e-6,9e-6 z m 6.189837,-2.798274 c -0.877013,-0.288709 -1.096879,-0.168075 -0.971819,0.375209 0.05154,0.22447 0.0018,0.214752 -0.421663,-0.0033 -0.471768,-0.242897 -0.4906,-0.232918 -0.519015,0.04933 -0.03721,0.369681 -0.24856,0.443046 -0.484938,0.167174 -0.233472,-0.272475 -0.376342,-0.222242 -0.544937,0.214113 -0.135475,0.35062 -0.131883,0.352872 -0.359908,-0.01457 -0.07593,-0.122349 -0.152249,-0.244533 -0.228969,-0.36655 -0.164529,0.208419 -0.324541,0.418224 -0.480246,0.629266 -0.257427,0.348912 -0.483287,0.558996 0.275922,-0.947641 0.436821,-0.866868 0.945098,-1.614261 1.046916,-1.672972 0.103729,-0.05981 1.005165,0.283481 1.944442,0.824669 0.936733,0.539716 1.624529,1.032526 1.604017,1.032639 -0.02052,5.8e-5 -0.401898,-0.136653 -0.859804,-0.287395 10e-7,10e-7 2e-6,10e-7 2e-6,2e-6 z"
         id="path125"
         sodipodi:nodetypes="cssscsssssssssccsssccssssssscssssssscsssssscscssssccssssssssscssssccsscscsccsssscsscsssscsssssscssssscsscsssccccsssscsssccscccccsccssssssscccsccscsccsssscsscccsscssssscsccscssccsssccsssssssscsccccscscsscsscsscsscsscsscssscsssssscsssssssscssssssssssssscsssssccccsscsssssssssssssssscccscccsssccss"
         inkscape:path-effect="#path-effect309"
         inkscape:original-d="m 27.837704,30.026815 c -0.288758,-0.285668 -0.51899,-0.561073 -0.511629,-0.612013 0.03016,-0.20873 -0.192171,-0.664921 -0.294934,-0.605152 -0.06087,0.03541 -0.161677,-0.234235 -0.224024,-0.599191 l -0.11336,-0.66356 -0.468937,1.080912 c -0.490875,1.131473 -1.037785,1.789556 -1.487242,1.789556 -0.385773,0 -0.95466,-0.465333 -1.261991,-1.032269 -0.540207,-0.996526 -0.633092,-2.715275 -0.374178,-6.923889 0.01571,-0.255416 0.25652,-0.186978 0.334926,0.09518 0.115375,0.41521 0.313889,0.158143 0.313889,-0.406474 0,-0.39045 0.04748,-0.504412 0.188883,-0.453346 0.14274,0.05154 0.174649,-0.03166 0.130617,-0.340538 -0.03468,-0.243285 0.02565,-0.513066 0.149033,-0.66644 0.191483,-0.238027 0.207633,-0.18805 0.211655,0.65496 0.0024,0.501958 0.04278,0.948817 0.08975,0.993022 0.109626,0.103168 0.673361,-0.678421 1.091663,-1.513532 0.298971,-0.596876 0.318937,-0.613081 0.245029,-0.198872 -0.04426,0.248026 -0.320723,1.128758 -0.614372,1.957185 -0.293648,0.828425 -0.532535,1.669137 -0.530861,1.868246 l 0.0031,0.36202 0.267728,-0.322112 c 0.3897,-0.468859 0.333258,-0.141384 -0.136801,0.79371 -0.31568,0.627987 -0.410642,0.997627 -0.410726,1.598743 -1.29e-4,0.939721 0.308057,1.989821 0.675932,2.303135 0.258254,0.21995 0.280294,0.215843 0.60362,-0.112482 0.4105,-0.416851 0.717047,-1.509454 0.913979,-3.257636 0.08153,-0.723715 0.231306,-1.564426 0.332845,-1.868248 l 0.184615,-0.552402 0.01564,0.450957 c 0.01221,0.352334 0.04674,0.408689 0.157893,0.257689 0.104179,-0.141534 0.127203,-0.02082 0.08601,0.450956 -0.049,0.561139 -0.01166,1.2432 0.222138,4.058607 0.02648,0.318891 0.07805,0.579801 0.114595,0.579801 0.03654,0 0.185263,0.111821 0.330485,0.248488 0.250639,0.23588 0.266458,0.236663 0.311735,0.01544 0.02624,-0.128177 -0.0045,-0.268987 -0.06845,-0.312911 -0.103026,-0.07084 -0.137797,-0.74972 -0.04698,-0.917352 0.04056,-0.07486 0.100418,-0.672537 0.121525,-1.213287 0.0081,-0.206689 0.05372,-0.339043 0.101459,-0.29412 0.08065,0.0759 0.104556,0.205565 0.211809,1.148868 0.02565,0.225589 -0.05131,0.412805 -0.216378,0.526401 -0.243477,0.167548 -0.234943,0.190527 0.172078,0.463281 l 0.428262,0.286989 0.15792,-0.326181 c 0.08685,-0.179399 0.204657,-0.298997 0.261783,-0.265771 0.178556,0.103854 0.754545,-0.989913 1.084564,-2.059523 0.251806,-0.816123 0.278977,-1.036362 0.133486,-1.082003 -0.397845,-0.124804 -0.81432,-0.660933 -0.81432,-1.048275 0,-0.610532 0.350913,-1.290165 0.666149,-1.290165 0.148167,0 0.295008,-0.07231 0.326319,-0.160713 0.118837,-0.335513 0.419537,0.502057 0.483825,1.347642 0.03659,0.481022 0.09208,0.874585 0.12335,0.874585 0.03126,0 0.233493,-0.08596 0.449383,-0.191027 0.261799,-0.127408 0.424614,-0.331232 0.488871,-0.612012 0.136281,-0.595494 0.424516,-1.084158 0.697672,-1.182803 0.367374,-0.132671 0.44347,0.152842 0.249757,0.937079 -0.199895,0.809284 -0.174633,0.908508 0.165072,0.648378 0.206809,-0.15836 0.223569,-0.15247 0.142826,0.05021 -0.146061,0.366623 -0.476099,1.654549 -0.575346,2.245206 -0.101162,0.602031 0.01423,1.114855 0.223424,0.993168 0.08552,-0.04974 0.103851,0.08121 0.04952,0.353793 -0.113451,0.569115 0.120141,1.138731 0.466976,1.138731 0.150305,0 0.474595,-0.240526 0.738288,-0.547589 0.752431,-0.876191 0.80889,-1.037246 0.655467,-1.869834 -0.185143,-1.004722 -0.176599,-3.559986 0.01334,-3.994273 0.08483,-0.193956 0.141858,-0.468607 0.126724,-0.610337 -0.01835,-0.171425 0.01048,-0.205494 0.08598,-0.101774 0.06808,0.09345 0.181356,-0.312885 0.282854,-1.014254 0.208955,-1.443905 0.150778,-1.542482 -0.87613,-1.48445 l -0.73185,0.04136 0.293441,-0.459843 c 0.161392,-0.252913 0.305797,-0.476709 0.320902,-0.497322 0.01511,-0.02061 0.310288,0.240273 0.655975,0.579746 l 0.628517,0.617224 0.155983,-0.421083 c 0.318033,-0.858593 1.197709,-2.422134 1.513075,-2.689379 0.409994,-0.347422 1.06097,-0.481603 1.527191,-0.314787 0.49881,0.178475 0.688932,0.918853 0.595497,2.318956 -0.135914,2.036572 -1.1048,4.749928 -2.458291,6.88444 -0.718398,1.132938 -0.74714,1.212417 -0.637469,1.762803 0.232448,1.166571 0.733601,1.929243 1.267714,1.929243 0.4268,0 1.180455,-0.392085 1.454589,-0.756741 0.139938,-0.186141 0.300531,-0.598031 0.356874,-0.915309 0.09296,-0.523526 0.08184,-0.560791 -0.120217,-0.402968 -0.200545,0.156634 -0.222657,0.109979 -0.222657,-0.469899 0,-1.141135 0.719685,-2.526272 1.563643,-3.009473 0.224931,-0.128777 0.41536,-0.359032 0.435205,-0.526196 0.01942,-0.163473 0.07766,-0.456669 0.129446,-0.651547 0.08473,-0.318837 0.05829,-0.354323 -0.264065,-0.354323 -0.437387,0 -0.443616,-0.06163 -0.0502,-0.496778 0.264266,-0.292283 0.434689,-0.346838 1.199012,-0.383812 1.110945,-0.05374 1.641842,0.249754 1.641842,0.938588 0,0.234205 0.08647,0.493363 0.19215,0.575906 0.161733,0.126319 0.208,-0.04881 0.292236,-1.106203 0.05505,-0.690955 0.06715,-1.809528 0.02691,-2.485718 -0.07077,-1.188783 -0.066,-1.215589 0.14333,-0.810689 0.119085,0.230309 0.254536,0.418745 0.300987,0.418745 0.04649,0 0.195063,-0.565306 0.330245,-1.256235 0.135174,-0.69093 0.365078,-1.513954 0.510891,-1.828943 0.282907,-0.611153 0.887564,-1.424385 1.059058,-1.424385 0.05705,0 -0.04827,0.43517 -0.233966,0.967042 -0.282915,0.810286 -0.311317,1.021422 -0.175226,1.302519 0.163021,0.336716 0.267349,0.348521 0.907293,0.102672 0.271967,-0.104486 0.272013,-0.103005 0.0077,0.275282 -0.45178,0.645788 -1.183292,2.022018 -1.11096,2.090092 0.0377,0.0355 0.209134,-0.02011 0.380914,-0.123589 0.171772,-0.103479 0.42401,-0.226873 0.560518,-0.274211 0.221453,-0.0768 0.216696,-0.04442 -0.04418,0.30036 -0.728876,0.963323 -1.315083,2.981752 -1.393243,4.797217 -0.02367,0.548934 -0.08918,0.99828 -0.145652,0.998547 -0.05651,2.58e-4 -0.107974,-0.07199 -0.114442,-0.16057 -0.02999,-0.411037 -0.260928,0.703884 -0.338456,1.634292 -0.103002,1.236228 0.05929,1.787361 0.507845,1.724604 0.449676,-0.06291 0.786628,-0.598777 0.957576,-1.522859 0.148904,-0.804925 0.343389,-1.126904 0.558444,-0.924519 0.147464,0.138776 -0.09682,1.386237 -0.439862,2.24624 -0.311942,0.782002 -1.050986,1.641706 -1.411314,1.641706 -0.117504,0 -0.316044,-0.09637 -0.441211,-0.214163 -0.167455,-0.157595 -0.254173,-0.173645 -0.328302,-0.06076 -0.129507,0.197205 -0.389232,-0.324047 -0.507098,-1.017708 -0.04772,-0.281154 -0.12519,-0.508023 -0.172041,-0.504153 -0.0468,0.0039 -0.394521,0.394075 -0.772605,0.867123 -0.736346,0.921292 -1.524932,1.440716 -2.187651,1.440953 -0.523727,1.3e-4 -0.692747,-0.114946 -0.717611,-0.488814 -0.0158,-0.238291 0.01804,-0.269986 0.165512,-0.154799 0.110427,0.08624 0.21746,0.09609 0.264582,0.02434 0.04348,-0.06628 -0.01727,-0.19582 -0.135151,-0.287873 -0.176907,-0.138174 -0.236102,-0.135101 -0.339327,0.01761 -0.06877,0.101741 -0.09473,0.271952 -0.05767,0.37825 0.03963,0.113676 -0.01735,0.09027 -0.138351,-0.05684 -0.113133,-0.137558 -0.205695,-0.325993 -0.205695,-0.418746 0,-0.240967 -0.06523,-0.215793 -0.573409,0.221411 -0.613345,0.527643 -1.318297,0.696706 -2.047627,0.491063 -0.55159,-0.155527 -1.277512,-0.707617 -1.555192,-1.182782 -0.120981,-0.207007 -0.223736,-0.133816 -0.858092,0.611165 -0.422529,0.496216 -0.86543,0.880529 -1.070614,0.928994 -0.957882,0.226254 -1.724706,-0.830917 -1.926387,-2.655782 -0.06802,-0.615441 -0.0537,-0.678978 0.10884,-0.483077 0.162314,0.195633 0.187985,0.07377 0.193423,-0.918251 l 0.0063,-1.143818 -0.383595,0.125847 c -0.249934,0.082 -0.411393,0.244823 -0.463372,0.467293 -0.06911,0.295812 -0.359102,1.252449 -0.548417,1.809174 -0.04983,0.146482 -0.02282,0.149489 0.147536,0.01644 0.511047,-0.399152 -0.0079,0.551973 -0.936698,1.716761 -0.608656,0.763306 -1.203479,1.244219 -1.538924,1.244219 -0.05305,0 -0.332708,-0.233728 -0.621466,-0.519396 z m 0.01977,-0.433154 c 0,-0.02785 -0.09561,-0.08516 -0.212473,-0.12737 -0.121839,-0.044 -0.176794,-0.0224 -0.12883,0.05064 0.0804,0.122429 0.341303,0.181084 0.341303,0.07673 z m 13.249901,-0.34363 c -0.007,-0.219272 -0.05589,-0.327316 -0.110973,-0.243428 -0.08925,0.135903 -0.02667,0.637695 0.07956,0.637695 0.02382,0 0.03801,-0.17742 0.03138,-0.394267 z M 28.8261,29.351177 c -0.01693,-0.154059 -0.204717,-0.124224 -0.263548,0.04188 -0.03012,0.08503 0.01916,0.131421 0.109527,0.103075 0.09036,-0.02835 0.159667,-0.09357 0.154021,-0.14495 z m -3.980609,-0.222258 c 0,-0.07086 -0.06161,-0.128844 -0.136909,-0.128844 -0.0753,0 -0.136909,0.05798 -0.136909,0.128844 0,0.07086 0.06161,0.128845 0.136909,0.128845 0.0753,0 0.136909,-0.05798 0.136909,-0.128845 z m 17.723964,-0.728844 c 0.266678,-0.243739 0.48487,-0.369491 0.48487,-0.279446 0,0.218484 0.427804,-0.36376 0.471618,-0.641875 0.01889,-0.119945 0.120741,-0.225889 0.226318,-0.235431 0.105584,-0.0096 0.280757,-0.02404 0.38927,-0.03221 0.15054,-0.01133 0.138452,-0.05536 -0.05104,-0.185735 -0.299476,-0.206077 -0.1839,-0.761253 0.134526,-0.646256 0.158488,0.05723 0.198347,-0.07185 0.198347,-0.642412 0,-1.183921 -0.373928,-1.761941 -1.13927,-1.761093 -0.549115,6.32e-4 -1.196768,0.368137 -1.625921,0.922672 -0.59815,0.772899 -0.787631,1.466397 -0.267033,0.977305 0.102338,-0.09615 0.07792,0.04666 -0.0606,0.354323 -0.279608,0.62111 -0.335164,2.260433 -0.08617,2.542786 0.248569,0.281868 0.76909,0.135486 1.32502,-0.372627 z m -0.884218,0.177158 c -0.208678,-0.159492 -0.231861,-0.458164 -0.09565,-1.232076 0.104982,-0.596467 0.229463,-0.665776 0.248175,-0.13817 0.0085,0.242121 0.0357,0.599664 0.06029,0.794542 0.02552,0.202478 -0.02175,0.354323 -0.110234,0.354323 -0.08518,0 -0.03531,0.08513 0.110881,0.18917 0.146168,0.104042 0.204153,0.189168 0.128853,0.189168 -0.07532,0 -0.229325,-0.07063 -0.342273,-0.156957 z m 1.517523,-1.564084 c 0.154741,-0.779525 0.262292,-0.908258 0.262292,-0.313956 0,0.246293 -0.0873,0.560161 -0.193999,0.697485 -0.171965,0.221326 -0.179721,0.177767 -0.06831,-0.383529 z m -12.48192,0.05426 c -0.0052,-0.127435 -0.0476,-0.10549 -0.125191,0.06443 -0.161734,0.354206 -0.161734,0.557636 0,0.322112 0.073,-0.106298 0.129332,-0.280238 0.125191,-0.386534 z m 7.295806,-3.213563 0.414705,-0.701093 -0.358232,0.220895 c -0.455712,0.281009 -0.449822,0.218653 0.06229,-0.659508 0.62612,-1.073677 1.084955,-2.486084 1.171489,-3.606161 0.131913,-1.707244 -0.510351,-1.921521 -1.307118,-0.436096 -0.762999,1.422464 -1.210917,3.428915 -1.327703,5.947478 l -0.0747,1.610558 0.502287,-0.837491 c 0.276254,-0.460619 0.6889,-1.152981 0.916984,-1.538582 z m -7.035492,0.765835 c 0.08945,-1.157429 -0.3523,-1.574553 -0.740796,-0.69951 -0.218452,0.492035 -0.166754,0.833711 0.174789,1.155134 0.32871,0.309349 0.518712,0.156401 0.566007,-0.455624 z m 11.313735,-1.180604 c 0.191787,-0.08224 0.348709,-0.223767 0.348709,-0.314507 0,-0.314571 -0.295721,-0.334587 -0.626228,-0.04239 -0.538707,0.476284 -0.404242,0.649223 0.277519,0.35689 z m 1.900124,0.01658 c 0.08797,-0.0022 0.04302,-0.08737 -0.09982,-0.189141 -0.292437,-0.208319 -0.493236,-0.147168 -0.493236,0.150205 0,0.128935 0.07656,0.171797 0.216558,0.12124 0.119107,-0.04301 0.288535,-0.08005 0.376495,-0.0823 z m -0.86687,-0.318016 c 0,-0.200426 -0.07758,-0.322112 -0.205363,-0.322112 -0.205349,0 -0.286323,0.396244 -0.114096,0.558326 0.186143,0.175178 0.319459,0.0766 0.319459,-0.236214 z M 28.602416,28.68206 c -0.149699,-0.106557 -0.191022,-0.190957 -0.09462,-0.193267 0.270675,-0.0064 0.368619,0.04832 0.395609,0.221381 0.03157,0.202423 0.02158,0.201491 -0.300987,-0.02811 z m 4.411952,-6.210114 c -0.226136,-0.212814 -0.07513,-0.809264 0.269461,-1.064354 0.408842,-0.302651 0.626595,-0.342887 0.573598,-0.105985 -0.01982,0.08858 0.07719,0.320791 0.215559,0.516024 0.203591,0.287255 0.219181,0.391711 0.08172,0.547589 -0.170309,0.193125 -0.969089,0.267884 -1.140334,0.106726 z m -6.130353,-0.332852 c 0.166065,-0.20181 0.147853,-0.225478 -0.173495,-0.225478 -0.197468,0 -0.359034,-0.05798 -0.359034,-0.128845 0,-0.07086 0.161566,-0.128844 0.359034,-0.128844 0.321348,0 0.33956,-0.02366 0.173495,-0.225479 -0.176705,-0.214741 -0.172099,-0.214741 0.0967,0 0.382672,0.305715 0.709047,0.31019 0.448576,0.0062 -0.176945,-0.206542 -0.168165,-0.206542 0.150607,0 0.363331,0.235412 0.993069,0.269507 2.501542,0.13543 0.797478,-0.07088 0.890779,-0.104795 0.684544,-0.248817 -0.176771,-0.123443 -0.01656,-0.114504 0.616892,0.03441 0.470621,0.110641 0.855675,0.242834 0.855675,0.29376 0,0.05092 -0.252846,0.163887 -0.561882,0.251023 -0.309037,0.08714 -0.663287,0.194139 -0.787226,0.237785 -0.201894,0.0711 -0.204191,0.05493 -0.0221,-0.155403 0.194934,-0.225187 0.1379,-0.232407 -1.398464,-0.177064 -1.333088,0.04802 -1.652313,0.09955 -1.903565,0.30727 -0.267916,0.221498 -0.292046,0.224208 -0.214503,0.0241 0.04806,-0.124014 0.04796,-0.225479 -2.32e-4,-0.225479 -0.04818,0 -0.214611,0.101465 -0.369842,0.225479 -0.268798,0.214742 -0.273403,0.214742 -0.0967,0 z m 6.576353,-1.739403 -0.331913,-0.354323 0.3765,0.312361 c 0.207074,0.171797 0.376497,0.331243 0.376497,0.354323 0,0.101049 -0.110869,0.01881 -0.421084,-0.312361 z m -5.613749,-0.386533 c -0.153593,-0.191023 -0.152255,-0.201136 0.0088,-0.06618 0.152484,0.127813 0.245884,0.11508 0.472577,-0.06443 0.281887,-0.223209 0.281936,-0.223058 0.02173,0.06618 -0.312328,0.347165 -0.279126,0.342913 -0.503048,0.06443 z m -1.074785,-0.05302 c -0.0099,-0.221437 -0.217675,-0.244069 -0.534049,-0.05819 -0.100185,0.05887 -0.03858,-0.101495 0.136908,-0.356351 0.175484,-0.254856 0.353744,-0.464093 0.396131,-0.46497 0.04239,-8.69e-4 0.246249,0.164594 0.453028,0.367712 0.374215,0.367589 0.374493,0.369227 0.05984,0.352255 -0.173867,-0.0094 -0.357998,0.07085 -0.409179,0.178282 -0.07912,0.166097 -0.0945,0.16329 -0.102683,-0.01875 z m 5.614143,-0.569326 c -0.629224,-0.465538 -0.819185,-0.433867 -0.834796,0.139181 -0.0063,0.227366 -0.04497,0.214023 -0.329486,-0.113398 -0.313232,-0.360457 -0.325118,-0.363226 -0.41503,-0.09663 -0.116369,0.34506 -0.303121,0.35258 -0.416376,0.01676 -0.11239,-0.333251 -0.22966,-0.325328 -0.476767,0.03221 -0.199762,0.289027 -0.20058,0.288629 -0.272525,-0.132488 l -0.07216,-0.422389 -0.545277,0.422389 c -0.456396,0.353535 -0.378118,0.22456 0.480203,-0.79122 0.564014,-0.667485 1.09589,-1.235696 1.181942,-1.26269 0.08605,-0.02699 0.653528,0.562615 1.261065,1.310243 0.607543,0.747628 1.09115,1.356339 1.074696,1.352694 -0.01645,-0.0037 -0.302428,-0.208244 -0.63549,-0.454665 z"
         class="UnoptimicedTransforms"
         transform="matrix(0.94866644,0,0,0.87276585,-0.70804436,2.3275291)" /><path
         style="fill:#000000;stroke-width:0.151954"
         d="m 46.975651,47.215311 c -0.930929,-0.0088 -1.362234,-0.322499 -1.005788,-0.606071 0.114264,-0.0909 0.444115,-0.110339 0.732685,-0.04531 0.557833,0.125699 1.276879,-0.100478 1.482797,-0.461283 0.326997,-0.572954 -0.153537,-0.685433 -1.739484,-0.7527 -0.932889,-0.03957 -1.809307,-0.22939 -2.013963,-0.38105 -0.928357,-0.687852 -1.05443,-2.38947 -0.35969,-3.257438 0.419903,-0.524601 1.617312,-1.053853 1.755857,-0.753463 0.05123,0.111194 -0.03047,0.286242 -0.182161,0.387556 -1.243541,0.830546 -1.313686,0.876984 -1.373687,1.632603 -0.04266,0.537369 0.03205,0.839917 0.321066,1.187164 0.313342,0.376472 0.640946,0.517107 2.045411,0.561027 1.812787,0.05668 2.321894,0.206538 2.220238,1.139434 -0.08801,0.80757 -0.830672,1.359492 -1.883281,1.349533 z M 22.952734,42.390483 c 1.743028,-0.914341 2.822141,-1.4679 2.911468,-1.37721 0.07897,0.08017 -0.0027,0.393568 -0.178854,0.699403 -0.70279,1.22017 -2.601075,4.866635 -2.658546,4.929789 -0.03369,0.03702 -0.190298,-0.04901 -0.345834,-0.193138 -0.199828,-0.185173 -0.201674,-0.37286 -0.01163,-0.634767 0.260302,-0.358749 0.216605,-0.404507 -0.462786,-1.164759 -0.707463,-0.791669 -0.706247,-0.804112 -1.147688,-0.551486 -0.30939,0.1771 -0.523882,0.171996 -0.69197,-0.01649 -0.225467,-0.252828 -0.01987,-0.324444 2.585839,-1.691343 -1e-6,0 -1e-6,1e-6 -1e-6,1e-6 z m 0.450318,2.064014 c 0.08081,-0.164015 0.295877,-0.563672 0.513205,-0.945539 0.746904,-1.312328 0.772965,-1.308563 -0.348113,-0.708057 -1.439506,0.771083 -1.472039,0.744533 -0.841637,1.386632 0.449786,0.458132 0.56579,0.491623 0.676545,0.266964 z m 1.301356,-0.132025 c 0.785442,-1.47062 1.527036,-2.671824 1.575667,-2.719651 0.04857,-0.0482 0.403747,0.22385 0.794384,0.582477 0.237113,0.217683 0.476095,0.42961 0.717197,0.634913 -0.0928,0.191717 -0.184411,0.384116 -0.274794,0.577204 -0.594995,1.271077 -2.090455,5.0842 -2.140552,5.152863 -0.02959,0.04056 -0.521832,-0.263611 -1.067083,-0.700645 -0.3299,-0.264411 -0.651901,-0.534972 -0.966297,-0.810688 0.430386,-0.919938 0.885451,-1.825186 1.361478,-2.716473 z m 3.940148,3.144853 1.415005,-2.406664 C 29.88084,44.956123 29.703632,44.84734 29.527862,44.734573 29.145317,44.48915 29.04552,44.325686 29.144964,44.181887 c 0.107609,-0.155607 0.297549,-0.07788 0.841004,0.25932 0.235973,0.146417 0.474377,0.28502 0.71541,0.415126 l -1.462133,2.665646 c -1.246984,2.273403 -1.503908,2.644178 -1.737429,2.510408 -0.232613,-0.13325 -0.05955,-0.520185 1.14274,-2.565062 z m 0.912576,0.224867 1.408238,-2.697329 c 0.120503,0.06142 0.24167,0.120687 0.363525,0.177721 0.306937,0.145175 0.61906,0.277809 0.934336,0.396155 1.039025,0.39002 1.32191,0.456806 1.342598,0.663084 0.0198,0.197046 -0.08942,0.243089 -0.53062,0.121538 -0.185768,-0.05118 -0.370979,-0.107511 -0.555287,-0.168697 l -0.878632,2.664327 -0.878633,2.664329 c -0.457454,-0.15003 -0.906237,-0.32034 -1.344833,-0.509627 -0.25454,-0.109853 -0.505649,-0.226098 -0.75303,-0.348478 -0.173678,-0.08666 -0.345637,-0.175249 -0.5159,-0.265695 z m 3.914188,1.36833 c 0.521783,-2.888494 0.551142,-2.990795 0.809091,-2.950175 0.25794,0.04062 0.254227,0.146707 -0.09456,3.05749 -0.348249,2.906326 -0.374329,3.024487 -0.810482,2.960822 -0.435115,-0.06351 -0.42507,-0.183877 0.09595,-3.068137 z m 1.073649,0.144774 0.269188,-3.027789 c 0.26492,0.02477 0.528265,0.03636 0.788858,0.03376 0.260595,-0.0026 0.518437,-0.01941 0.772348,-0.05143 0.07722,0.643115 0.156593,1.286084 0.238128,1.9289 0.03428,0.269837 0.06889,0.539578 0.10383,0.809223 0.118192,0.912215 0.240122,1.823328 0.365772,2.73334 0.301922,-0.0271 0.601353,-0.06212 0.898236,-0.10467 0.531542,-0.07617 0.951395,-0.06944 1.054998,0.04822 0.138512,0.157326 -0.13617,0.368989 -1.966817,0.640332 -0.08781,0.0089 -0.178989,0.01725 -0.273386,0.02489 -0.849305,0.06876 -1.691839,0.06434 -2.520314,-0.007 0.08972,-1.009261 0.179437,-2.018522 0.269159,-3.027783 z m 4.92146,-0.648159 c -0.157609,-2.353475 -0.329446,-3.075491 -0.17199,-3.108381 0.141164,-0.02948 0.710672,0.697505 2.028644,2.140557 1.065756,1.166907 2.096146,2.141951 2.157876,2.244058 0.209109,0.346996 -0.575212,0.426876 -0.869905,0.1188 -0.27809,-0.290739 -0.379221,-0.240576 -1.336213,0.117231 -1.052708,0.393591 -1.070072,0.344646 -1.029818,0.870342 0.0269,0.350941 -0.08329,0.550095 -0.357096,0.635114 -0.366805,0.113897 -0.2283,-0.132718 -0.421498,-3.017721 z m 2.234267,0.473328 c -0.08175,-0.167195 -1.599222,-1.853634 -1.655475,-1.878985 -0.08865,-0.03991 -0.07159,0.350072 0.02104,0.871559 0.09707,0.546257 0.166887,1.096859 0.180996,1.331893 0.02028,0.337963 0.08164,0.376005 0.764619,0.08501 0.405761,-0.172882 0.710212,-0.365727 0.688824,-0.409472 z m 2.230998,0.534617 c -0.224602,-0.159623 -1.237652,-1.067935 -2.227847,-2.115498 -0.957684,-1.013168 -1.785761,-2.064928 -1.823722,-2.142566 -0.05191,-0.106166 0.217011,-0.282212 0.742578,-0.5619 0.273421,-0.145505 0.546656,-0.302055 0.819606,-0.468359 0.604819,0.576892 1.233468,1.138697 1.882912,1.685859 1.071583,0.902818 2.203906,1.768633 2.446312,1.975255 0.146928,0.125213 0.29455,0.249902 0.442847,0.374069 -0.334345,0.246002 -0.676316,0.485086 -1.025978,0.716039 -0.684005,0.45179 -1.136752,0.622286 -1.256659,0.537076 0,0 -4.9e-5,2.5e-5 -4.9e-5,2.5e-5 z m 5.050562,-4.626862 c -0.462444,-0.618679 -0.464437,-0.561424 -2.15839,-0.576762 -1.465405,-0.01331 -1.737017,-0.13754 -1.994102,-0.510024 -0.206482,-0.299175 -0.2628,-0.644918 -0.177621,-1.030749 0.04276,-0.1937 0.08379,-0.387248 0.123344,-0.580538 0.639222,0.03035 1.289243,0.04063 1.942623,0.03395 1.849502,-0.01889 1.970534,-0.06028 2.459932,0.410561 0.629594,0.605721 0.87018,1.404731 0.594244,2.153742 -0.118861,0.322652 -0.247761,0.611829 -0.281163,0.64509 -0.0326,0.03246 -0.261026,-0.213655 -0.508867,-0.54527 z"
         id="path289"
         sodipodi:nodetypes="sssssssssssssssssssssssssssssscscsssccsscssscsssccsssccccccsssssccccccsssccsssssssssssssssssscsscssssssscsssss"
         inkscape:path-effect="#path-effect307"
         inkscape:original-d="m 44.814976,44.426777 c -0.53541,-0.52972 -0.67978,-0.997549 -0.30783,-0.997549 0.11637,0 0.32662,0.173696 0.46721,0.38599 0.2689,0.406038 0.80196,0.678688 1.10442,0.564898 0.4652,-0.175013 0.3084,-0.559073 -0.63317,-1.550946 -0.54185,-0.570804 -1.02985,-1.213866 -1.08442,-1.429026 -0.26064,-1.027367 0.57521,-2.279757 1.63506,-2.449919 0.62523,-0.100382 1.72204,0.295855 1.61904,0.584903 -0.0375,0.105093 -0.19818,0.167925 -0.35719,0.139624 -1.29857,-0.231129 -1.41791,-0.215271 -1.88924,0.251038 -0.34404,0.340384 -0.46222,0.597071 -0.46222,1.003924 0,0.464704 0.1488,0.703356 0.99299,1.592652 1.07777,1.135343 1.22393,1.585243 0.68746,2.116013 -0.4782,0.473113 -1.16264,0.391388 -1.77211,-0.211602 z m -21.623,-2.433414 c 0.43708,-1.739676 0.77367,-2.79616 0.89085,-2.79616 0.10359,0 0.25615,0.255056 0.33901,0.56679 0.33058,1.24371 1.23603,4.864136 1.23603,4.942268 0,0.04579 -0.13293,0.08326 -0.29539,0.08326 -0.20868,0 -0.30958,-0.122011 -0.34372,-0.415645 -0.0456,-0.392121 -0.0969,-0.418177 -0.90627,-0.460369 -0.84692,-0.04415 -0.8591,-0.03883 -0.95098,0.415645 -0.0644,0.318703 -0.18214,0.460369 -0.38254,0.460369 -0.26925,0 -0.24038,-0.19545 0.41301,-2.796159 z m 1.49229,1.02022 c -0.0427,-0.145476 -0.15452,-0.570567 -0.24855,-0.944648 -0.33596,-1.33665 -0.34234,-1.338934 -0.63307,-0.226715 -0.37842,1.447716 -0.38121,1.435865 0.33784,1.435865 0.51948,0 0.60864,-0.04336 0.54378,-0.264502 z m 0.70392,-0.908977 c -0.35838,-1.474378 -0.65055,-2.731697 -0.64926,-2.794044 0.001,-0.06234 0.41216,-0.113359 0.91305,-0.113359 h 0.91072 l 0.15066,0.56679 c 0.33058,1.24371 1.23603,4.864136 1.23603,4.942268 0,0.04579 -0.42966,0.08231 -0.95481,0.08114 l -0.95479,-0.0021 z m 4.24164,0.115472 v -2.569443 h -0.61107 c -0.44133,0 -0.61107,-0.06298 -0.61107,-0.226716 0,-0.174044 0.19521,-0.226716 0.84023,-0.226716 h 0.84022 v 2.79616 c 0,2.384713 -0.0337,2.796159 -0.22916,2.796159 -0.1947,0 -0.22915,-0.386257 -0.22915,-2.569444 z m 0.76384,-0.226715 v -2.79616 h 1.51134 c 1.20248,0 1.52931,0.04634 1.59927,0.226716 0.0691,0.178055 -0.0422,0.226716 -0.51834,0.226716 h -0.60628 v 2.569443 2.569444 h -0.99299 -0.993 z m 3.51367,0 c 0,-2.695397 0.011,-2.79616 0.30554,-2.79616 0.29453,0 0.30553,0.10076 0.30553,2.79616 0,2.695396 -0.011,2.796159 -0.30553,2.796159 -0.29453,0 -0.30554,-0.100759 -0.30554,-2.796159 z m 0.91661,0 v -2.79616 h 0.91291 0.91292 l 0.0419,2.531658 0.0419,2.531658 0.63604,0.04583 c 0.37959,0.02736 0.67024,0.134002 0.72085,0.264502 0.0708,0.182599 -0.19155,0.218664 -1.59084,0.218664 h -1.67566 z m 4.25697,-0.0042 c 0.53379,-2.124643 0.7571,-2.790186 0.92544,-2.75811 0.15092,0.02876 0.43124,0.864013 0.87644,2.611458 0.36,1.413048 0.65644,2.659186 0.65875,2.769191 0.007,0.35235 -0.51374,0.114854 -0.60644,-0.276377 -0.0803,-0.338942 -0.17546,-0.381588 -0.94101,-0.421789 -0.83995,-0.04411 -0.85293,-0.0384 -0.94471,0.415645 -0.0644,0.318703 -0.18214,0.460369 -0.38254,0.460369 -0.26924,0 -0.24028,-0.195899 0.41407,-2.800387 z m 1.54822,1.206655 c 0,-0.239212 -0.51651,-2.127178 -0.61048,-2.231475 -0.0606,-0.06721 -0.18958,0.272871 -0.28671,0.755718 -0.0971,0.482848 -0.21801,1.030937 -0.26861,1.217978 -0.0845,0.312334 -0.0407,0.340073 0.53691,0.340073 0.34588,0 0.62889,-0.03704 0.62889,-0.08229 z m 1.29879,1.404802 c -0.13326,-0.378495 -1.29879,-5.092192 -1.29879,-5.252656 0,-0.106508 0.33587,-0.149178 0.94582,-0.120159 l 0.94582,0.045 0.56811,2.246524 c 0.31246,1.235589 0.61178,2.476857 0.66516,2.758375 l 0.0971,0.511848 h -0.92833 c -0.60533,0 -0.95147,-0.06573 -0.99485,-0.188929 z m 5.2319,-0.486145 c 0.0755,-0.663016 0.0587,-0.693801 -0.94615,-1.723518 -0.89296,-0.915106 -1.01684,-1.110874 -0.97409,-1.539351 0.0326,-0.326714 0.19239,-0.596389 0.47776,-0.806271 l 0.42878,-0.315365 1.21348,1.224969 c 1.12534,1.136019 1.21346,1.270873 1.21346,1.857149 0,0.804011 -0.33979,1.455636 -0.91161,1.748187 -0.24647,0.126101 -0.47747,0.229275 -0.51333,0.229275 -0.0359,0 -0.0306,-0.303784 0.0117,-0.675075 z"
         class="UnoptimicedTransforms"
         inkscape:transform-center-x="0.21939709"
         inkscape:transform-center-y="-6.9079733"
         transform="translate(-2.0190284,-2.2364628)" /><path
         style="fill:#000000;stroke-width:0.301388"
         d="m 31.923184,64.487218 c -0.479408,-0.398661 -1.082095,-1.113036 -1.339335,-1.5875 -0.257226,-0.474466 -0.620178,-0.862666 -0.806559,-0.862666 -0.186367,0 -0.668889,-0.452548 -1.072259,-1.005662 -0.403357,-0.553112 -1.408728,-1.320038 -2.234153,-1.704277 -1.180721,-0.549637 -1.549148,-0.897395 -1.727654,-1.630746 -0.124823,-0.51267 -0.442478,-1.070012 -0.705958,-1.238536 -0.263482,-0.168524 -0.479057,-0.473368 -0.479057,-0.677434 0,-0.204062 -0.386218,-0.484195 -0.85828,-0.622511 -0.681137,-0.199583 -0.858266,-0.435499 -0.858266,-1.143069 0,-0.555564 -0.258784,-1.072068 -0.686626,-1.370473 -0.37764,-0.26339 -0.686626,-0.680268 -0.686626,-0.926399 0,-0.645596 -0.966834,-2.043634 -1.922845,-2.780411 -0.722465,-0.556784 -0.823635,-0.877827 -0.823635,-2.613334 0,-1.722456 -0.08577,-1.999557 -0.662764,-2.140686 -0.364522,-0.08916 -0.759575,-0.501798 -0.877885,-0.916966 -0.124047,-0.435237 -0.497547,-0.811769 -0.882143,-0.889278 -0.676141,-0.136266 -0.715638,-0.330684 -0.816887,-4.020426 -0.01169,-0.436563 -0.21285,-1.050869 -0.446371,-1.365128 -0.344202,-0.463177 -0.327943,-0.749663 0.08591,-1.512856 0.776572,-1.432409 0.669667,-2.512409 -0.276146,-2.789544 -0.432603,-0.12676 -0.952379,-0.391703 -1.155056,-0.588762 -0.5737,-0.557787 -0.802173,-3.315057 -0.410131,-4.949486 0.253296,-1.055952 0.247548,-1.505614 -0.02011,-1.574369 -0.568057,-0.145931 -0.447916,-1.527993 0.167034,-1.921314 0.485648,-0.310621 0.459995,-0.393946 -0.248003,-0.805521 -0.776792,-0.45157 -0.780035,-0.474658 -0.198369,-1.414704 0.67984,-1.098714 0.75345,-2.061916 0.216652,-2.834928 -0.206077,-0.296741 -0.431072,-0.913993 -0.499999,-1.371669 -0.648569,-4.305985 -0.67186,-4.040497 0.401191,-4.572627 0.543635,-0.269595 1.282839,-0.771233 1.642663,-1.114755 0.52765,-0.503744 0.87699,-0.596724 1.80565,-0.480583 0.633271,0.0792 1.574801,0.372902 2.092252,0.652669 1.212031,0.655284 3.401094,1.201786 4.047782,1.010537 0.277092,-0.08195 0.862951,-0.04375 1.301926,0.08487 0.886177,0.259662 1.37398,0.10043 1.684444,-0.549849 0.379716,-0.795361 -2.41507,-3.1384409 -3.743491,-3.1384409 -1.341477,0 -2.831249,-0.733607 -3.099259,-1.526167 -0.134439,-0.397535 -0.244939,-1.556229 -0.245562,-2.574875 -0.0012,-1.9917199 0.619283,-3.3765729 1.57658,-3.5186539 0.316992,-0.04705 1.777375,0.365808 3.24531,0.917458 1.797409,0.675466 3.121822,0.9985529 4.055735,0.9893849 5.194222,-0.05099 12.656165,-0.4653579 14.142111,-0.7853189 0.973165,-0.209547 2.087983,-0.380995 2.477352,-0.380995 0.389384,0 1.23762,-0.194654 1.884982,-0.432565 1.531268,-0.562762 2.86902,-0.309624 3.373716,0.638392 0.56633,1.0638119 0.63209,4.2841979 0.107308,5.2557569 -0.361316,0.66893 -0.841217,0.939789 -2.456074,1.386218 -3.9944,1.1042529 -4.586551,1.6639199 -3.198961,3.0234349 0.807285,0.790946 1.553989,0.884643 2.526777,0.317059 0.443503,-0.25876 0.836455,-0.300572 1.244211,-0.13239 0.436237,0.179927 0.7562,0.109381 1.193697,-0.263194 0.719792,-0.612963 3.046979,-0.921851 5.130849,-0.681016 l 1.522394,0.175945 0.250842,1.507744 c 0.137957,0.829257 0.22885,3.234147 0.20199,5.344199 -0.02686,2.110052 -0.02219,4.37224 0.01043,5.027084 0.03257,0.654843 0.03568,1.726406 0.0064,2.38125 -0.02881,0.654843 -0.05709,1.886944 -0.06293,2.738001 -0.0078,1.082267 -0.278182,2.006899 -0.900826,3.076165 -0.739527,1.269986 -0.835041,1.682839 -0.564202,2.438788 0.517321,1.443932 0.256785,2.895304 -0.718183,4.000754 -0.85536,0.969839 -1.002217,1.446972 -1.444138,4.692039 -0.158794,1.166035 -0.480574,1.75346 -1.5659,2.858582 -0.751309,0.76503 -1.27151,1.508819 -1.156003,1.652868 0.115482,0.144047 -0.03504,0.550138 -0.334521,0.90242 -0.299502,0.352285 -0.544558,1.039146 -0.544558,1.526365 0,0.638895 -0.287122,1.097847 -1.029933,1.646309 -0.566459,0.418254 -1.029934,0.899393 -1.029934,1.0692 0,0.169807 -0.386229,0.629915 -0.858278,1.022464 -0.512041,0.425802 -0.85828,1.028433 -0.85828,1.493843 0,0.441835 -0.315318,1.023128 -0.727148,1.340522 -0.399933,0.308221 -0.838583,0.873768 -0.974774,1.256771 -0.169655,0.477104 -0.471843,0.690525 -0.959748,0.677814 -0.555885,-0.01447 -0.69981,0.130646 -0.655952,0.661459 0.0458,0.555244 -0.149946,0.726763 -1.067224,0.93482 -0.958477,0.2174 -1.154836,0.406305 -1.337519,1.286778 -0.165243,0.796361 -0.507162,1.191233 -1.497623,1.729565 -0.70592,0.383677 -1.63022,1.084551 -2.054014,1.557494 -0.940142,1.049194 -1.483375,1.077237 -2.61636,0.135061 z m 3.268509,-1.627386 c 1.487334,-1.104347 2.098962,-1.754166 2.098962,-2.230059 0,-0.799602 0.817951,-1.503137 1.747609,-1.503137 0.528299,0 0.626616,-0.129072 0.468379,-0.614945 -0.217418,-0.66762 0.582588,-1.407081 1.202728,-1.111705 0.197435,0.09405 0.497092,-0.108955 0.66589,-0.451115 0.1688,-0.342159 0.554731,-0.780621 0.857631,-0.974359 0.302901,-0.193739 0.550734,-0.73364 0.550734,-1.199777 0,-0.561928 0.289211,-1.056926 0.858279,-1.468933 0.47205,-0.341775 0.85828,-0.775104 0.85828,-0.962956 0,-0.187852 0.46346,-0.748361 1.029933,-1.245579 0.62023,-0.54442 1.034267,-1.205878 1.040844,-1.662853 0.0064,-0.417351 0.238466,-0.990698 0.516583,-1.274107 0.278104,-0.283408 0.415787,-0.733499 0.30595,-1.000201 -0.130313,-0.316442 0.165087,-0.805104 0.850247,-1.406512 1.646167,-1.444932 2.094615,-2.343854 2.217157,-4.44428 0.09394,-1.609593 0.304249,-2.209298 1.196342,-3.410961 1.128029,-1.51947 1.359369,-2.782099 0.739814,-4.037949 -0.263884,-0.534922 -0.194426,-0.949103 0.302407,-1.803162 1.111886,-1.911324 1.137072,-2.501654 0.03854,-0.901684 -1.020461,1.486167 -1.038691,1.574125 -0.637035,3.07282 0.443842,1.656088 0.53938,1.392883 -1.64274,4.525341 -0.253426,0.363802 -0.461722,1.410343 -0.462889,2.325645 -0.0026,1.749923 -0.753178,3.303802 -2.173973,4.498377 -0.670368,0.563624 -1.554534,2.529716 -1.589412,3.534286 -0.01441,0.415171 -1.584573,2.36738 -3.09181,3.844121 -0.384867,0.377078 -0.700782,0.937434 -0.702029,1.245232 -0.0026,0.775216 -1.157403,2.065136 -2.291841,2.561169 -0.520799,0.227722 -1.028752,0.664824 -1.128781,0.971341 -0.100044,0.306515 -0.594862,0.806257 -1.099624,1.110538 -0.504761,0.304282 -1.021654,0.917848 -1.148659,1.363478 -0.19471,0.683204 -2.882035,3.393146 -3.590564,3.62077 -0.123007,0.03951 -0.640237,-0.623703 -1.149475,-1.473801 -0.680178,-1.135443 -1.529647,-1.947812 -3.200908,-3.061084 -1.579499,-1.05215 -2.568741,-1.97668 -3.235799,-3.024116 -0.52843,-0.829765 -1.287887,-1.662517 -1.687676,-1.850556 -0.518307,-0.24379 -0.663024,-0.496994 -0.504294,-0.882407 0.146921,-0.356756 -0.01297,-0.735245 -0.468975,-1.113316 -0.380365,-0.31504 -0.962226,-1.108583 -1.293012,-1.763427 -0.330798,-0.654844 -1.051693,-1.593427 -1.601998,-2.08574 -0.819327,-0.732996 -0.962408,-1.051771 -0.789989,-1.76009 0.288018,-1.183201 -0.286253,-2.976703 -1.152202,-3.598458 -0.393598,-0.282604 -0.715639,-0.743124 -0.715639,-1.023376 0,-0.280252 -0.323674,-0.643054 -0.719285,-0.806225 -0.589531,-0.243155 -0.680515,-0.455891 -0.504424,-1.179301 0.128458,-0.527815 0.06448,-0.95423 -0.159094,-1.060741 -0.226811,-0.108032 -0.282723,-0.506534 -0.142094,-1.01282 0.127549,-0.459089 0.117948,-0.750853 -0.0214,-0.648367 -0.139305,0.102489 -0.281206,1.0764 -0.315345,2.164244 -0.05749,1.830322 -0.0026,1.998602 0.728148,2.25538 0.520616,0.182814 0.79021,0.505087 0.79021,0.944613 0,0.366922 0.143457,0.667131 0.318796,0.667131 0.946279,0 1.397763,0.890207 1.397763,2.756016 0,1.612414 0.115612,2.005135 0.713265,2.421941 0.674494,0.470432 2.033227,2.454238 2.033227,2.968604 0,0.13095 0.308973,0.453591 0.686614,0.716981 0.377639,0.26339 0.686626,0.788982 0.686626,1.167987 0,0.402553 0.285513,0.826516 0.686626,1.019569 0.37764,0.181758 0.686613,0.489601 0.686613,0.684096 0,0.194493 0.308987,0.569124 0.686626,0.832514 0.37764,0.26339 0.686626,0.812065 0.686626,1.21928 0,0.503772 0.28964,0.892315 0.906289,1.215765 1.537925,0.806683 4.429302,3.231537 4.929989,4.134538 0.215848,0.389271 1.420275,1.764792 1.545294,1.764792 0.05126,0 1.037602,-0.701312 2.192035,-1.55847 z M 34.858301,61.86751 c 0.804574,-0.704443 1.402421,-1.497174 1.402421,-1.8596 0,-0.662789 1.28485,-1.860452 4.720525,-4.400174 0.432331,-0.319593 0.772446,-0.889778 0.772446,-1.294974 0,-0.42712 0.422302,-1.09464 1.029933,-1.627995 0.566459,-0.497216 1.029933,-0.988997 1.029933,-1.09284 0,-0.103847 0.347602,-0.563764 0.772446,-1.022041 0.820118,-0.884647 1.678268,-2.842712 1.657481,-3.781935 -0.0064,-0.310603 0.340725,-0.846384 0.772447,-1.190625 1.627469,-1.297729 2.290597,-2.550107 2.290597,-4.325964 0,-1.411425 0.195359,-1.974284 1.201585,-3.462071 1.256409,-1.857674 1.415242,-2.585995 0.878496,-4.028323 -0.269514,-0.724247 -0.156252,-1.154777 0.682993,-2.596354 0.85139,-1.462447 0.960046,-1.886016 0.706699,-2.755016 -0.16466,-0.564782 -0.208699,-1.096761 -0.09783,-1.182177 0.378548,-0.29174 0.05813,-13.710034 -0.336119,-14.076145 -0.594111,-0.551707 -2.424829,-0.403416 -3.779798,0.306173 -0.685705,0.359095 -1.687131,0.651631 -2.225394,0.650084 -0.538265,-0.0016 -1.550305,0.07417 -2.248971,0.168259 -0.991332,0.133506 -1.498351,0.04593 -2.308738,-0.398788 -1.172118,-0.643231 -1.953414,-2.2402 -1.610756,-3.292396 0.353168,-1.0844499 2.296579,-2.3636639 4.428029,-2.9146629 1.073142,-0.27742 2.028608,-0.694138 2.123252,-0.926042 0.189962,-0.465464 -0.285643,-3.120286 -0.602778,-3.3647 -0.109903,-0.08472 -1.212369,0.105627 -2.449871,0.423002 -1.623317,0.416329 -3.756936,0.651118 -7.660598,0.842995 -2.975835,0.146272 -6.512719,0.324481 -7.85976,0.39602 -2.341293,0.124345 -4.190669,-0.198116 -7.716446,-1.34545 -0.775248,-0.252274 -1.089542,1.403334 -0.510924,2.691371 0.374072,0.832704 0.65328,1.020745 1.857901,1.251295 0.956725,0.183108 1.978977,0.698209 3.144101,1.584294 1.484661,1.1290999 1.726447,1.4569769 1.726447,2.3412649 0,2.143435 -1.834052,3.787325 -3.521871,3.156712 -0.423235,-0.158131 -1.459812,-0.361863 -2.303507,-0.452734 -0.843695,-0.09087 -2.452414,-0.524907 -3.574927,-0.96452 l -2.040935,-0.799298 -1.027986,0.79225 -1.027987,0.792247 0.909365,3.161467 c 0.729224,2.535211 0.83696,3.321507 0.543908,3.969403 -0.25903,0.572656 -0.258291,0.962274 0.0026,1.337903 0.256488,0.369361 0.265908,1.277061 0.03101,2.995316 -0.597964,4.374801 -0.517698,4.954434 0.816446,5.896232 l 1.16532,0.822616 -0.06837,4.307707 c -0.06125,3.85236 -0.0052,4.333711 0.527987,4.553702 0.328022,0.135294 0.699577,0.496522 0.825685,0.802724 0.126123,0.306203 0.600028,0.977789 1.053185,1.492412 0.661856,0.751641 0.825076,1.279686 0.829838,2.684695 0.0052,1.484916 0.126771,1.837277 0.806285,2.333535 0.440196,0.321485 1.075193,1.154922 1.411103,1.852083 0.335911,0.697159 0.924092,1.460665 1.307077,1.696676 0.446008,0.274854 0.68551,0.722286 0.666242,1.244666 -0.01999,0.541636 0.16383,0.866923 0.547295,0.968491 0.569704,0.150903 2.1396,2.344251 2.128168,2.973332 -0.0026,0.178165 0.418968,0.497366 0.938224,0.709337 1.644634,0.671373 4.08563,2.706206 4.758217,3.966491 0.356905,0.668779 0.75166,1.216408 0.877237,1.216953 0.125603,5.3e-4 0.859395,-0.551553 1.630725,-1.226883 z M 16.102935,34.141285 c 0.167165,-1.24279 0.109774,-1.35655 -1.201495,-2.38125 l -1.377054,-1.076108 0.204883,-2.116666 c 0.505086,-5.217838 0.519463,-5.803839 0.150815,-6.146165 -0.276768,-0.257014 -0.272746,-0.531255 0.01493,-1.017871 0.558065,-0.943933 0.508356,-1.373436 -0.537939,-4.64851 l -0.931722,-2.916451 0.845902,-0.500973 c 0.465236,-0.275534 0.6699,-0.503618 0.454792,-0.506854 -0.215109,-0.0032 -0.730341,0.205816 -1.144962,0.464563 -0.719609,0.44908 -0.735453,0.54823 -0.348755,2.182813 0.222789,0.9418 0.622163,2.291585 0.887474,2.999517 0.608786,1.624457 0.603777,1.865498 -0.0593,2.853807 -0.512988,0.764511 -0.503866,0.827836 0.171653,1.192487 0.866596,0.467792 0.897024,0.818518 0.127809,1.473542 -0.483105,0.411403 -0.511651,0.589859 -0.163167,1.01991 0.327477,0.404133 0.334859,0.908635 0.03283,2.245276 -0.214265,0.948211 -0.284488,2.344097 -0.156056,3.101964 0.197786,1.16718 0.400477,1.459413 1.325165,1.910561 1.309062,0.638683 1.565524,1.70511 0.76509,3.181501 -0.429725,0.792623 -0.451977,1.068192 -0.11172,1.384105 0.358774,0.333163 0.459774,0.255516 0.650062,-0.499806 0.123915,-0.491837 0.304288,-1.481564 0.400839,-2.199392 z M 53.937432,21.489656 c -0.0192,-4.402005 -0.15511,-8.319817 -0.302084,-8.706252 -0.149426,-0.392856 -0.594954,-0.768657 -1.010611,-0.852433 -1.187119,-0.239267 -3.425515,0.123615 -4.229362,0.685648 -0.406718,0.284374 -1.101921,0.487561 -1.544893,0.451527 -0.442971,-0.03603 -1.196008,0.0801 -1.673416,0.25807 -1.759404,0.655888 -3.902819,-0.702083 -3.838992,-2.432217 0.03957,-1.0728299 0.844954,-1.5764369 3.686491,-2.3051959 1.241616,-0.318432 2.379687,-0.78847 2.568948,-1.061001 0.437094,-0.629434 0.440428,-3.725189 0.0052,-4.6079009 -0.383517,-0.777403 -0.79841,-0.820392 -3.033796,-0.314344 -3.824863,0.8658759 -5.377255,1.0413019 -11.222109,1.2681379 -8.383309,0.325352 -8.249779,0.333889 -11.107406,-0.7101229 -1.388564,-0.507295 -2.651135,-0.922354 -2.805712,-0.922354 -0.622579,0 -1.105256,1.9755469 -0.899101,3.6799209 0.235558,1.947357 0.623657,2.321878 2.66703,2.573698 1.165761,0.143664 2.145504,0.709313 3.81988,2.2053979 0.779752,0.696713 0.76649,1.907999 -0.02919,2.665274 -0.56018,0.533162 -0.751401,0.566954 -1.726226,0.305059 -0.602934,-0.161986 -1.32946,-0.225552 -1.61448,-0.141256 -0.608125,0.179843 -3.358016,-0.570703 -4.66508,-1.27327 -1.113612,-0.598579 -2.118541,-0.626862 -2.711407,-0.07631 -0.389822,0.36199 -0.332627,0.391718 0.459049,0.238585 0.651527,-0.126023 1.499387,0.05424 3.032926,0.644822 1.170719,0.45086 2.654781,0.819748 3.297901,0.819748 0.643132,0 1.482545,0.129185 1.865362,0.287081 1.686119,0.695452 3.03525,-0.403043 3.03525,-2.471374 0,-0.977334 -0.193803,-1.243519 -1.724643,-2.3688019 -1.187833,-0.87314 -2.015995,-1.269001 -2.660659,-1.271791 -1.287069,-0.0056 -1.626548,-0.23154 -2.127922,-1.416385 -0.411038,-0.971394 -0.334315,-3.180071 0.122748,-3.5322919 0.11704,-0.09025 0.946294,0.09446 1.842642,0.4104669 3.052325,1.076086 5.605132,1.421444 8.0372,1.087319 1.196422,-0.164366 3.642959,-0.33782 5.436761,-0.385452 4.475534,-0.118844 6.696672,-0.352201 9.001075,-0.945673 1.079771,-0.2780799 2.116374,-0.5055989 2.303572,-0.5055989 0.549915,0 1.114287,1.8767279 0.994056,3.3055969 l -0.111201,1.321223 -2.182536,0.670643 c -4.20838,1.293134 -5.462452,3.5618749 -2.919884,5.2823469 0.984973,0.666498 1.438325,0.808056 2.145699,0.669991 0.493265,-0.09628 1.437573,-0.241927 2.098442,-0.32366 0.660882,-0.08173 1.570026,-0.370893 2.020342,-0.64258 0.56899,-0.343294 1.383983,-0.493977 2.671727,-0.493977 1.601854,0 1.894531,0.08068 2.15966,0.595312 0.168682,0.327422 0.29854,3.876866 0.288589,7.88765 -0.01531,6.19202 0.128198,8.450371 0.537006,8.450371 0.04308,0 0.06254,-3.60164 0.04334,-8.003646 z"
         id="path303"
         sodipodi:nodetypes="csssscssssssssssscccsssssssscssscssssscsssssssssssssscsssccssssssssssssssscsssscccsssssssssscssscssscsscssscsssssssssscssssssccccccssscsssssssssscccssssssccssssscsscssssssssssssssssscccssccscccsscssssscssscccscsscscscssscssssssscscccsssssssscssssssscsssssssssscscsssssccssssssscscc" /><path
         style="fill:#000000;stroke-width:0.0952991"
         d="m 31.218083,38.965026 c -0.227413,-0.07535 -0.580152,-0.434861 -0.705312,-0.718872 -0.03793,-0.08609 -0.116662,-0.132355 -0.174937,-0.102806 -0.06059,0.03072 -0.105954,-0.04085 -0.105954,-0.167169 0,-0.121493 -0.04735,-0.220896 -0.105214,-0.220896 -0.05787,0 -0.105823,-0.126243 -0.106566,-0.280541 -7.97e-4,-0.154298 -0.09544,-0.526779 -0.210424,-0.827735 -0.114988,-0.300957 -0.209064,-0.637675 -0.209064,-0.748264 0,-0.135839 -0.116897,-0.260343 -0.360321,-0.383776 -0.567832,-0.287927 -1.448978,-1.124025 -1.874371,-1.778549 -0.347362,-0.534455 -0.389823,-0.570766 -0.392544,-0.335686 -0.0041,0.355322 0.417516,1.023792 0.977096,1.549137 0.252849,0.237381 0.520021,0.524891 0.593722,0.638912 0.11729,0.181465 0.112793,0.200635 -0.03607,0.15377 -0.139256,-0.04384 -0.170058,0.0094 -0.170058,0.294127 0,0.209797 -0.04172,0.326511 -0.105209,0.294318 -0.06354,-0.03222 -0.105211,0.08542 -0.105211,0.297027 0,0.192706 -0.04735,0.350376 -0.105213,0.350376 -0.191647,0 -0.11689,0.596047 0.09326,0.743533 0.657247,0.461273 0.748435,0.557412 0.748435,0.789047 0,0.135092 -0.05682,0.292234 -0.126254,0.349205 -0.199687,0.163834 -2.501487,0.13756 -3.025731,-0.03454 -0.392122,-0.128725 -0.425381,-0.166784 -0.488866,-0.559439 -0.03746,-0.231723 -0.109488,-0.40034 -0.160045,-0.374706 -0.113732,0.05767 -0.111804,-0.401473 0.0036,-0.891522 0.04804,-0.203746 0.04601,-0.366862 -0.0046,-0.366862 -0.05009,0 -0.09109,-0.274202 -0.09109,-0.609337 0,-0.389547 -0.03845,-0.58984 -0.106601,-0.555283 -0.07033,0.03566 -0.08577,-0.16083 -0.04538,-0.577568 0.05793,-0.597685 0.05181,-0.622347 -0.114034,-0.458983 -0.166427,0.163941 -0.173192,0.143579 -0.134218,-0.404073 0.02441,-0.342912 0.0012,-0.55657 -0.05695,-0.527024 -0.05932,0.03008 -0.06566,-0.08298 -0.01606,-0.286491 0.04507,-0.184899 0.09546,-0.500448 0.111982,-0.70122 0.01651,-0.200773 0.0604,-0.44355 0.09752,-0.539503 0.04197,-0.108485 0.02004,-0.174462 -0.05797,-0.174462 -0.200379,0 -0.04167,-0.482328 0.408708,-1.242081 0.02501,-0.04222 -0.0078,-0.04971 -0.07305,-0.01664 -0.202156,0.102507 0.0652,-0.372695 0.411535,-0.731463 0.213999,-0.221682 0.271623,-0.337161 0.180967,-0.36265 -0.07316,-0.02057 0.170229,-0.198789 0.540866,-0.396045 0.370633,-0.197257 0.619195,-0.358649 0.552359,-0.358649 -0.445439,0 0.586937,-0.631233 1.284378,-0.785313 0.270544,-0.05977 0.372068,-0.116251 0.286732,-0.15952 -0.198351,-0.100578 0.120134,-0.177333 0.735831,-0.177333 0.284601,0 0.517452,-0.03788 0.517452,-0.08418 0,-0.05469 0.09453,-0.05469 0.269877,0 0.347294,0.108333 0.496198,0.106983 0.412791,-0.0038 -0.03642,-0.04836 0.197504,0.0078 0.519847,0.124731 0.567787,0.206016 0.725053,0.198063 0.455564,-0.02304 -0.0867,-0.07113 0.02805,-0.06086 0.341939,0.0306 0.280652,0.08179 0.611262,0.116663 0.81439,0.0859 0.345723,-0.05235 0.451741,-0.17218 0.210652,-0.238112 -0.0722,-0.01974 0.07205,-0.06258 0.320585,-0.09518 0.248795,-0.03264 0.423646,-0.09674 0.389077,-0.142632 -0.0382,-0.05067 0.06306,-0.0627 0.25808,-0.0307 0.208963,0.03429 0.320863,0.01801 0.320863,-0.04668 0,-0.0678 0.0976,-0.05793 0.30739,0.03109 0.21239,0.09011 0.31949,0.100611 0.34657,0.03397 0.0267,-0.06582 0.14369,-0.05211 0.36824,0.04316 0.24919,0.105723 0.3401,0.11373 0.37454,0.03299 0.0325,-0.07621 0.10798,-0.06113 0.26464,0.0529 0.12054,0.08773 0.2657,0.13592 0.32258,0.107078 0.0569,-0.02884 0.2,0.0483 0.31804,0.171421 0.11805,0.123123 0.25755,0.202097 0.31,0.175499 0.0525,-0.0266 0.17131,0.02047 0.26411,0.10461 0.15865,0.143834 0.14806,0.150992 -0.17727,0.11983 -0.91173,-0.08733 -1.56799,1.173596 -0.96369,1.851639 0.11513,0.129186 0.12931,0.07749 0.0938,-0.342064 -0.0895,-1.057173 0.69058,-1.600811 1.46996,-1.024417 0.10734,0.07938 0.21224,0.124912 0.23311,0.101174 0.0209,-0.02374 0.18056,0.14135 0.35488,0.366862 0.17431,0.225512 0.36532,0.410022 0.42446,0.410022 0.14843,0 0.13783,-0.04445 -0.1029,-0.431602 -0.11573,-0.186122 -0.21042,-0.377834 -0.21042,-0.426026 0,-0.111961 0.44594,0.02218 0.84101,0.252985 0.1581,0.09237 0.31285,0.147115 0.34387,0.121661 0.031,-0.02545 0.18517,0.09223 0.34255,0.261512 0.31415,0.33793 0.41807,0.374074 0.51006,0.177409 0.0417,-0.08911 -0.10401,-0.218889 -0.46031,-0.410022 -0.28671,-0.153802 -0.52214,-0.344165 -0.52318,-0.423028 -10e-4,-0.07886 0.14877,-0.247392 0.3329,-0.37451 0.41058,-0.283452 0.85545,-0.246281 1.22935,0.102721 0.21474,0.200432 0.24045,0.291584 0.18692,0.662465 -0.0732,0.507165 -0.19857,0.648045 -0.434,0.48774 -0.0906,-0.06172 -0.19711,-0.08573 -0.23658,-0.05335 -0.0395,0.03238 0.12779,0.208535 0.37169,0.39145 0.77577,0.5818 1.11589,1.475334 0.81094,2.130456 -0.1725,0.370575 -0.17243,0.411561 10e-4,0.794741 0.10067,0.222208 0.27155,0.525133 0.37974,0.673165 0.29336,0.401431 0.24627,0.528563 -0.30306,0.81813 -0.43809,0.230925 -0.57116,0.25892 -1.07842,0.22686 -0.48396,-0.03059 -0.80136,-0.141115 -1.93939,-0.675356 -0.92681,-0.435083 -1.55076,-0.797062 -1.95665,-1.135127 -0.32776,-0.272988 -0.62805,-0.496342 -0.6673,-0.496342 -0.13426,0 0.28052,0.558614 0.59206,0.797386 l 0.31114,0.238459 -0.30046,3.19e-4 c -0.16525,1.82e-4 -0.45718,0.07872 -0.64872,0.174528 -0.19154,0.09581 -0.38551,0.155316 -0.43105,0.132228 -0.0455,-0.02308 -0.21563,0.0718 -0.37801,0.210847 -0.16237,0.139054 -0.32872,0.235841 -0.36966,0.215085 -0.075,-0.038 -0.33166,0.402219 -0.49119,0.842341 -0.0473,0.13056 -0.1334,0.235089 -0.19126,0.232286 -0.14255,-0.0069 -0.2399,0.306917 -0.252549,0.814128 -0.0096,0.383418 -0.02617,0.410122 -0.188,0.302122 -0.153664,-0.10255 -0.169096,-0.09999 -0.114847,0.01906 0.145298,0.318841 0.210514,1.114118 0.09136,1.114118 -0.224156,0 0.198228,0.518089 0.618876,0.7591 0.46991,0.269237 0.66131,0.546645 0.57403,0.831952 -0.0493,0.161078 -0.15467,0.210545 -0.54124,0.254015 -0.682016,0.0767 -2.355389,0.05685 -2.620798,-0.03108 z m 1.195675,-0.406141 c -0.09782,-0.08026 -0.207397,-0.121686 -0.243503,-0.09206 -0.103546,0.08496 0.05545,0.237987 0.247207,0.237987 0.160601,0 0.160318,-0.01135 -0.0036,-0.145923 z m 0.727733,-0.06615 c -0.06727,-0.143862 -0.384547,-0.186081 -0.384547,-0.05117 0,0.08898 0.340997,0.271219 0.40667,0.217339 0.02211,-0.01813 0.01211,-0.0929 -0.02211,-0.166166 z m -6.221523,-0.04485 c -0.103503,-0.09383 -0.231503,-0.148641 -0.284446,-0.121795 -0.131169,0.06651 0.109386,0.292401 0.311387,0.292401 0.135761,0 0.131503,-0.02696 -0.02696,-0.170606 z m 0.681626,0.03841 c 0,-0.139155 -0.280028,-0.271079 -0.387767,-0.182681 -0.07494,0.06148 0.162818,0.314871 0.295441,0.314871 0.05078,0 0.09233,-0.05948 0.09233,-0.13219 z m 0.472428,-0.18122 c -0.294941,-0.176943 -0.434707,-0.02651 -0.150682,0.162186 0.18078,0.120102 0.262934,0.136419 0.294583,0.05851 0.02414,-0.05942 -0.04061,-0.158735 -0.143901,-0.220699 z m 5.629832,0.140769 c -0.11418,-0.17504 -0.420848,-0.241067 -0.420848,-0.09061 0,0.08301 0.298908,0.255798 0.450848,0.260625 0.0455,0.0014 0.032,-0.07506 -0.03,-0.170015 z m 0.42295,-0.04107 c -0.0732,-0.07236 -0.18197,-0.131567 -0.24172,-0.131567 -0.0597,0 -0.0227,0.07793 0.0824,0.17317 0.21758,0.197259 0.36265,0.159383 0.15934,-0.04161 z m -5.578308,-0.04525 c -0.111202,-0.170477 -0.315634,-0.237567 -0.315634,-0.103585 0,0.09078 0.228513,0.276226 0.34038,0.276226 0.04833,0 0.03718,-0.07769 -0.02473,-0.172641 z m 2.318589,-1.310221 c -0.0694,-0.318608 -0.193369,-0.625034 -0.275484,-0.680947 -0.08247,-0.05616 -0.152013,-0.261149 -0.155365,-0.457953 -0.0032,-0.195961 -0.04235,-0.51167 -0.0867,-0.701575 l -0.08064,-0.345282 -0.123136,0.345282 c -0.06772,0.189905 -0.123395,0.45559 -0.12372,0.59041 -3.98e-4,0.237839 0.545014,1.650575 0.772067,1.999203 0.111807,0.171673 0.112682,0.17168 0.155795,0.0014 0.02386,-0.09419 -0.0134,-0.431925 -0.08282,-0.750532 z m -0.782288,-2.193522 c 0.08289,-0.162756 0.147083,-0.579789 0.147083,-0.955485 0,-0.604653 -0.01435,-0.651086 -0.154427,-0.499115 -0.142012,0.154087 -0.146832,0.145003 -0.05995,-0.112983 0.05758,-0.170998 0.05626,-0.280541 -0.0032,-0.280541 -0.05383,0 -0.09787,0.04532 -0.09787,0.100707 0,0.05539 -0.02625,0.07919 -0.05828,0.05289 -0.03205,-0.0263 0.06256,-0.291797 0.210249,-0.59 0.147687,-0.298202 0.249712,-0.557621 0.226716,-0.576486 -0.07415,-0.06084 -0.556315,0.528967 -0.679793,0.831544 -0.153325,0.375723 -0.161004,1.248298 -0.0103,1.171886 0.07096,-0.03598 0.08544,0.02292 0.0412,0.167547 -0.03754,0.122669 -0.0276,0.22301 0.02207,0.22298 0.04967,-3e-5 0.07351,0.199002 0.05298,0.442292 -0.04256,0.504174 0.114122,0.51484 0.363706,0.02476 z m 10.142147,-0.898599 c 0,-0.222877 0.18441,-0.29733 0.39255,-0.158492 0.14843,0.099 0.16384,0.09543 0.10883,-0.02521 -0.0352,-0.0773 -0.0196,-0.177078 0.0349,-0.221733 0.0618,-0.05071 -0.048,-0.284296 -0.29238,-0.622142 -0.3536,-0.488774 -0.40453,-0.526161 -0.52802,-0.387593 -0.0752,0.08435 -0.14042,0.252757 -0.14499,0.374243 -0.004,0.121485 -0.0333,0.169474 -0.0639,0.106641 -0.0365,-0.0748 -0.14255,-0.0093 -0.30733,0.189641 -0.31574,0.38122 -0.31439,0.405453 0.0376,0.674566 0.46487,0.355374 0.76278,0.382745 0.76278,0.07008 z M 30.055387,31.608799 c 0.398397,-0.510114 0.571597,-0.805173 0.495344,-0.84384 -0.07138,-0.03619 0.0499,-0.154491 0.309907,-0.302327 0.537566,-0.305645 0.471481,-0.379849 -0.126703,-0.142268 -0.544695,0.216337 -1.444018,0.931895 -1.04755,0.833493 l 0.243592,-0.06046 -0.205509,0.331307 c -0.239075,0.385425 -0.454481,0.981032 -0.352102,0.973594 0.03873,-0.0028 0.346097,-0.358089 0.683021,-0.789499 z m 9.393447,0.213752 c -0.10696,-0.08775 -0.1952,0.04436 -0.10745,0.160848 0.0663,0.088 0.0911,0.08807 0.12671,3.59e-4 0.0243,-0.05997 0.0157,-0.132512 -0.0193,-0.161195 z m 0.75922,-1.728207 c -0.0189,-0.08308 -0.19491,-0.216891 -0.39118,-0.29735 -0.19627,-0.08046 -0.40682,-0.187281 -0.46788,-0.237381 -0.28779,-0.236115 -0.25168,-0.0527 0.0503,0.255624 0.23604,0.240991 0.36416,0.314113 0.42014,0.2398 0.0594,-0.07885 0.0988,-0.0679 0.15006,0.04173 0.091,0.194552 0.28285,0.192606 0.23853,-0.0024 z m -0.82279,-0.05417 c 0,-0.01793 -0.0721,-0.08169 -0.16023,-0.141691 -0.13397,-0.09122 -0.14936,-0.08588 -0.0939,0.03259 0.0566,0.120998 0.25418,0.205807 0.25418,0.109099 z m -3.84022,8.775306 c -0.60637,-0.120862 -1.21067,-0.819536 -1.03453,-1.196118 0.0317,-0.06767 0.0147,-0.123041 -0.0376,-0.123041 -0.0523,0 -0.0878,-0.233065 -0.0788,-0.517922 0.009,-0.284858 -0.0278,-0.517923 -0.0815,-0.517923 -0.0577,0 -0.0668,-0.203389 -0.0223,-0.495764 0.0715,-0.469822 0.0657,-0.489054 -0.11282,-0.367538 -0.17133,0.116666 -0.18299,0.112725 -0.12937,-0.04374 0.0324,-0.09458 0.0912,-0.365673 0.13057,-0.60243 0.0394,-0.236755 0.13322,-0.528178 0.2085,-0.647606 0.17801,-0.282433 0.57925,-0.584352 0.57925,-0.43587 0,0.06036 0.18952,-0.03073 0.42115,-0.202423 0.35096,-0.260144 0.49917,-0.312165 0.88934,-0.312165 0.54431,0 0.98012,0.140174 1.04713,0.336801 0.13507,0.396323 0.18402,1.062918 0.074,1.00711 -0.081,-0.04107 -0.11743,0.10809 -0.11854,0.485303 -0.001,0.401484 -0.0302,0.510571 -0.11051,0.415117 -0.08,-0.09511 -0.1005,-0.01207 -0.0773,0.312829 0.0233,0.326332 -0.003,0.431423 -0.0999,0.400787 -0.18727,-0.05913 -0.17331,0.763612 0.0194,1.141973 0.10467,0.205508 0.24166,0.313993 0.44716,0.354103 0.42218,0.08241 0.6645,0.283901 0.6645,0.552562 0,0.419428 -0.26998,0.519083 -1.37603,0.50791 -0.54517,-0.0055 -1.08591,-0.02889 -1.20165,-0.05196 z m 1.10472,-0.542275 c -0.11121,-0.170477 -0.31563,-0.237567 -0.31563,-0.103584 0,0.09078 0.22851,0.276225 0.34037,0.276225 0.0483,0 0.0372,-0.07769 -0.0247,-0.172641 z m 0.56989,-0.0308 c -0.0365,-0.07801 -0.13963,-0.141836 -0.22921,-0.141836 -0.13766,0 -0.13331,0.0268 0.0281,0.17317 0.21464,0.194598 0.30047,0.181223 0.20105,-0.03133 z m 0.41506,-0.01236 c -0.0333,-0.07121 -0.13231,-0.129481 -0.22,-0.129481 -0.12979,0 -0.13509,0.02408 -0.0285,0.129481 0.072,0.07121 0.17104,0.129481 0.22001,0.129481 0.0489,0 0.0617,-0.05826 0.0285,-0.129481 z"
         id="path323" /></g></g></svg>
