<?xml version="1.0" encoding="UTF-8" standalone="no"?>
<!-- Created with Inkscape (http://www.inkscape.org/) -->

<svg
   width="5.0000019in"
   height="2.8142781in"
   viewBox="0 0 127.00004 71.482662"
   version="1.1"
   id="svg5"
   xml:space="preserve"
   inkscape:export-filename="Bison.svg"
   inkscape:export-xdpi="96"
   inkscape:export-ydpi="96"
   sodipodi:docname="lynx_logo.svg"
   inkscape:version="1.1.2 (b8e25be833, 2022-02-05)"
   xmlns:inkscape="http://www.inkscape.org/namespaces/inkscape"
   xmlns:sodipodi="http://sodipodi.sourceforge.net/DTD/sodipodi-0.dtd"
   xmlns="http://www.w3.org/2000/svg"
   xmlns:svg="http://www.w3.org/2000/svg"><sodipodi:namedview
     id="namedview7"
     pagecolor="#ffffff"
     bordercolor="#000000"
     borderopacity="0.25"
     inkscape:showpageshadow="2"
     inkscape:pageopacity="0.0"
     inkscape:pagecheckerboard="0"
     inkscape:deskcolor="#d1d1d1"
     inkscape:document-units="mm"
     showgrid="false"
     inkscape:pageshadow="2"
     fit-margin-top="0"
     fit-margin-left="0"
     fit-margin-right="0"
     fit-margin-bottom="0"
     units="in"
     inkscape:zoom="0.68506594"
     inkscape:cx="335.00425"
     inkscape:cy="518.92815"
     inkscape:window-width="1920"
     inkscape:window-height="991"
     inkscape:window-x="-9"
     inkscape:window-y="-9"
     inkscape:window-maximized="1"
     inkscape:current-layer="layer1" /><defs
     id="defs2" /><g
     inkscape:label="Layer 1"
     inkscape:groupmode="layer"
     id="layer1"
     transform="translate(3.3261522,-5.7904353)"><path
       style="fill:#000000;stroke-width:0.902432"
       d="m 49.448901,74.45864 c 0.62043,-0.25034 1.128048,-1.23353 1.128048,-2.18484 0,-1.40866 -0.652581,-1.72966 -3.51625,-1.72966 -2.8822,0 -4.0115,-0.56406 -6.26275,-3.12811 -3.17758,-3.61906 -3.0602,-4.6755 1.52979,-13.76678 1.55904,-3.08795 2.83461,-5.76481 2.83461,-5.94858 0,-0.18375 -1.67249,-0.83518 -3.71666,-1.44765 -3.56203,-1.0672 -3.89984,-0.98866 -8.11904,1.88764 -4.01978,2.74037 -4.35701,3.24356 -3.88052,5.79038 0.287,1.53408 0.0656,4.48372 -0.49214,6.55477 -0.55768,2.07107 -0.69227,4.32355 -0.29909,5.00553 0.39319,0.682 3.02253,3.1131 5.843,5.40247 4.57028,3.70969 5.60104,4.15473 9.47553,4.09125 2.3911,-0.0392 4.85506,-0.27608 5.475472,-0.52642 z"
       id="path3141" /><path
       style="fill:#000000;stroke-width:0.902432"
       d="m 8.162609,76.94641 c 1.62602,-0.44529 2.25608,-1.23651 2.25608,-2.83323 0,-1.68428 -0.54087,-2.28479 -2.25608,-2.50483 -2.80679,-0.36012 -4.51217,-2.48003 -4.51217,-5.60899 0,-3.18362 1.87698,-4.64754 9.76259,-7.61429 6.25559,-2.3535 9.26387,-4.11171 19.36805,-11.31989 l 4.31373,-3.07735 6.06424,1.55411 c 3.71486,0.952 9.460733,1.55117 14.831226,1.54652 7.4427,-0.006 8.88985,0.23098 9.58055,1.57168 0.44747,0.8686 1.04075,6.41668 1.31839,12.3291 0.62671,13.34566 1.66376,15.28198 8.40087,15.68546 2.59858,0.15556 5.0788,-0.21651 6.01715,-0.90283 1.48923,-1.08923 1.49698,-1.30946 0.1155,-3.2818 -1.05131,-1.50097 -2.10335,-1.99524 -3.62684,-1.70402 -1.90741,0.36462 -2.14596,0.0807 -2.14596,-2.55429 0,-6.63939 2.08233,-12.4912 6.16946,-17.33752 2.20777,-2.61789 4.23383,-4.54006 4.50237,-4.27153 0.26854,0.26855 0.008,0.96879 -0.57963,1.55614 -2.31294,2.31294 -0.73698,4.48644 9.79557,13.50974 11.051525,9.4679 14.121845,11.44961 17.851555,11.52215 2.95121,0.0574 2.31579,-3.62148 -0.89004,-5.15305 -2.22864,-1.06474 -4.57051,-3.82108 -12.27561,-14.44823 -3.141405,-4.33274 -3.210405,-5.44324 -0.88229,-14.199245 l 0.95979,-3.609735 0.65507,2.978705 c 0.91334,4.153035 1.19164,4.225785 4.2947,1.122724 2.8983,-2.898285 6.18706,-3.519818 9.07654,-1.715303 1.3409,0.837403 2.19112,0.634819 4.49992,-1.072138 2.81074,-2.07807 3.69949,-4.741348 1.94423,-5.826148 -0.49634,-0.306762 -0.90244,-1.935969 -0.90244,-3.620479 0,-2.485619 -0.67691,-3.606713 -3.59244,-5.949692 -1.97585,-1.587834 -3.85131,-3.738967 -4.16769,-4.780298 -0.77235,-2.542081 -3.12096,-5.126288 -4.10577,-4.517638 -0.43753,0.270405 -1.37777,1.885209 -2.08943,3.588451 -0.71166,1.703243 -1.82227,3.102687 -2.46802,3.109877 -0.64575,0.0072 -6.368625,-0.86782 -12.717515,-1.944463 -10.52983,-1.785648 -12.20837,-1.854096 -19.116,-0.779529 -8.94973,1.392243 -16.81538,0.881774 -28.430296,-1.845087 -9.81109,-2.303369 -15.58319,-2.042482 -21.81688,0.986081 -2.87049,1.39459 -4.90756,1.826629 -6.60446,1.400733 -2.83149,-0.710659 -7.11354,-5.076127 -8.67369,-8.842684 -0.59065,-1.425951 -1.48931,-2.454167 -1.99705,-2.284924 -1.4118,0.470601 -4.24432,6.232756 -4.24432,8.634175 0,5.541978 5.68758,11.870704 10.6753,11.878714 2.26498,0.0032 2.26884,0.525605 0.0679,9.168276 -1.55838,6.119337 -11.11383,18.482837 -15.38537,19.906697 -1.75863,0.58622 1.24073,17.58878 3.481,19.73283 2.06307,1.97447 4.62781,2.59765 7.47824,1.81705 z"
       id="path435" /></g></svg>
