<?xml version="1.0" encoding="UTF-8" standalone="no"?>
<!-- Created with Inkscape (http://www.inkscape.org/) -->

<svg
   width="6.2541666in"
   height="8.3546295in"
   viewBox="0 0 158.85583 212.20759"
   version="1.1"
   id="svg5"
   xml:space="preserve"
   inkscape:export-filename="Bison.svg"
   inkscape:export-xdpi="96"
   inkscape:export-ydpi="96"
   sodipodi:docname="Moose.svg"
   inkscape:version="1.1.2 (b8e25be833, 2022-02-05)"
   xmlns:inkscape="http://www.inkscape.org/namespaces/inkscape"
   xmlns:sodipodi="http://sodipodi.sourceforge.net/DTD/sodipodi-0.dtd"
   xmlns="http://www.w3.org/2000/svg"
   xmlns:svg="http://www.w3.org/2000/svg"><sodipodi:namedview
     id="namedview7"
     pagecolor="#ffffff"
     bordercolor="#000000"
     borderopacity="0.25"
     inkscape:showpageshadow="2"
     inkscape:pageopacity="0.0"
     inkscape:pagecheckerboard="0"
     inkscape:deskcolor="#d1d1d1"
     inkscape:document-units="mm"
     showgrid="false"
     inkscape:pageshadow="2"
     fit-margin-top="0"
     fit-margin-left="0"
     fit-margin-right="0"
     fit-margin-bottom="0"
     units="in"
     inkscape:zoom="0.68506594"
     inkscape:cx="73.715532"
     inkscape:cy="461.99932"
     inkscape:window-width="1920"
     inkscape:window-height="991"
     inkscape:window-x="-9"
     inkscape:window-y="-9"
     inkscape:window-maximized="1"
     inkscape:current-layer="layer1" /><defs
     id="defs2" /><g
     inkscape:label="Layer 1"
     inkscape:groupmode="layer"
     id="layer1"
     transform="translate(-25.247231,-18.841231)"><g
       inkscape:label="Layer 1"
       id="layer1-6"
       transform="matrix(2.5632101,0,0,2.5632101,-423.93886,-225.31797)"><path
         style="fill:#000000;fill-opacity:1;stroke-width:0.264583"
         d="m 205.37152,177.8 c -1.19815,-0.47989 -2.15388,-1.34828 -4.86838,-4.4235 -17.08989,-19.36092 -24.22054,-31.77015 -25.3915,-44.18802 -1.03907,-11.01909 4.44217,-22.13559 14.08189,-28.55949 8.98085,-5.98484 19.99018,-7.028397 29.96384,-2.84023 10.22519,4.29379 16.4749,13.58073 17.67275,26.26135 0.85087,9.00734 -2.41005,18.99499 -10.33035,31.64015 -3.92176,6.2613 -13.29293,18.55491 -15.82664,20.76226 -1.61127,1.40373 -3.78303,1.95572 -5.30161,1.34748 z"
         id="path37" /><path
         style="fill:#ffffff;fill-opacity:1;stroke-width:0.471153"
         d="m 198.90864,152.92917 c -9.51189,-2.619 -16.58825,-9.63695 -19.51043,-19.34938 -0.57786,-1.92067 -0.84607,-4.36863 -0.84952,-7.7539 -0.005,-5.6686 0.97021,-9.27307 3.77945,-13.95808 7.16448,-11.948316 22.72994,-16.64818 35.24637,-10.6424 7.36157,3.53232 12.94523,10.19173 14.87637,17.74238 4.62338,18.07724 -8.20546,34.76095 -26.61343,34.6104 -2.59134,-0.0212 -5.7093,-0.31324 -6.92881,-0.64902 z"
         id="path365" /></g><path
       style="fill:#000000;stroke-width:0.205736"
       d="m 126.6075,149.95008 c 0.12321,-0.23024 0.22402,-0.55399 0.22402,-0.71943 0,-0.46076 -1.30523,-1.50474 -2.86053,-2.28798 -1.72019,-0.86627 -3.23379,-2.37216 -3.52543,-3.50746 -0.11627,-0.45262 -0.42914,-1.47101 -0.69525,-2.2631 -0.26612,-0.79208 -0.73655,-2.92476 -1.04544,-4.73928 -0.52399,-3.07835 -0.54551,-3.43636 -0.32155,-5.34914 0.4888,-4.17448 0.49435,-4.51931 0.098,-6.09482 -0.65765,-2.61411 -0.51932,-4.41791 0.68381,-8.91653 0.91574,-3.42399 1.05683,-4.22045 1.13719,-6.41946 l 0.0917,-2.51048 1.88295,-1.80997 c 1.65952,-1.59524 1.90311,-1.92119 2.05315,-2.7473 0.127,-0.69924 0.48677,-1.32632 1.41638,-2.46883 0.68538,-0.842342 1.49643,-1.762971 1.80233,-2.045858 0.78971,-0.730298 1.05915,-1.358205 1.22207,-2.848055 0.18113,-1.656019 0.42822,-2.321277 0.80804,-2.175517 0.32952,0.126454 2.60169,-1.906142 2.60169,-2.327388 0,-0.145759 0.27775,-0.555643 0.6172,-0.910863 0.33948,-0.35522 0.61722,-0.852232 0.61722,-1.104481 0,-0.252247 0.12979,-0.566353 0.28843,-0.698008 0.15862,-0.131645 0.36211,-0.490159 0.45219,-0.796692 0.11709,-0.398445 0.20124,0.08855 0.29518,1.707905 0.13963,2.407352 0.30228,2.911907 1.26787,3.93301 0.54361,0.574867 0.68553,0.62601 1.33248,0.48009 1.6597,-0.374313 2.4567,-2.157552 2.21299,-4.951383 l -0.1416,-1.623265 1.20039,-0.530867 c 1.99691,-0.883131 2.27348,-1.175804 3.50566,-3.709805 0.86084,-1.770346 1.28916,-2.427016 1.73257,-2.656315 0.90569,-0.468349 1.28604,-0.379015 2.64476,0.621221 1.43869,1.05909 1.90088,1.134282 2.52936,0.411469 0.37896,-0.435865 0.62565,-0.514343 1.61677,-0.514343 0.84376,0 1.31014,-0.110572 1.67417,-0.396919 0.38858,-0.305648 0.70353,-0.370246 1.36965,-0.280902 1.39928,0.18769 2.10335,-0.818931 1.4399,-2.058614 -0.13136,-0.245465 -0.3615,-1.095753 -0.5114,-1.88953 -0.31638,-1.675237 -1.43505,-4.07888 -2.27043,-4.878297 -0.31882,-0.305117 -1.45922,-1.036956 -2.53419,-1.626308 l -1.95448,-1.071553 -3.49752,-0.377562 c -3.53403,-0.381508 -5.24386,-0.810772 -6.24447,-1.567716 l -0.54481,-0.412139 1.02868,-0.14615 c 0.56578,-0.08039 1.61531,-0.276801 2.33229,-0.436482 0.717,-0.159683 1.38629,-0.239239 1.48734,-0.17679 0.10103,0.06245 0.39108,0.0025 0.64452,-0.133075 0.60087,-0.321576 4.59011,-1.195613 5.50052,-1.205157 0.3886,-0.0041 1.09256,-0.194269 1.56434,-0.422656 1.10547,-0.535146 3.47947,-2.993932 4.00159,-4.144497 0.57024,-1.256643 0.5715,-4.077613 0.002,-5.521307 -0.2263,-0.574151 -0.41565,-1.341373 -0.42076,-1.704937 -0.0118,-0.836118 -0.83336,-2.448136 -1.14563,-2.247809 -0.16684,0.107028 -0.15252,1.007968 0.053,3.335539 0.32383,3.667395 0.19786,4.477232 -0.89505,5.754318 -0.58588,0.684609 -2.63282,1.822884 -2.8634,1.592302 -0.0487,-0.04867 0.33658,-0.519666 0.85611,-1.046655 1.44466,-1.465386 1.83648,-2.510734 1.82161,-4.859815 -0.0144,-2.270252 -0.39221,-3.564451 -1.07001,-3.665167 -0.5043,-0.07493 -0.57672,0.154175 -0.73575,2.327884 -0.058,0.792083 -0.24867,1.913188 -0.42382,2.491347 -0.27513,0.90817 -0.44362,1.117596 -1.2384,1.539221 -1.05865,0.561609 -1.23998,0.466588 -1.43794,-0.753462 -0.12387,-0.763291 -0.0646,-0.923863 0.66743,-1.809785 1.11927,-1.354478 2.2077,-4.776111 1.9999,-6.287012 -0.12595,-0.91572 -0.18623,-1.014757 -0.51166,-0.840589 -0.20288,0.108584 -0.43169,0.454468 -0.50843,0.768628 -0.0769,0.31416 -0.35885,0.895233 -0.6269,1.291275 -0.26805,0.396042 -0.64234,1.112944 -0.83175,1.593118 -0.37579,0.952669 -0.71224,0.982625 -0.71224,0.06341 0,-0.32025 -0.17028,-0.792567 -0.37841,-1.049594 l -0.37842,-0.467321 -0.44841,0.448409 c -0.41913,0.419126 -0.43955,0.574309 -0.31289,2.376353 l 0.13553,1.927943 -0.67064,0.147296 c -0.50809,0.111596 -0.8018,0.04982 -1.21176,-0.254843 -0.67958,-0.505039 -0.76235,-1.22709 -0.34633,-3.020923 0.17575,-0.757855 0.31955,-1.691851 0.31955,-2.075546 0,-0.72566 -0.36688,-1.745668 -0.62789,-1.745668 -0.24772,0 -0.75299,1.466668 -0.91418,2.65365 -0.1294,0.952884 -0.28166,1.23779 -1.07201,2.005924 -0.99243,0.964535 -1.21968,1.043225 -1.79591,0.621874 -0.35549,-0.259941 -0.35742,-0.33918 -0.0394,-1.607595 0.40888,-1.630344 0.42972,-2.927325 0.052,-3.240739 -0.51191,-0.424836 -0.91094,-0.03881 -1.05687,1.022455 -0.0768,0.557292 -0.20989,1.013261 -0.29611,1.013261 -0.0862,0 -0.20885,-0.689187 -0.27255,-1.531526 -0.0637,-0.842339 -0.25758,-1.791297 -0.43081,-2.108793 -0.17323,-0.317496 -0.47566,-0.878155 -0.67204,-1.245907 -0.1964,-0.367753 -0.43252,-0.668641 -0.52472,-0.668641 -0.0922,0 -0.16763,1.25183 -0.16763,2.781844 v 2.781844 l -0.54272,0.247281 c -0.50706,0.231034 -0.59492,0.188452 -1.33728,-0.648079 -0.43701,-0.492447 -0.79456,-1.007973 -0.79456,-1.145614 0,-0.137643 -0.18343,-0.416257 -0.40761,-0.619143 -0.5052,-0.457206 -0.9245,-0.183668 -1.10547,0.721197 -0.0931,0.465612 -0.23482,0.611837 -0.59057,0.609444 -0.6188,-0.0042 -0.91778,-0.215802 -1.01283,-0.716926 -0.0521,-0.275327 -0.24124,-0.411472 -0.57123,-0.411472 -0.37864,0 -0.5485,0.164347 -0.73144,0.707656 -0.30689,0.91153 -0.56167,0.979245 -1.21734,0.323569 -0.4383,-0.438303 -0.60608,-0.493636 -0.94568,-0.311885 -0.22707,0.121521 -0.41411,0.425999 -0.41566,0.676616 -0.005,0.630788 -0.22083,1.381478 -0.39924,1.381478 -0.0816,0 -0.3221,-0.532341 -0.5345,-1.182981 -0.21239,-0.650639 -0.53639,-1.414433 -0.72001,-1.697321 -0.18361,-0.282887 -0.39229,-0.676355 -0.46373,-0.874377 -0.0715,-0.198021 -0.23754,-0.360037 -0.36914,-0.360037 -0.2491,0 -0.1548,2.509027 0.129,3.432136 0.11691,0.380253 0.0724,0.431816 -0.29049,0.336904 -1.27928,-0.334539 -1.94775,0.606995 -0.93245,1.313316 1.13694,0.790927 1.93748,1.557432 1.93748,1.855101 0,0.228946 -0.12244,0.272641 -0.4629,0.165189 -1.4528,-0.458519 -1.56932,-0.422493 -2.03449,0.629094 -0.36879,0.833713 -0.41873,1.234207 -0.31718,2.543787 0.0663,0.854854 0.26556,1.964474 0.44284,2.465821 0.71661,2.026471 -0.75661,1.193554 -1.79422,-1.014407 -0.34576,-0.735745 -0.46197,-1.49601 -0.56606,-3.703244 -0.14406,-3.05494 -0.25924,-3.414909 -1.69507,-5.297698 -0.78082,-1.023885 -1.39384,-1.387235 -1.3884,-0.822944 8.4e-4,0.141444 0.283,1.0904 0.62584,2.108793 0.54161,1.608706 0.60555,2.027061 0.48737,3.188905 -0.14274,1.403464 -0.55506,2.674566 -0.86757,2.674566 -0.46322,0 -1.41321,-1.635748 -2.14495,-3.69335 -0.34276,-0.963845 -0.39513,-1.557578 -0.33653,-3.816008 0.0382,-1.47101 0.0703,-3.87812 0.0712,-5.349131 0.002,-2.648598 -0.005,-2.688456 -0.7182,-4.105304 -0.6385,-1.268627 -0.81847,-1.465514 -1.58844,-1.737639 -0.47759,-0.168796 -0.92191,-0.253321 -0.98741,-0.187835 -0.0656,0.06549 0.11682,0.466654 0.40512,0.891485 0.79437,1.170557 1.02068,2.235617 1.02648,4.830689 0.005,2.228938 -0.29067,3.942486 -1.25454,7.270969 -0.0604,0.208352 -0.44418,0.518573 -0.85299,0.689382 -0.7143,0.298458 -0.75803,0.291711 -1.122,-0.173083 -0.20828,-0.266005 -0.73283,-0.860712 -1.16563,-1.321569 -0.43279,-0.46086 -0.99321,-1.29409 -1.24537,-1.851623 -0.60694,-1.341963 -2.41687,-6.835583 -2.808,-8.523056 -0.17048,-0.735506 -0.45658,-1.563561 -0.63577,-1.840124 l -0.3258,-0.50284 -0.28112,1.098467 c -0.27035,1.056379 -0.24994,1.225627 0.5325,4.417165 0.44748,1.825283 0.8775,4.023792 0.95559,4.885576 0.13315,1.469211 0.11533,1.575335 -0.28556,1.702576 -0.50177,0.159253 -1.39786,-0.261677 -2.01404,-0.946065 -0.46712,-0.518836 -2.3225,-3.260889 -2.73824,-4.046841 -0.26499,-0.500951 -0.67711,-3.362231 -0.649704,-4.510744 0.01111,-0.464168 -0.07833,-0.668642 -0.292523,-0.668642 -0.169659,0 -0.308477,0.164563 -0.308477,0.365694 0,0.201133 -0.126087,0.548311 -0.280191,0.77151 -0.154114,0.223198 -0.391547,1.17587 -0.527634,2.117048 -0.222342,1.537666 -0.197704,2.261315 0.114884,3.374129 0.08777,0.312457 0.02435,0.327298 -0.547475,0.127982 -1.157652,-0.403558 -1.631316,0.675252 -0.547772,1.247614 0.369965,0.195428 0.377048,0.214936 0.03944,0.10868 -1.094904,-0.344599 -1.892757,-0.340853 -2.027205,0.0095 -0.189751,0.494494 -0.03852,0.660269 1.167382,1.279234 l 1.065554,0.546944 -0.782094,0.304032 c -0.659804,0.256493 -0.772391,0.387502 -0.720069,0.83786 0.0537,0.46257 0.171862,0.542252 0.88496,0.596929 0.505875,0.03879 0.941846,0.213956 1.13155,0.45464 0.169724,0.215346 1.411057,1.223711 2.758504,2.240815 1.93441,1.460168 3.31966,2.27888 6.58355,3.891023 2.2735,1.122963 4.92057,2.297707 5.88239,2.610545 2.2801,0.74162 3.03486,1.138 3.90899,2.052874 0.96313,1.008066 3.36457,2.779906 3.76769,2.779906 0.1775,0 0.37052,0.07732 0.42894,0.171833 0.13348,0.215977 -1.27781,0.904944 -1.53195,0.747873 -0.21262,-0.131408 -1.0433,0.261053 -1.27561,0.602677 -0.0846,0.124506 -0.10398,0.464889 -0.043,0.75641 0.0982,0.469149 0.0188,0.560487 -0.69208,0.795081 -0.6603,0.21792 -0.93815,0.216203 -1.56277,-0.0096 -0.53169,-0.192268 -0.80259,-0.208409 -0.90272,-0.05379 -0.17485,0.27 -1.85669,0.217577 -2.41347,-0.07523 -0.51744,-0.272116 -2.99784,0.04885 -3.28445,0.42502 -0.12689,0.166516 -0.58183,0.256574 -1.18693,0.234962 -0.86476,-0.03089 -0.9952,0.02077 -1.09924,0.435334 -0.0959,0.38233 -0.31666,0.50199 -1.17904,0.639259 -0.72563,0.115503 -1.0617,0.26582 -1.06324,0.475555 -0.002,0.198196 -0.16361,0.284171 -0.45844,0.24306 -0.2509,-0.03498 -0.66083,0.127032 -0.91093,0.360038 -0.2501,0.233007 -0.36783,0.425064 -0.26163,0.426797 0.42982,0.007 -0.46002,0.402252 -0.9122,0.405172 -0.422,0.0028 -0.45146,0.04729 -0.21758,0.329107 0.24116,0.290595 0.1602,0.322091 -0.74632,0.290322 -1.40882,-0.04938 -1.48228,-0.0268 -1.02896,0.316075 0.32727,0.247527 0.33996,0.302061 0.0703,0.302061 -0.18097,0 -0.770828,0.429374 -1.310785,0.954163 -1.33219,1.294736 -2.557477,1.801867 -5.948148,2.461891 -2.578003,0.501833 -3.284944,0.556672 -6.735618,0.522555 -2.120413,-0.02099 -4.093795,-0.128777 -4.385283,-0.239603 -0.986394,-0.375028 -6.697367,-0.239534 -9.308679,0.220854 -3.556204,0.626976 -9.560195,2.998598 -11.119464,4.392272 -0.679142,0.60702 -1.301842,1.904692 -1.226552,2.556065 0.05443,0.470973 0.172283,0.559189 0.818952,0.613029 l 0.755355,0.06289 -0.470312,1.377256 c -0.258673,0.757504 -0.816716,2.025335 -1.240111,2.817421 l -0.769788,1.440145 0.09584,2.05736 c 0.07795,1.673417 0.239613,2.479688 0.866297,4.320458 l 0.77046,2.26309 -0.09948,2.98317 c -0.115616,3.46746 -0.554213,5.00671 -1.94882,6.83948 -0.452573,0.59475 -1.222294,1.90712 -1.71049,2.91637 -0.488197,1.00926 -1.21659,2.25911 -1.618639,2.77744 -0.638212,0.82278 -0.748367,1.13831 -0.867678,2.48545 -0.189127,2.13552 -0.514489,4.28724 -0.777505,5.14203 -0.121644,0.39529 -0.221155,1.78102 -0.221155,3.07938 0,1.61602 -0.124521,2.88192 -0.39476,4.01321 -0.815648,3.41445 -1.045647,4.90942 -1.054356,6.85322 -0.0048,1.10004 -0.09887,2.4167 -0.208762,2.92589 -0.109892,0.5092 -0.298408,1.56929 -0.418924,2.35577 -0.150822,0.98423 -0.374328,1.6144 -0.717049,2.02171 -0.585919,0.69632 -0.592742,0.74473 -0.186649,1.32451 0.183918,0.26257 0.581458,0.4707 0.971562,0.50867 0.590585,0.0574 0.688074,0.16312 0.923498,1.00046 0.320763,1.14089 1.457698,2.37613 2.998277,3.25756 1.388737,0.79456 1.718073,0.80042 2.155444,0.0383 0.276791,-0.48228 0.450513,-0.58176 0.869534,-0.49796 0.366844,0.0734 0.643383,-0.0276 0.923556,-0.33718 0.363685,-0.40186 0.37255,-0.49068 0.09783,-0.98013 -0.16615,-0.29602 -0.876853,-0.91461 -1.579342,-1.37466 -0.817921,-0.53563 -1.324808,-1.0214 -1.409488,-1.35078 -0.0727,-0.28288 -0.326663,-1.16241 -0.564303,-1.95448 -0.43639,-1.45458 -0.475512,-2.36988 -0.373755,-8.74377 0.08544,-5.34984 0.891111,-8.20288 3.142771,-11.1288 0.312843,-0.40652 0.796549,-1.36656 1.074905,-2.13342 0.646725,-1.78172 1.972555,-3.69705 4.51405,-6.52111 1.476312,-1.64046 2.207688,-2.64858 2.706634,-3.73073 0.376032,-0.81558 0.996222,-1.91619 1.37822,-2.44583 0.685694,-0.95073 2.10355,-2.22594 2.474934,-2.22594 0.10514,0 0.520505,-0.25119 0.923042,-0.55823 l 0.731862,-0.55822 0.479798,0.60171 c 0.263882,0.33096 0.733971,1.0682 1.044626,1.63835 0.691516,1.26911 0.860961,3.51963 0.499247,6.63098 -0.171252,1.47308 -0.176939,2.56357 -0.0206,3.94397 0.152659,1.34754 0.151221,2.28149 -0.0048,3.17981 l -0.221038,1.27189 1.194689,2.37885 c 0.657078,1.30835 1.351441,2.74337 1.543039,3.18891 0.8523,1.98199 2.317512,6.86552 2.650391,8.83376 0.133968,0.79207 0.459319,1.86955 0.723008,2.39438 0.263688,0.52482 0.525588,1.17288 0.582003,1.44015 0.274633,1.30119 0.733436,3.01897 0.954163,3.57248 0.135261,0.33917 0.303695,1.16892 0.37431,1.8439 0.111962,1.07035 0.202288,1.26757 0.70662,1.54301 0.543686,0.29693 0.600518,0.28872 0.950771,-0.13719 l 0.372522,-0.45301 0.665562,0.8282 c 0.456929,0.56859 1.126298,1.03854 2.135281,1.49914 0.808327,0.36901 1.596754,0.82509 1.752051,1.01351 0.438046,0.53148 1.672138,0.39136 1.672138,-0.18984 0,-0.27334 0.387029,-0.42101 1.41914,-0.54152 0.27133,-0.0317 0.585853,-0.20527 0.698931,-0.38578 0.255192,-0.40733 0.02278,-1.42056 -0.325698,-1.42056 -0.616991,0 -3.612854,-1.72705 -4.771708,-2.75078 -0.953913,-0.84271 -1.555869,-1.63437 -2.435639,-3.20321 -0.642722,-1.14612 -1.168573,-2.30349 -1.168573,-2.57195 0,-0.26844 -0.269035,-1.08768 -0.597836,-1.82054 -0.634956,-1.4152 -1.099475,-3.32207 -1.463929,-6.00952 -0.122762,-0.90523 -0.415843,-2.43282 -0.651295,-3.39464 -0.3594,-1.46814 -0.390659,-1.88953 -0.194804,-2.62609 0.128311,-0.48253 0.235559,-2.14899 0.238319,-3.70324 0.003,-1.55425 0.0973,-3.22598 0.210065,-3.71494 0.112769,-0.48897 0.385983,-2.8398 0.607138,-5.22408 0.221164,-2.38428 0.446838,-4.37978 0.501512,-4.43446 0.05472,-0.0547 1.262709,0.47124 2.684532,1.1687 1.516115,0.7437 3.072284,1.35321 3.763184,1.47393 0.647931,0.11321 1.779824,0.35276 2.515337,0.53233 1.038953,0.25365 1.915608,0.29794 3.929674,0.19849 l 2.592392,-0.12802 0.258535,2.41666 c 0.142197,1.32915 0.216648,3.06471 0.165446,3.8568 -0.109671,1.69684 -1.079571,9.38057 -1.388354,10.99886 -0.117902,0.61793 -0.308819,1.96036 -0.424249,2.98316 -0.169168,1.49891 -0.386557,2.23877 -1.120672,3.81413 -0.500931,1.07497 -1.061646,2.64885 -1.246036,3.4975 -0.478617,2.20299 -1.284747,4.68815 -1.860314,5.73509 -0.56391,1.02573 -0.610046,1.43536 -0.22149,1.96673 0.230471,0.31518 0.346364,0.33497 0.737189,0.12579 0.768567,-0.41131 1.167456,0.12739 1.76642,2.38563 0.131494,0.49573 0.603612,0.72473 2.666407,1.29336 0.998529,0.27526 1.543995,0.33449 1.803076,0.19584 0.204301,-0.10933 0.695191,-0.13804 1.090881,-0.0639 1.57166,0.29485 1.77363,-0.83641 0.38984,-2.18336 -0.51828,-0.50447 -1.07614,-1.17181 -1.2397,-1.48299 -0.16356,-0.31117 -0.465816,-0.56577 -0.671686,-0.56577 -0.764975,0 -1.73045,-1.78721 -1.555967,-2.8803 0.04509,-0.28288 0.27271,-1.76419 0.50569,-3.29178 0.407445,-2.67149 1.266591,-6.30262 1.944283,-8.21751 0.17789,-0.50265 0.83995,-1.60014 1.47124,-2.43891 1.40814,-1.87086 1.81675,-2.78606 2.13142,-4.77377 0.40081,-2.53195 1.60452,-7.90405 1.98775,-8.8713 0.19638,-0.49563 0.88603,-1.82695 1.53259,-2.9585 0.64654,-1.13156 1.39342,-2.52027 1.65974,-3.08605 0.39033,-0.82928 0.5959,-1.04153 1.06059,-1.09498 0.99991,-0.115 1.09586,0.14248 1.23187,3.30571 0.0694,1.61297 0.22239,3.2561 0.34008,3.65139 0.11768,0.3953 0.21399,1.47958 0.21399,2.40956 0,1.23462 0.13806,2.12316 0.51171,3.29313 0.32887,1.02973 0.51266,2.08678 0.51433,2.95809 0.004,1.63477 0.67467,4.41502 1.23778,5.12488 0.90387,1.13942 1.10964,1.78273 1.38196,4.32045 0.35194,3.27958 0.63592,8.39617 0.65769,11.84936 0.0147,2.33537 0.067,2.73945 0.39322,3.03461 0.48953,0.443 0.71397,0.42935 1.16678,-0.0709 0.20481,-0.2263 0.50132,-0.41146 0.65893,-0.41146 0.3961,0 1.2578,0.96889 1.33492,1.50097 0.0627,0.4329 0.36868,0.56071 2.12087,0.88602 0.55562,0.10316 1.76046,0.14104 2.726,0.0857 0.19803,-0.0114 0.6527,0.0388 1.01038,0.11129 0.52396,0.10628 0.69389,0.0506 0.87438,-0.28669 z m 10.27949,-87.626242 c 0.33604,-0.424329 0.72009,-1.186543 0.85347,-1.693808 l 0.24247,-0.922299 0.4935,0.573733 c 0.57361,0.666849 0.62926,1.210687 0.16347,1.597257 -0.18152,0.150649 -0.41068,0.486018 -0.50924,0.745267 -0.14631,0.384809 -0.33304,0.47136 -1.01694,0.47136 h -0.83773 z m -6.908,-2.910354 c -0.0228,-0.327254 -0.36997,-1.214281 -0.77151,-1.971167 -0.69351,-1.307263 -0.92086,-2.075172 -0.56989,-1.924904 0.088,0.03771 0.68988,0.293922 1.33728,0.569341 1.3185,0.560916 1.35569,0.661791 0.88951,2.412681 -0.43444,1.63167 -0.80851,2.017849 -0.88539,0.914049 z"
       id="path365-2" /></g></svg>
