<?xml version="1.0" encoding="UTF-8" standalone="no"?>
<!-- Created with Inkscape (http://www.inkscape.org/) -->

<svg
   width="6.2541666in"
   height="8.3546295in"
   viewBox="0 0 158.85583 212.20759"
   version="1.1"
   id="svg5"
   xml:space="preserve"
   inkscape:export-filename="Bison.svg"
   inkscape:export-xdpi="96"
   inkscape:export-ydpi="96"
   sodipodi:docname="Otter.svg"
   inkscape:version="1.1.2 (b8e25be833, 2022-02-05)"
   xmlns:inkscape="http://www.inkscape.org/namespaces/inkscape"
   xmlns:sodipodi="http://sodipodi.sourceforge.net/DTD/sodipodi-0.dtd"
   xmlns="http://www.w3.org/2000/svg"
   xmlns:svg="http://www.w3.org/2000/svg"><sodipodi:namedview
     id="namedview7"
     pagecolor="#ffffff"
     bordercolor="#000000"
     borderopacity="0.25"
     inkscape:showpageshadow="2"
     inkscape:pageopacity="0.0"
     inkscape:pagecheckerboard="0"
     inkscape:deskcolor="#d1d1d1"
     inkscape:document-units="mm"
     showgrid="false"
     inkscape:pageshadow="2"
     fit-margin-top="0"
     fit-margin-left="0"
     fit-margin-right="0"
     fit-margin-bottom="0"
     units="in"
     inkscape:zoom="0.68506594"
     inkscape:cx="226.98545"
     inkscape:cy="467.83818"
     inkscape:window-width="1920"
     inkscape:window-height="991"
     inkscape:window-x="-9"
     inkscape:window-y="-9"
     inkscape:window-maximized="1"
     inkscape:current-layer="layer1" /><defs
     id="defs2" /><g
     inkscape:label="Layer 1"
     inkscape:groupmode="layer"
     id="layer1"
     transform="translate(-25.379787,-19.333018)"><g
       inkscape:label="Layer 1"
       id="layer1-0"
       transform="translate(10.970496,0.49178688)"><g
         inkscape:label="Layer 1"
         id="layer1-6-5"
         transform="matrix(2.5632101,0,0,2.5632101,-434.11718,-225.31797)"><path
           style="fill:#000000;fill-opacity:1;stroke-width:0.264583"
           d="m 205.37152,177.8 c -1.19815,-0.47989 -2.15388,-1.34828 -4.86838,-4.4235 -17.08989,-19.36092 -24.22054,-31.77015 -25.3915,-44.18802 -1.03907,-11.01909 4.44217,-22.13559 14.08189,-28.55949 8.98085,-5.98484 19.99018,-7.028397 29.96384,-2.84023 10.22519,4.29379 16.4749,13.58073 17.67275,26.26135 0.85087,9.00734 -2.41005,18.99499 -10.33035,31.64015 -3.92176,6.2613 -13.29293,18.55491 -15.82664,20.76226 -1.61127,1.40373 -3.78303,1.95572 -5.30161,1.34748 z"
           id="path37-9" /><path
           style="fill:#ffffff;fill-opacity:1;stroke-width:0.471153"
           d="m 198.90864,152.92917 c -9.51189,-2.619 -16.58825,-9.63695 -19.51043,-19.34938 -0.57786,-1.92067 -0.84607,-4.36863 -0.84952,-7.7539 -0.005,-5.6686 0.97021,-9.27307 3.77945,-13.95808 7.16448,-11.948316 22.72994,-16.64818 35.24637,-10.6424 7.36157,3.53232 12.94523,10.19173 14.87637,17.74238 4.62338,18.07724 -8.20546,34.76095 -26.61343,34.6104 -2.59134,-0.0212 -5.7093,-0.31324 -6.92881,-0.64902 z"
           id="path365-9" /></g><path
         style="fill:#000000;stroke-width:0.442089"
         d="m 108.94677,141.79141 c 2.1773,-0.65032 -2.05611,-3.25441 -5.3124,-3.26778 -3.20886,-0.0133 -3.10784,-0.50119 0.92466,-4.46733 3.06333,-3.01293 3.8597,-4.07598 4.26556,-5.69396 0.27447,-1.09417 0.56759,-2.19939 0.65139,-2.45606 0.1327,-0.40645 15.2715,-4.80874 15.50855,-4.50983 0.30553,0.38528 3.28187,10.13389 3.5097,11.49556 0.15241,0.91086 0.72506,2.17689 1.27259,2.81343 0.90449,1.05155 1.36746,1.17855 5.06432,1.38933 4.2628,0.24307 4.98285,-0.0845 3.09404,-1.40746 -0.53614,-0.37551 -1.93061,-1.00025 -3.09883,-1.38826 -2.88116,-0.95696 -3.16926,-1.66153 -2.86778,-7.01319 0.33144,-5.88347 1.13905,-8.6537 3.82413,-13.11746 1.22766,-2.04091 2.61963,-4.90438 3.09327,-6.36328 1.39585,-4.29948 2.36399,-14.581238 1.93569,-20.557208 -0.66503,-9.278977 -0.50287,-9.892549 3.5065,-13.26744 1.74333,-1.467443 4.56967,-3.336367 6.28076,-4.153148 2.10373,-1.004221 3.36155,-1.917647 3.88471,-2.821114 0.42551,-0.734841 0.77365,-1.44948 0.77365,-1.58808 0,-0.53268 -2.53944,-1.528848 -4.64776,-1.823192 -1.21254,-0.169294 -3.2845,-0.610843 -4.60433,-0.98123 -3.31868,-0.93132 -6.5677,-0.516857 -10.86298,1.385736 -2.50096,1.1078 -3.53672,1.796006 -3.53672,2.34999 0,0.430872 -0.56659,1.729371 -1.25907,2.885577 -1.78622,2.982304 -2.81749,5.902835 -4.32512,12.248613 -1.23887,5.214525 -1.49247,5.802378 -4.27668,9.913142 -3.64244,5.377883 -5.12724,6.431107 -13.79093,9.782394 -12.261377,4.74293 -16.70424,8.64603 -23.541021,20.68098 -4.89245,8.61223 -6.92736,10.19196 -13.152424,10.21031 -2.066761,0.007 -7.57029,-0.16007 -12.230042,-0.36917 -11.276019,-0.50611 -17.502545,0.33392 -24.352875,3.28545 -4.257756,1.8345 -2.360997,2.57154 4.519376,1.75614 6.000683,-0.71117 15.737476,-0.3407 24.105927,0.91717 4.754736,0.71469 7.66626,0.91079 11.273292,0.75936 5.492115,-0.23058 7.934893,-0.99777 12.409332,-3.8973 1.475847,-0.95638 2.43172,-1.67503 2.597138,-1.67503 4.764416,-3.02394 -0.164957,-0.85192 0.222547,-0.21284 l 3.079797,1.65749 c 1.730444,0.9313 1.437499,1.62175 0.976217,2.94504 -0.763246,2.18942 -0.6131,3.41041 0.492094,4.00189 1.007947,0.53944 13.103612,0.99732 14.593092,0.55242 z"
         id="path1470"
         sodipodi:nodetypes="ccssssssssssssssssssssssssssccsssssccscscc" /></g></g></svg>
