<?xml version="1.0" encoding="UTF-8" standalone="no"?>
<!-- Created with Inkscape (http://www.inkscape.org/) -->

<svg
   width="4.4615073in"
   height="3.7793758in"
   viewBox="0 0 113.32228 95.996141"
   version="1.1"
   id="svg5"
   xml:space="preserve"
   inkscape:export-filename="Bison.svg"
   inkscape:export-xdpi="96"
   inkscape:export-ydpi="96"
   sodipodi:docname="redfox_logo.svg"
   inkscape:version="1.1.2 (b8e25be833, 2022-02-05)"
   xmlns:inkscape="http://www.inkscape.org/namespaces/inkscape"
   xmlns:sodipodi="http://sodipodi.sourceforge.net/DTD/sodipodi-0.dtd"
   xmlns="http://www.w3.org/2000/svg"
   xmlns:svg="http://www.w3.org/2000/svg"><sodipodi:namedview
     id="namedview7"
     pagecolor="#ffffff"
     bordercolor="#000000"
     borderopacity="0.25"
     inkscape:showpageshadow="2"
     inkscape:pageopacity="0.0"
     inkscape:pagecheckerboard="0"
     inkscape:deskcolor="#d1d1d1"
     inkscape:document-units="mm"
     showgrid="false"
     inkscape:pageshadow="2"
     fit-margin-top="0"
     fit-margin-left="0"
     fit-margin-right="0"
     fit-margin-bottom="0"
     units="in"
     inkscape:zoom="0.68506594"
     inkscape:cx="151.08035"
     inkscape:cy="437.18419"
     inkscape:window-width="1920"
     inkscape:window-height="991"
     inkscape:window-x="-9"
     inkscape:window-y="-9"
     inkscape:window-maximized="1"
     inkscape:current-layer="layer1" /><defs
     id="defs2" /><g
     inkscape:label="Layer 1"
     inkscape:groupmode="layer"
     id="layer1"
     transform="translate(-45.67012,-27.559454)"><path
       style="fill:#000000;stroke-width:0.734437"
       d="M 73.995751,122.7969 C 57.770006,119.51365 52.154263,107.79015 56.211486,85.670223 57.88371,76.553327 57.894322,76.21984 56.661677,71.520132 55.14172,65.72495 51.74724,60.199835 48.244482,57.819647 l -2.574362,-1.749326 2.017804,-0.506449 c 1.109792,-0.278527 4.916686,-0.34115 8.459765,-0.139069 11.144502,0.635442 18.450433,5.190184 22.547972,14.057119 1.969005,4.26086 2.065556,4.946737 1.822253,12.945221 -0.669691,22.016027 -0.626357,22.803967 1.504531,27.357797 1.08685,2.32264 2.076996,4.223 2.200328,4.223 0.12333,0 0.225397,-4.04857 0.226786,-8.99684 0.0028,-10.266787 1.084317,-14.506997 5.353758,-20.991857 3.833778,-5.823105 12.731473,-11.907661 21.575283,-14.753921 5.56838,-1.79213 10.89193,-10.256122 10.89193,-17.31727 0,-6.792614 4.63565,-15.032267 9.31591,-16.55861 1.54127,-0.502647 4.74689,-2.531221 7.12359,-4.507915 2.37671,-1.976721 4.69019,-3.466619 5.14107,-3.310895 0.48858,0.168771 0.81977,2.183076 0.81977,4.985912 0,3.864228 0.28774,4.990492 1.61375,6.316505 0.88755,0.887542 1.95797,2.89205 2.37867,4.454451 0.85723,3.183485 2.62714,5.036821 7.20775,7.547445 1.71675,0.94095 3.12136,2.137193 3.12136,2.658354 0,1.741915 -3.95516,3.092992 -8.6491,2.954479 -6.42255,-0.18959 -7.35702,0.891346 -4.92457,5.696052 2.90276,5.733692 2.5189,8.468242 -2.58394,18.407243 -3.54225,6.89938 -4.4045,9.25383 -4.39578,12.00306 0.0242,7.632497 4.21429,18.903047 8.55163,23.002407 1.03245,0.97582 3.45889,2.03893 5.62361,2.46397 3.18257,0.62486 3.84833,1.03321 4.05548,2.48747 0.34856,2.44665 -0.93683,2.98357 -7.17368,2.99642 l -5.45696,0.0112 -2.98907,-3.22382 c -1.64399,-1.77311 -4.95715,-6.41582 -7.36258,-10.31708 -2.40541,-3.90128 -4.75746,-7.41193 -5.22678,-7.80143 -0.61259,-0.50839 -1.12761,0.27148 -1.8257,2.76489 -1.28045,4.57334 -5.89123,9.2044 -10.94384,10.992 l -3.79528,1.34275 3.83007,1.11438 c 3.75466,1.09245 5.96573,3.01325 4.80602,4.17507 -0.80078,0.80221 -42.668076,0.97728 -46.536174,0.19458 z"
       id="path1505" /></g></svg>
