<?xml version="1.0" encoding="UTF-8" standalone="no"?>
<!-- Created with Inkscape (http://www.inkscape.org/) -->

<svg
   width="6.2541666in"
   height="8.3546295in"
   viewBox="0 0 158.85583 212.20759"
   version="1.1"
   id="svg5"
   xml:space="preserve"
   inkscape:export-filename="Bison.svg"
   inkscape:export-xdpi="96"
   inkscape:export-ydpi="96"
   sodipodi:docname="Wolf.svg"
   inkscape:version="1.1.2 (b8e25be833, 2022-02-05)"
   xmlns:inkscape="http://www.inkscape.org/namespaces/inkscape"
   xmlns:sodipodi="http://sodipodi.sourceforge.net/DTD/sodipodi-0.dtd"
   xmlns="http://www.w3.org/2000/svg"
   xmlns:svg="http://www.w3.org/2000/svg"><sodipodi:namedview
     id="namedview7"
     pagecolor="#ffffff"
     bordercolor="#000000"
     borderopacity="0.25"
     inkscape:showpageshadow="2"
     inkscape:pageopacity="0.0"
     inkscape:pagecheckerboard="0"
     inkscape:deskcolor="#d1d1d1"
     inkscape:document-units="mm"
     showgrid="false"
     inkscape:pageshadow="2"
     fit-margin-top="0"
     fit-margin-left="0"
     fit-margin-right="0"
     fit-margin-bottom="0"
     units="in"
     inkscape:zoom="0.68506594"
     inkscape:cx="226.98545"
     inkscape:cy="469.29789"
     inkscape:window-width="1920"
     inkscape:window-height="991"
     inkscape:window-x="-9"
     inkscape:window-y="-9"
     inkscape:window-maximized="1"
     inkscape:current-layer="layer1" /><defs
     id="defs2" /><g
     inkscape:label="Layer 1"
     inkscape:groupmode="layer"
     id="layer1"
     transform="translate(-25.247231,-18.841231)"><g
       inkscape:label="Layer 1"
       id="layer1-6"
       transform="matrix(2.5632101,0,0,2.5632101,-422.91692,-226.0904)"><path
         style="fill:#000000;fill-opacity:1;stroke-width:0.264583"
         d="m 205.37152,177.8 c -1.19815,-0.47989 -2.15388,-1.34828 -4.86838,-4.4235 -17.08989,-19.36092 -24.22054,-31.77015 -25.3915,-44.18802 -1.03907,-11.01909 4.44217,-22.13559 14.08189,-28.55949 8.98085,-5.98484 19.99018,-7.028397 29.96384,-2.84023 10.22519,4.29379 16.4749,13.58073 17.67275,26.26135 0.85087,9.00734 -2.41005,18.99499 -10.33035,31.64015 -3.92176,6.2613 -13.29293,18.55491 -15.82664,20.76226 -1.61127,1.40373 -3.78303,1.95572 -5.30161,1.34748 z"
         id="path37" /><path
         style="fill:#ffffff;fill-opacity:1;stroke-width:0.471153"
         d="m 198.90864,152.92917 c -9.51189,-2.619 -16.58825,-9.63695 -19.51043,-19.34938 -0.57786,-1.92067 -0.84607,-4.36863 -0.84952,-7.7539 -0.005,-5.6686 0.97021,-9.27307 3.77945,-13.95808 7.16448,-11.948316 22.72994,-16.64818 35.24637,-10.6424 7.36157,3.53232 12.94523,10.19173 14.87637,17.74238 4.62338,18.07724 -8.20546,34.76095 -26.61343,34.6104 -2.59134,-0.0212 -5.7093,-0.31324 -6.92881,-0.64902 z"
         id="path365" /></g><g
       inkscape:label="Layer 1"
       id="layer1-3"
       transform="matrix(0.86426556,0,0,0.86426556,-93.50833,0.59609137)"><g
         inkscape:label="Layer 1"
         id="layer1-4"
         transform="matrix(2.9385037,0,0,2.9385037,-525.76528,-292.27857)" /><path
         style="fill:#000000;stroke-width:1.01817"
         d="m 201.07276,185.5593 c 1.25997,-0.19819 2.29086,-0.99965 2.29086,-1.78098 0,-1.4585 -4.06018,-4.24008 -4.08823,-2.80079 -0.008,0.4397 -0.45974,0.11237 -1.0026,-0.7278 -0.54282,-0.83998 -0.99398,-3.741 -1.00257,-6.44674 -0.0115,-3.82558 0.8,-6.31601 3.65219,-11.19981 2.01729,-3.45416 3.73997,-6.36118 3.82821,-6.46005 0.0881,-0.0989 0.15585,5.55054 0.15046,12.55427 -0.008,11.43673 0.19126,12.88126 1.96631,14.17947 2.24721,1.64357 5.4791,1.85083 7.63069,0.48939 1.21145,-0.7666 1.23369,-1.19982 0.12969,-2.52984 -0.73254,-0.88265 -2.19216,-1.60483 -3.24355,-1.60483 -1.67762,0 -1.91166,-0.82533 -1.91166,-6.7414 0,-6.21407 0.3934,-7.42863 5.02906,-15.52701 2.76599,-4.83207 5.33692,-10.50375 5.7132,-12.6037 0.73234,-4.08714 1.41305,-4.46819 4.77139,-2.67086 2.67337,1.43075 11.3338,1.3048 14.15652,-0.20588 1.16135,-0.62152 2.49281,-0.74396 2.95891,-0.27207 0.86314,0.87389 3.35849,18.8882 4.60088,33.2143 0.53339,6.15066 1.09957,8.14132 2.53387,8.90895 2.77841,1.48694 7.05889,1.18829 7.72161,-0.53877 0.38483,-1.00234 1.97405,-1.52723 4.62447,-1.52723 3.29667,0 3.97598,-0.32709 3.69876,-1.78183 -0.18663,-0.97997 -1.3658,-1.92816 -2.62007,-2.1071 -2.52883,-0.36096 -2.63538,-1.01973 -2.33487,-14.43801 0.31324,-13.98827 2.75035,-24.90232 7.15036,-32.02168 1.09707,-1.77512 2.64682,-6.98536 3.44389,-11.57836 0.79703,-4.59298 1.90597,-8.91807 2.46426,-9.61128 1.63309,-2.02783 3.4443,-10.764156 4.19705,-20.24402 0.40363,-5.083394 1.31619,-9.599905 2.16005,-10.690724 0.80367,-1.038818 2.73241,-3.393767 4.28611,-5.233223 3.00861,-3.561917 3.74135,-7.346253 1.42236,-7.346253 -0.7714,0 -1.98212,0.698335 -2.69048,1.551847 -2.05971,2.481798 -2.24893,1.042198 -0.37868,-2.880035 1.47894,-3.101301 1.53627,-4.071442 0.40248,-6.808642 l -1.32218,-3.192024 -4.17693,4.01827 c -4.91159,4.72499 -7.69001,6.292418 -11.15386,6.292418 -3.92842,0 -5.54072,0.948075 -7.7834,4.576793 -1.14095,1.846109 -3.25972,3.654054 -4.7084,4.017642 -1.44865,0.363579 -3.73961,1.385565 -5.09105,2.271058 -1.92274,1.259823 -2.20473,1.914168 -1.29653,3.008474 0.63834,0.769173 2.02088,1.398486 3.0723,1.398486 2.59128,0 2.40423,1.294708 -0.72425,5.012693 -1.44976,1.722938 -2.28625,3.132608 -1.85886,3.132608 0.42741,0 -0.2232,1.064909 -1.44604,2.366395 -1.22272,1.301531 -1.96122,2.628344 -1.64109,2.948436 0.32016,0.320164 -1.19971,2.399758 -3.37735,4.621431 -4.86118,4.95933 -12.23828,7.86936 -26.98157,10.64328 -8.40207,1.58083 -11.91441,2.75376 -15.05161,5.0263 -4.79994,3.47706 -7.86501,8.10684 -8.6622,13.08438 -0.8466,5.28559 -4.46062,16.14902 -7.15657,21.51197 -1.30288,2.59174 -2.12839,4.95274 -1.83447,5.24667 0.76264,0.76263 -3.09866,8.02969 -6.26752,11.79562 l -2.68457,3.19045 h 2.52476 c 1.38858,0 4.75107,-1.52672 7.47216,-3.39267 6.2442,-4.28187 9.46247,-10.29348 9.63021,-17.98876 l 0.12199,-5.5999 0.94118,4.5817 c 0.89144,4.33967 0.82936,6.49531 -0.64495,22.39963 -0.33749,3.63991 -0.24128,8.64886 0.21357,11.13093 0.87473,4.77262 3.02694,6.1884 8.17595,5.37841 z m 50.5045,-9.10475 c -0.8055,-3.20938 0.50273,-22.90824 1.59465,-24.01198 0.44935,-0.45419 1.14852,4.9929 1.55367,12.10463 0.40516,7.11175 0.96315,13.52076 1.24003,14.24222 0.34748,0.90517 -0.15624,1.13926 -1.62455,0.75529 -1.1703,-0.30593 -2.41404,-1.69663 -2.7638,-3.09016 z"
         id="path505" /></g></g></svg>
